<?xml version="1.0" encoding="UTF-8"?>
<svg width="734px" height="578px" viewBox="0 0 734 578" version="1.1" xmlns="http://www.w3.org/2000/svg" xmlns:xlink="http://www.w3.org/1999/xlink">
    <title>Combined Shape</title>
    <g id="Page-1" stroke="none" stroke-width="1" fill="none" fill-rule="evenodd">
        <g id="MOCK-DSK-Chipotle-Rewards-Redesign-Option-1b" transform="translate(-659.000000, -129.000000)" fill="#F5F3F2">
            <g id="Group-3" transform="translate(1026.000000, 418.000000) rotate(-360.000000) translate(-1026.000000, -418.000000) translate(659.000000, 128.500000)">
                <path d="M607.958495,0.49985155 C606.720122,6.08207525 605.486933,11.6651506 604.316829,17.2614535 C603.694817,20.2360226 603.73677,23.3493683 603.401139,27.2698102 C619.735801,22.9622544 634.229964,16.0489834 650.247235,11.628215 C651.803178,13.198583 653.505047,14.9205097 655.017212,16.4488794 C652.01842,30.7848779 647.100692,43.6801551 640.778421,56.1298861 C638.230177,61.1441075 636.535604,66.5983971 634.551002,71.8883458 C634.28651,72.5950114 634.618493,73.5244501 634.711522,74.890305 C636.674235,75.0674279 638.587698,75.3796755 640.501161,75.3869795 C646.217836,75.4107176 651.949105,75.0674279 657.653012,75.3175912 C668.993335,75.8160917 680.319065,76.6158837 691.936649,77.3061152 C692.808561,78.9988258 693.702361,80.7317085 694.897136,83.0434362 C687.615397,96.241831 678.456677,108.507135 671.587181,122.934434 C686.998857,122.065254 701.306963,121.258157 716.375711,120.407237 C717.373485,121.493713 718.869233,123.120687 720.271952,124.647231 C719.587921,130.130736 716.154997,133.748061 713.577568,137.741543 C705.868994,149.685469 697.983484,161.512531 690.222011,173.421763 C689.153099,175.06152 688.397928,176.905789 687.347257,178.947267 C688.239233,179.774449 688.92144,180.946747 689.835306,181.171347 C700.513487,183.797148 711.229974,186.27139 721.92822,188.811369 C724.120767,189.331782 726.287778,189.959929 728.469381,190.524166 C731.517423,191.311176 733.416293,193.151793 734,196.58469 C732.865603,199.813988 730.280294,201.744664 727.543245,203.65064 L726.933042,204.074301 L726.933042,204.074301 L726.627057,204.286797 C716.837204,211.097812 707.129435,218.029343 697.450852,225.002872 C695.672371,226.284731 694.185743,227.981093 691.993196,230.017094 C702.023827,241.515474 711.729772,252.639522 721.654607,264.013733 C722.966123,269.141167 720.275601,272.705537 715.59318,274.376336 C704.522821,278.329646 694.98834,285.05849 684.65491,290.761117 C688.518318,301.994726 693.220803,312.866785 699.298648,323.125304 C701.764808,327.284953 702.810007,331.115921 703.067203,337.34809 C694.003335,347.701563 680.078286,350.643264 668.157905,357.976517 C669.746681,360.580406 671.22054,362.943262 672.639677,365.340812 C676.54139,371.940009 680.510594,378.502687 684.279149,385.178576 C687.091885,390.156277 686.44616,393.539873 681.672535,396.797473 C678.701104,398.826169 675.319254,400.520706 671.879034,401.534141 C663.223761,404.085076 654.45357,406.208725 645.404295,407.015821 C642.956376,407.233116 640.592365,408.378024 638.372456,409.040865 C642.400031,420.183173 646.325457,431.040624 650.250883,441.896249 C650.732441,443.225584 651.279666,444.533006 651.682789,445.886079 C654.522886,455.353937 653.871688,457.327853 646.051845,463.224037 C645.15622,463.89966 644.269716,464.584414 642.660875,465.815144 C639.294118,464.587447 635.832978,463.556947 632.343168,462.549357 L630.246368,461.946158 L630.246368,461.946158 L628.846236,461.542949 C619.041699,458.710241 609.184129,455.601685 600.716089,448.391364 C597.540361,454.607099 597.525768,461.427244 596.688514,467.989921 C595.794714,475.025535 595.318628,482.130537 595.023127,489.219104 C594.817005,494.169415 590.977311,496.31315 588.018648,499.587185 C578.943289,499.291919 570.864453,495.841529 562.773065,492.157072 L561.30154,491.485242 C555.167739,488.680622 548.991635,485.84327 542.334493,484.243229 C540.851514,488.517917 541.440692,492.777996 542.146613,496.886517 C543.430767,504.378633 545.451851,511.752058 546.520763,519.267912 C547.009617,522.69168 548.122308,526.723508 544.359225,530.189274 C537.973111,531.020108 531.594293,530.859419 525.095086,527.346177 C518.214645,523.628422 510.639229,521.203482 502.82121,517.989706 C500.617718,529.210533 498.560152,539.688174 496.405911,550.647881 C493.620536,555.481328 488.976421,555.441155 484.005795,553.852527 C482.407899,553.341245 480.881141,552.431892 479.485718,551.464107 C470.020552,544.897778 458.928304,542.100332 447.898075,537.75443 C446.451577,549.387935 439.60397,558.377378 434.263056,567.321171 C429.02429,569.799066 424.938344,567.717415 421.149724,566.152526 C410.949453,561.930792 400.960775,557.190472 390.660179,552.552409 C384.929988,555.671523 380.420971,560.217746 375.953581,564.837175 L374.677297,566.157834 C370.207136,570.778927 365.666264,575.344283 359.875132,578.5 L359.875132,578.5 L354.089141,578.5 C344.868403,570.206266 340.331909,558.468679 332.335129,548.314241 C326.242692,553.350375 320.55885,557.904442 315.042824,562.65024 C309.707381,567.239001 304.541579,572.026797 299.614731,576.44574 C297.068311,575.616731 295.187682,575.003192 292.559178,574.146794 C290.171454,568.871453 287.829331,563.110394 284.991059,557.60315 C282.185619,552.161643 282.82952,545.339672 278.460842,540.330929 C269.521012,542.768651 262.593145,549.324024 253.669732,550.078166 C245.165857,550.795788 238.287241,557.783925 228.351462,556.014522 C227.647366,553.657144 226.536499,551.098905 226.162562,548.43841 C225.372734,542.82891 225.099122,537.151847 224.35672,531.536868 C223.953598,528.494737 223.019667,525.521994 222.27909,522.322826 C213.448705,525.109316 205.081636,528.27379 196.450076,530.324398 C187.833109,532.371355 179.548124,536.835947 169.823939,535.240015 C167.427094,518.455338 173.07263,502.64575 174.672351,486.180625 C171.261316,486.79599 168.320894,486.755818 165.900336,487.860554 C154.508939,493.059202 142.2055,495.097028 130.348961,498.666876 C126.715388,499.760656 123.731189,500.533058 121.363529,495.858474 C125.788754,481.70325 130.328897,467.173695 135.045975,452.078077 C133.517393,451.849825 131.826469,451.086554 130.462055,451.473668 C124.672416,453.123163 118.804949,453.160089 112.933159,453.084749 L111.331709,453.062545 C108.92954,453.028447 106.527766,452.998385 104.131418,453.075078 C98.7704389,453.246723 93.3985149,452.543709 88.1050264,454.577883 C85.9088306,455.4215 83.1179839,454.718486 80.9455012,454.718486 C77.4615029,451.312979 78.6799903,448.267195 80.0936545,444.956641 C85.54219,432.203792 89.6007744,418.82097 97.3585988,407.118077 C97.9550739,406.217855 98.2140936,405.094859 98.660994,404.002905 C92.497418,403.186679 86.3666754,402.458102 80.2651183,401.543271 C74.1434962,400.622962 68.0656521,399.421448 61.9422059,398.517574 C55.8370006,397.617351 49.4983126,398.791475 44.1263886,397.442054 C41.6910353,393.827368 42.5705585,391.193766 43.860678,388.699954 L44.0569124,388.326825 C44.1562062,388.14068 44.2569929,387.955084 44.3580471,387.769683 C50.3136776,376.830062 56.2966694,365.905049 62.5970516,354.375626 C50.9958846,343.258882 33.7272922,341.093235 20.250968,332.408735 C20.4999553,326.632155 23.6126387,322.961192 26.7717507,319.513886 L27.5003184,318.721468 C28.3079042,317.843511 29.1042945,316.97074 29.8419957,316.071431 C36.3448511,308.139247 43.453302,300.705563 50.2735478,293.030846 C50.5945864,292.66747 50.5763456,292.002803 50.7806429,291.234053 C43.7013773,286.840675 35.461995,286.535731 27.6020219,284.830239 C21.5697799,283.52099 15.5375378,282.089399 9.66946326,280.197653 C7.13581216,279.381427 5.01805196,277.272387 3.06263513,275.981398 C3.12830211,269.57028 6.68161553,266.203119 10.5632639,263.263244 C22.739017,254.040071 31.3997624,241.667032 41.6419877,230.049962 C37.8459003,226.25637 33.5276477,223.693609 29.263774,221.246741 L27.9197676,220.476598 C25.4615355,219.066964 23.0418717,217.656837 20.7726557,216.029863 C14.3591803,211.42832 7.23248856,207.823777 -2.27373675e-12,203.53083 L-2.27373675e-12,203.53083 L-2.27373675e-12,198.302965 C8.7541906,186.643009 21.1561802,180.943742 34.1936515,175.413612 L35.5215694,174.851584 C35.9648607,174.664285 36.4087648,174.476955 36.8531646,174.289368 L38.1877332,173.725611 C39.3009169,173.254795 40.4164646,172.780965 41.5325427,172.300594 C32.0527841,155.179931 20.9386472,139.890756 7.76512075,124.873656 C8.31234561,123.124339 9.02008976,120.867392 9.63298161,118.911736 C18.9318244,119.258345 27.6906784,117.757819 36.3790304,116.10073 L38.5499213,115.684174 C38.9115822,115.61453 39.2731886,115.54486 39.6347745,115.475284 L41.8043156,115.05995 C47.2289114,114.029358 52.6641742,113.075188 58.224725,112.610178 C57.7468153,110.837123 57.6720279,109.383619 57.0098858,108.284362 C50.5654011,97.5784697 43.9549248,86.9730081 37.5724588,76.2324218 C36.3630919,74.1964215 35.9508492,71.6856588 35.2777626,69.7099168 C38.8193024,65.5528408 42.8295335,65.0976778 46.9499116,65.0648883 L47.5392476,65.0627233 C58.1171041,65.0590713 68.6967847,65.1175036 79.2746413,65.013421 C82.0107656,64.9860309 85.1372436,65.6908705 87.3370875,61.9986798 C80.69925,46.5506417 73.9063654,30.7410537 66.6246266,13.793862 C73.9263139,10.280154 81.6226802,10.0131549 89.3271394,10.0995757 L90.5436439,10.1157363 L90.5436439,10.1157363 L93.5832743,10.1652273 C93.9882386,10.1714614 94.3930282,10.1771982 94.7975864,10.1820157 C104.42692,10.2952283 114.052605,10.7389485 124.364146,11.0585002 C124.443295,7.5640053 123.952283,4.04638149 123.361049,0.499558615 Z" id="Combined-Shape"></path>
            </g>
        </g>
    </g>
</svg>