<?xml version="1.0" encoding="UTF-8"?>
<svg width="225px" height="225px" viewBox="0 0 225 225" version="1.1" xmlns="http://www.w3.org/2000/svg" xmlns:xlink="http://www.w3.org/1999/xlink">
    <title>Numbers__1</title>
    <defs>
        <path d="M1.00465154,0.523698718 C0.583857491,0.644628205 0.295213636,1.02469231 0.295213636,1.46003846 L0.295213636,1.46003846 L0.180451621,1.47040385 C1.35241522,5.62346795 2.55219992,9.76962179 3.78676099,13.9019551 L3.78676099,13.9019551 C4.70833474,16.8284487 5.33083173,20.9262308 7.38959272,23.3482756 L7.38959272,23.3482756 C9.45183135,25.7703205 13.9066841,26.2402179 16.8105108,26.7999487 L16.8105108,26.7999487 C20.5976573,27.5151603 24.4369683,27.9090449 28.2867123,27.9781474 L28.2867123,27.9781474 C32.1364562,28.0541603 35.9792449,27.7881154 39.7803019,27.1765577 L39.7803019,27.1765577 C42.4859034,26.7446667 46.8885916,26.1676603 48.6378429,23.7490705 L48.6378429,23.7490705 C49.4064006,22.3704744 49.9593449,20.8847692 50.2792875,19.3403269 L50.2792875,19.3403269 C50.839187,17.5332949 51.1660848,15.7297179 51.6355658,14.0643462 L51.6355658,14.0643462 C52.6649463,10.1773269 53.7256255,6.18319872 55.1340684,2.42747436 L55.1340684,2.42747436 C55.568773,1.25273077 53.6943268,0.744826923 53.3361302,1.91266026 L53.3361302,1.91266026 C51.1278308,7.87621154 50.0080318,14.1990962 47.9214497,20.1764679 L47.9214497,20.1764679 C47.6849704,21.2613782 47.2015789,22.280641 46.5130068,23.1513333 L46.5130068,23.1513333 C45.793136,23.6696026 44.9689361,24.0220256 44.0960492,24.1809615 L44.0960492,24.1809615 C42.5241574,24.6888654 40.9105339,25.0723846 39.2829999,25.3211538 L39.2829999,25.3211538 C35.6488694,25.8808846 31.9834402,26.1192885 28.3110557,26.0467308 L28.3110557,26.0467308 C24.7673438,25.9776282 21.2375425,25.6286603 17.7494728,24.9963718 L17.7494728,24.9963718 C14.7760933,24.4573718 9.81002794,24.1084038 8.35289812,21.0920769 L8.35289812,21.0920769 C7.0383514,17.9168141 5.95680636,14.6517179 5.12217352,11.3175192 L5.12217352,11.3175192 C4.07540484,7.8589359 3.06689017,4.40380769 2.0966295,0.945224359 L2.0966295,0.945224359 C1.91231475,0.65499359 1.59932744,0.489147436 1.27242958,0.489147436 L1.27242958,0.489147436 C1.18201102,0.489147436 1.09159246,0.499512821 1.00465154,0.523698718 L1.00465154,0.523698718 Z" id="path-1"></path>
        <path d="M0.283994349,3.22285714 C0.94982716,5.016 4.1168454,5.37942857 5.64515595,5.62971429 L5.64515595,5.62971429 C12.1033892,6.73028571 18.6478703,7.272 25.1958012,7.24114286 L25.1958012,7.24114286 C31.6919835,7.24114286 38.1916157,6.85028571 44.6705485,6.25714286 L44.6705485,6.25714286 C47.8927653,5.97257143 51.1701807,5.69828571 54.3544485,5.18057143 L54.3544485,5.18057143 C55.6309155,4.968 57.9320061,4.51885714 58.3080464,2.92114286 L58.3080464,2.92114286 C58.401194,2.58171429 58.3045965,2.21828571 58.052753,1.97142857 L58.052753,1.97142857 C56.8245847,1.14514286 55.2962742,0.891428571 53.8645611,1.27542857 L53.8645611,1.27542857 C52.6501925,1.47085714 53.1469797,3.336 54.3785979,3.06514286 L54.3785979,3.06514286 C54.7856874,2.976 55.2031266,2.94857143 55.613666,2.98971429 L55.613666,2.98971429 C54.1267544,3.53485714 51.1149821,3.6 50.3974007,3.69257143 L50.3974007,3.69257143 C48.2170569,3.94971429 46.0332633,4.14514286 43.8494697,4.33714286 L43.8494697,4.33714286 C39.2127894,4.73485714 34.579559,5.05371429 29.9221792,5.18057143 L29.9221792,5.18057143 C25.2682494,5.30742857 20.7385163,5.18057143 16.1604845,4.92342857 L16.1604845,4.92342857 C13.6696488,4.74514286 11.182263,4.47771429 8.71557668,4.12114286 L8.71557668,4.12114286 C7.8358494,3.99771429 3.7994536,3.72685714 2.49883717,2.82514286 L2.49883717,2.82514286 C2.99562435,2.56457143 3.54071028,2.41371429 4.10649567,2.38285714 L4.10649567,2.38285714 C5.32431423,2.184 4.80337768,0.332571429 3.59590885,0.589714286 L3.59590885,0.589714286 L3.54071028,0.558857143 C2.3194418,0.757714286 -0.381838462,1.43657143 0.283994349,3.22285714 L0.283994349,3.22285714 Z" id="path-3"></path>
        <path d="M0.748641975,1.64925 L0.769382716,1.645875 L0.769382716,3.95775 C0.765925926,4.298625 0.942222222,4.6125 1.23950617,4.784625 L1.23950617,4.784625 C5.94074074,6.850125 10.9841975,8.044875 16.1209877,8.3115 L16.1209877,8.3115 C21.9733333,8.895375 27.8602469,9.054 33.7333333,8.79075 L33.7333333,8.79075 C39.1985185,8.57475 44.6395062,8.04825 50.0355556,7.214625 L50.0355556,7.214625 C51.4251852,7.005375 52.8044444,6.775875 54.1802469,6.5295 L54.1802469,6.5295 C55.4696296,6.472125 56.748642,6.195375 57.9481481,5.7195 L57.9481481,5.7195 C59.0958025,5.014125 59.202963,2.9115 59.3274074,1.713375 L59.3274074,1.713375 C59.4553086,0.5085 57.5333333,0.511875 57.4054321,1.713375 L57.4054321,1.713375 C57.3466667,2.496375 57.1634568,3.26925 56.8696296,4.005 L56.8696296,4.005 C56.4582716,4.480875 53.8587654,4.588875 53.1604938,4.710375 L53.1604938,4.710375 C50.6266667,5.155875 48.0824691,5.544 45.5348148,5.86125 L45.5348148,5.86125 C40.7298765,6.445125 35.9041975,6.789375 31.0612346,6.90075 L31.0612346,6.90075 C26.3358025,7.032375 21.6,6.87375 16.8918519,6.424875 L16.8918519,6.424875 C12.0869136,5.96925 7.01234568,5.439375 2.62222222,3.384 L2.62222222,3.384 L2.68790123,1.64925 C2.68790123,1.035 2.22123457,0.727875 1.74419753,0.727875 L1.74419753,0.727875 C1.26716049,0.727875 0.779753086,1.038375 0.748641975,1.64925 L0.748641975,1.64925 Z" id="path-5"></path>
        <path d="M0.233152221,0.964355469 L5.02606917,14.9458008 L7.62060547,17.3754883 L14.3107603,18.3730469 L24.4035769,19.9643555 C30.2206826,12.3663593 32.757978,8.11301917 32.0154629,7.20433494 C31.2729479,6.29565071 28.5196704,4.55699089 23.7556304,1.98835547 C16.5642618,1.98835547 12.7531928,1.98835547 12.3224235,1.98835547 C11.6762695,1.98835547 10.1484487,0 10.1484487,0 C10.1484487,0 6.84334985,0.321451823 0.233152221,0.964355469 Z" id="path-7"></path>
    </defs>
    <g id="Numbers__1" stroke="none" stroke-width="1" fill="none" fill-rule="evenodd">
        <polygon id="1" fill="#AC2117" fill-rule="nonzero" points="138.504 191.92 138.504 34 106.92 34 61 46.992 69.288 80.592 95.72 74.32 95.72 191.92"></polygon>
        <g id="Group-55" transform="translate(61.500000, 107.000000)">
            <g id="Group-3" transform="translate(2.500000, 39.000000)">
                <mask id="mask-2" fill="white">
                    <use xlink:href="#path-1"></use>
                </mask>
                <g id="Clip-2"></g>
                <polygon id="Fill-1" fill="#411E15" mask="url(#mask-2)" points="-3.02245188 31.1706859 58.4065247 31.1706859 58.4065247 -2.69648077 -3.02245188 -2.69648077"></polygon>
            </g>
            <g id="Group-6" transform="translate(1.500000, 34.000000)">
                <mask id="mask-4" fill="white">
                    <use xlink:href="#path-3"></use>
                </mask>
                <g id="Clip-5"></g>
                <polygon id="Fill-4" fill="#411E15" mask="url(#mask-4)" points="-3.00032086 10.4022857 61.5233634 10.4022857 61.5233634 -2.60228571 -3.00032086 -2.60228571"></polygon>
            </g>
            <g id="Group-9" transform="translate(0.500000, 36.000000)">
                <mask id="mask-6" fill="white">
                    <use xlink:href="#path-5"></use>
                </mask>
                <g id="Clip-8"></g>
                <polygon id="Fill-7" fill="#411E15" mask="url(#mask-6)" points="-2.43506173 12.024 62.5180247 12.024 62.5180247 -2.3805 -2.43506173 -2.3805"></polygon>
            </g>
            <g id="Group-54" transform="translate(3.500000, 0.000000)" fill="#411E15">
                <path d="M49.1831897,40.643095 C50.3058772,40.643095 50.3058772,38.9094905 49.1831897,38.9094905 C48.0639888,38.9094905 48.0605022,40.643095 49.1831897,40.643095" id="Fill-10"></path>
                <path d="M16.6733674,14.3852273 C15.6204121,14.6660712 14.6685683,15.4669965 13.9677603,16.271389 C13.2216263,17.1277897 12.6602826,18.095141 12.2174835,19.1318365 C11.7467915,20.234409 11.3702379,21.3889896 11.0913094,22.5505047 C10.8228406,23.6634788 10.7461353,24.8388626 11.3597781,25.8547549 C11.9385549,26.8082374 13.4447692,25.9379679 12.8659924,24.977551 C12.4441129,24.280642 12.656796,23.434643 12.852046,22.6926602 C13.1170281,21.7183745 13.4064165,20.7336871 13.8108629,19.8010079 C14.1525504,19.007017 14.5848897,18.2164933 15.1497201,17.5577236 C15.6587647,16.9578964 16.3491129,16.2644546 17.1370862,16.0564221 C18.2179344,15.7686437 17.7611888,14.0974489 16.6733674,14.3852273" id="Fill-12"></path>
                <path d="M29.2868661,20.3294105 C26.3267366,20.5963856 15.8041562,21.4562535 17.3661562,15.8671125 C17.3835893,15.8012355 17.3382634,15.7630962 17.3452366,15.7006864 C19.3221429,11.7827402 22.3415446,8.51662922 26.0408348,6.18319751 C25.9188036,6.74835259 25.9292634,7.35164697 26.1663527,7.96881018 C26.9543259,10.0179307 29.3705446,10.9436756 31.3369911,11.4533553 C33.3034375,11.963035 35.5034866,12.1467971 37.2433036,13.2736401 C38.2369866,13.918541 38.8576027,14.8789579 39.3213214,15.9433911 C39.8268795,17.0979717 40.2731652,18.3461669 40.2557321,19.6151655 C36.591308,19.4452722 32.9303705,20.0000257 29.2868661,20.3294105 M50.8619911,24.7258316 C49.0140893,21.414647 45.6007009,20.1525829 41.9885759,19.7157145 C42.0339018,18.5541995 41.7514866,17.4377582 41.3435536,16.3490545 C40.9600268,15.3054246 40.5276875,14.2617946 39.8512857,13.3707219 C38.6832723,11.8278139 36.9434554,11.0372902 35.1095,10.5553482 C33.2825179,10.0734061 31.302125,9.87577517 29.6006607,9.00203849 C28.781308,8.58250619 27.7039464,7.88906437 27.69,6.85236886 C27.6760536,5.85034544 28.6244107,5.08409223 29.5030357,4.81018272 C30.5699375,4.48079786 30.113192,2.80613587 29.039317,3.13898794 C28.9695848,3.1597912 28.9033393,3.1979305 28.8370937,3.22220096 C28.5895446,3.04884051 28.293183,2.94135703 27.9514955,3.09738143 C22.5367946,5.57990313 18.0634777,9.99366028 15.5252277,15.3574327 C15.3857634,15.6590799 15.4450015,15.9225878 15.5740402,16.1548908 C15.2149196,19.1886987 17.9484196,21.3002291 20.8074375,21.8931218 C24.9111741,22.742588 29.2066741,22.0734167 33.3208705,21.6400156 C37.5640714,21.1927456 42.33375,20.7281396 46.3049955,22.6351046 C50.7085804,24.7431677 51.5000402,30.8662589 50.3738661,35.0754507 C50.0844777,36.1572199 51.7685089,36.6183588 52.0578973,35.5365895 C53.0167143,31.9306921 52.699433,28.0196803 50.8619911,24.7258316" id="Fill-14"></path>
                <path d="M43.8308991,20.038165 C45.828725,15.9572599 47.0211446,11.945699 46.4179616,7.37938464 C46.2715241,6.2560089 46.0727875,5.14303479 45.8845107,4.02312626 C45.8008321,3.53771699 45.5846625,2.88588168 45.633475,2.39353799 C45.6857741,1.8595878 45.5637429,1.98440732 46.0971937,1.90812872 C46.4632875,1.8595878 46.8921402,1.99134174 47.2408009,2.07802197 C49.3153321,2.59463612 51.3654571,3.6972086 53.2796045,4.62988785 C56.9161357,6.39816447 60.4376089,8.48889154 63.516283,11.1239704 C65.06085,12.4449771 66.5008187,13.8977377 67.7699437,15.4891867 C68.1151179,15.9225878 68.4010196,16.4288003 68.7706,16.8344638 C68.8368455,16.9072752 68.9693366,17.2956026 69.0146625,17.1083733 C69.0843946,16.7928573 68.5300241,17.468963 68.4533187,17.5383072 C67.5921268,18.3080276 66.737908,19.0846825 65.8732295,19.8544029 C61.6997607,23.571251 56.3129527,25.1835032 51.0900152,26.9413782 C50.0335732,27.2985008 50.4868321,28.9731627 51.5537339,28.612573 C56.6128009,26.9101733 62.1007205,25.3464621 66.2288634,21.8480481 C67.2155732,21.0124507 68.1639304,20.1317796 69.1262339,19.2684446 C69.764283,18.6894206 70.8416446,18.047987 70.7893455,17.0632996 C70.7509929,16.224235 69.8793411,15.3886376 69.3912161,14.7610728 C68.6625152,13.8179919 67.8815152,12.9130503 67.0517027,12.0566497 C63.791725,8.7003913 59.8413991,6.05491077 55.6958232,3.90177394 C53.6038589,2.8165375 51.4491357,1.83531733 49.2595464,0.958113437 C47.9695018,0.438032076 44.6049259,-0.751220636 43.9006312,1.2874983 C43.565917,2.26178405 44.0784482,3.76308558 44.2423187,4.73390412 C44.5247339,6.39469726 44.835042,8.0520232 44.8838545,9.74055402 C44.9779929,13.089878 43.7786,16.1999645 42.3246848,19.1644283 C41.8400464,20.1629845 43.3392875,21.0436556 43.8308991,20.038165" id="Fill-16"></path>
                <path d="M48.7696781,18.3583022 C48.7627049,18.2681547 48.7557317,18.1745401 48.7348121,18.0878599 C48.7348121,18.0774582 48.7313254,18.0670566 48.7243522,18.056655 C48.699946,17.9838436 48.6615933,17.8971634 48.6267272,17.8278192 C48.619754,17.8139503 48.6127808,17.8035487 48.6058076,17.7896799 C48.5709415,17.7376717 48.504696,17.6579259 48.4663433,17.609385 C48.4628567,17.6024506 48.4558835,17.5955162 48.4523969,17.592049 C48.4454237,17.5851145 48.4419371,17.5816473 48.4384504,17.5781801 C48.3931246,17.5365736 48.3059594,17.4706966 48.2536603,17.4360246 C48.2432004,17.4325573 48.2327406,17.4290901 48.2222808,17.4221557 C48.034004,17.3354755 47.9468388,17.3042706 47.7376424,17.2904018 C47.5354192,17.2800001 47.3576022,17.3458771 47.1797853,17.4290901 L47.155379,17.442959 C47.1518924,17.4464262 47.1484058,17.4498934 47.1414326,17.4533606 C47.1030799,17.4776311 47.0542674,17.5157704 47.0124281,17.5539097 C46.9984817,17.5539097 46.9845353,17.543508 46.9740754,17.543508 C46.8136915,17.543508 46.667254,17.5816473 46.5312763,17.6613931 C46.356946,17.7688766 46.259321,17.8728929 46.1442629,18.0393189 C46.1338031,18.056655 46.1268299,18.0705238 46.1163701,18.0878599 C46.0849906,18.1537368 46.0466379,18.2404171 46.0222317,18.3097612 C46.0152585,18.3201629 46.0117719,18.3340317 46.0117719,18.3444333 C45.9873656,18.4519168 45.9629594,18.5698019 45.9734192,18.6842198 C45.983879,18.7743673 45.9943388,18.8714491 46.0082853,18.9615965 C46.0152585,18.9823998 46.0222317,19.0066703 46.0292049,19.0240063 C46.0605844,19.1106865 46.0989371,19.1973668 46.1372897,19.2805798 C46.1442629,19.301383 46.1582094,19.3187191 46.1686692,19.3360551 C46.2209683,19.4123337 46.2802406,19.4851451 46.3360263,19.5510221 C46.3534594,19.5683581 46.3674058,19.5856942 46.3848388,19.5960958 C46.4510844,19.6550384 46.5243031,19.7139809 46.5975219,19.7590546 C46.6777138,19.8110628 46.7718522,19.8388004 46.8590174,19.8769397 C46.8729638,19.8838742 46.8938835,19.8873414 46.9148031,19.8908086 C46.9287496,19.8942758 46.942696,19.897743 46.9566424,19.9012102 C47.0438076,19.9116118 47.1344594,19.9289479 47.2181379,19.9358823 C47.2460308,19.9358823 47.2739237,19.9358823 47.3018165,19.9324151 C47.4029281,19.9185463 47.5075263,19.9116118 47.6051513,19.8838742 C47.6679103,19.8700053 47.7271826,19.8422677 47.7829683,19.8179972 C47.8422406,19.7937267 47.9015129,19.7694563 47.9607853,19.7382514 C47.9851915,19.7243825 48.0095978,19.7070465 48.034004,19.6897105 C48.1107094,19.6307679 48.1943879,19.5718253 48.2676067,19.5059484 C48.3617451,19.4158009 48.4419371,19.3083175 48.5151558,19.2043012 C48.5500219,19.1592275 48.5779147,19.1072193 48.6058076,19.0552112 C48.6546201,18.9407933 48.717379,18.819441 48.7382987,18.6946214 C48.7557317,18.5940724 48.7731647,18.4935233 48.7731647,18.3929743 C48.7731647,18.3791054 48.7731647,18.3687038 48.7696781,18.3583022" id="Fill-18"></path>
                <path d="M49.2462973,14.6809802 C49.2428107,14.6567098 49.2393241,14.6324393 49.2323509,14.611636 C49.1626188,14.4244068 49.0859134,14.2614479 48.9359893,14.1262268 C48.8557973,14.0430138 48.7616589,13.980604 48.6570607,13.9459319 C48.5489759,13.8939238 48.4374045,13.8661861 48.3188598,13.8731205 C48.2003152,13.8661861 48.0852571,13.8939238 47.9806589,13.9459319 C47.9179,13.9667352 47.8690875,14.0152761 47.8133018,14.0534154 C47.7365964,14.063817 47.6598911,14.0742186 47.5831857,14.0846203 C47.4332616,14.1227596 47.3077438,14.1990382 47.1996589,14.3065216 C47.154333,14.3654642 47.1055205,14.4244068 47.0636813,14.4833493 C46.9834893,14.6185705 46.94165,14.7641932 46.94165,14.9202177 C46.9381634,14.9444881 46.9381634,14.9687586 46.94165,14.9895618 C46.9486232,15.0727749 46.959083,15.1629223 46.9765161,15.2426681 C46.9800027,15.2565369 46.9834893,15.2704058 46.9869759,15.2808074 C47.0183554,15.3605532 47.0532214,15.4611023 47.1020339,15.5408481 C47.1055205,15.5477825 47.1124938,15.5581841 47.119467,15.5651185 C47.1682795,15.6344627 47.217092,15.7038069 47.2763643,15.7662167 C47.2903107,15.7835527 47.3077438,15.7974215 47.3251768,15.8112904 C47.3809625,15.8563641 47.4785875,15.9395771 47.5587795,15.9811836 C47.6319982,16.0158557 47.7121902,16.0505278 47.7888955,16.0782655 C47.7958688,16.0817327 47.8098152,16.0851999 47.820275,16.0886671 C47.8307348,16.0921343 47.8446813,16.0956015 47.8551411,16.0990687 C47.9388196,16.1129376 48.0294714,16.1268064 48.11315,16.1337408 L48.1480161,16.1337408 C48.1549893,16.1302736 48.1619625,16.1302736 48.1689357,16.1302736 C48.2386679,16.1233392 48.3362929,16.1129376 48.406025,16.0990687 C48.4966768,16.0817327 48.618708,16.0193229 48.6744938,15.9950525 C48.7756054,15.9465115 48.8697438,15.8737001 48.9429625,15.7904871 C49.0963732,15.6205939 49.1416991,15.5269792 49.2253777,15.3154795 C49.2323509,15.2946762 49.2393241,15.2773402 49.2428107,15.2600041 C49.2462973,15.2496025 49.2462973,15.2357337 49.2462973,15.2253321 C49.2567571,15.142119 49.2741902,15.058906 49.2776768,14.9722258 C49.2811634,14.9618242 49.2811634,14.9479553 49.2776768,14.9375537 C49.2741902,14.8508735 49.2567571,14.7641932 49.2462973,14.6809802 L49.2462973,14.6809802 Z" id="Fill-20"></path>
                <path d="M65.4551853,17.8829478 C65.4482121,17.8274725 65.4238058,17.7893332 65.413346,17.7407922 C65.4063728,17.7095874 65.3993996,17.6818497 65.3889397,17.6506448 C65.3645335,17.5258253 65.3540737,17.404473 65.2843415,17.2692518 C65.1657969,17.0265472 64.9496272,16.8289162 64.7264844,16.6867607 C64.4928817,16.5411379 64.2104665,16.4717937 63.9315379,16.4613921 C63.6700424,16.4509905 63.363221,16.5307363 63.1470513,16.6728918 C62.9204219,16.8185146 62.7181987,17.0161455 62.6031406,17.2588502 C62.5717612,17.3281944 62.5787344,17.4079402 62.5543281,17.4807516 C62.5264353,17.5362269 62.4776228,17.5778334 62.4532165,17.6333088 C62.4148638,17.7338578 62.4567031,17.8482757 62.4462433,17.9626936 C62.4462433,17.9938985 62.4218371,18.018169 62.4253237,18.0493738 C62.4288103,18.0736443 62.4392701,18.0875131 62.4427567,18.1083164 C62.4462433,18.2262015 62.404404,18.3440866 62.4357835,18.4515701 C62.5055156,18.6977419 62.6519531,18.9543154 62.8541763,19.1207414 C63.0598862,19.2906347 63.2934888,19.4397247 63.558471,19.4917328 C63.8234531,19.543741 64.1128415,19.561077 64.3743371,19.4674624 C64.632346,19.3773149 64.8798951,19.2420938 65.0542254,19.0271268 C65.1413906,18.9127089 65.2285558,18.815627 65.2843415,18.6873403 C65.3296674,18.583324 65.3680201,18.4793078 65.3959129,18.3752915 C65.3959129,18.3648899 65.4028862,18.3614227 65.4063728,18.351021 L65.4063728,18.3406194 C65.4098594,18.3267506 65.4203192,18.3163489 65.4203192,18.2990129 C65.4447254,18.1637917 65.4691317,18.0251034 65.4551853,17.8829478" id="Fill-22"></path>
                <path d="M63.4894362,15.0869904 C63.597521,15.0696544 63.6986326,15.014179 63.7892844,14.9691053 C63.810204,14.9587037 63.8276371,14.948302 63.8450701,14.9379004 C63.9148022,14.8858923 63.9915076,14.8304169 64.0542665,14.7680072 C64.1379451,14.6917286 64.2076772,14.6015811 64.2634629,14.5044993 C64.3157621,14.4074174 64.3680612,14.2999339 64.3854942,14.1889833 C64.4308201,13.9566803 64.4308201,13.8630656 64.3854942,13.6272954 C64.3576013,13.5128775 64.3087888,13.4157956 64.2285969,13.3325826 C64.2216237,13.322181 64.2076772,13.3187138 64.200704,13.3083122 C64.1623513,13.2285663 64.1309719,13.1418861 64.0647263,13.0760091 C63.9915076,13.006665 63.9113156,12.9373208 63.8241504,12.8922471 C63.7334987,12.8471733 63.6323871,12.7951652 63.5312754,12.7778292 C63.3116192,12.7327554 63.1128826,12.7223538 62.8932263,12.7847636 C62.6944897,12.8402389 62.5096996,12.9477224 62.3597754,13.0933452 C62.2203112,13.2320336 62.0982799,13.4296645 62.0564406,13.6238282 C62.0390076,13.7139756 62.0146013,13.8318607 62.0215746,13.9324098 C62.0285478,14.0329589 62.035521,14.1543112 62.0738737,14.2548602 C62.1470924,14.4559584 62.2377442,14.6397204 62.3981281,14.7853432 C62.5480522,14.9205644 62.7398156,15.0488511 62.9420388,15.0869904 C63.1791281,15.1285969 63.2488603,15.1251297 63.4894362,15.0869904" id="Fill-24"></path>
                <path d="M61.4832424,15.9350697 C61.4379165,15.9038649 61.3925906,15.8691928 61.3507513,15.8345207 C61.2810192,15.7443732 61.2112871,15.657693 61.1136621,15.5987505 C61.0439299,15.5675456 60.9741978,15.5398079 60.9044656,15.5120702 C60.7510549,15.4704637 60.5976442,15.4704637 60.4407469,15.5120702 C60.3466085,15.5363407 60.2524701,15.5710128 60.1722781,15.6264881 C60.0014344,15.7443732 59.9386754,15.806783 59.8236174,15.9766763 C59.7259924,16.1188318 59.6527737,16.3650037 59.6702067,16.5348969 C59.6632335,16.652782 59.6911263,16.7671999 59.7469121,16.867749 C59.7782915,16.9752325 59.8410504,17.0688471 59.924729,17.1485929 C59.9840013,17.1936666 60.0397871,17.2387404 60.102546,17.2838141 C60.2350371,17.3600927 60.3849612,17.4016992 60.5418585,17.4016992 C60.6499433,17.4086336 60.7580281,17.4121008 60.8661129,17.415568 C60.9846576,17.4225024 61.096229,17.3947648 61.2008272,17.3427566 C61.3123987,17.3046173 61.4030504,17.2456748 61.4832424,17.1624618 C61.566921,17.082716 61.6296799,16.9925685 61.6610594,16.8816178 C61.7168451,16.7776016 61.7447379,16.6701181 61.7377647,16.5487658 C61.7273049,16.4724872 61.7168451,16.3962086 61.7063853,16.31993 C61.664546,16.17084 61.5913272,16.0460204 61.4832424,15.9350697" id="Fill-26"></path>
                <path d="M42.8943964,29.0990224 C42.8455839,29.5532268 42.8211777,29.920751 42.702633,30.3992258 C42.6956598,30.4200291 42.6886866,30.4373651 42.6852,30.4581684 C42.4550839,30.4997749 42.2284545,30.5413814 41.9983384,30.5760535 C41.4858071,30.6592665 40.9732759,30.7390123 40.4607446,30.8187581 L39.9482134,30.9019712 C40.0214321,30.5899223 40.0772179,30.2778735 40.1434634,29.9692919 C40.262008,29.3972024 40.3840393,28.8251129 40.5025839,28.2530234 C41.3254232,27.9409746 42.1552357,27.7017372 43.0164277,27.5214423 C43.0164277,27.5457128 43.0129411,27.5734504 43.0129411,27.5977209 C42.9885348,28.096999 42.9536687,28.5997443 42.8943964,29.0990224 M44.0240571,25.9195917 C43.3302223,25.6006085 42.5317893,25.8259771 41.8274946,25.9924031 C41.1197134,26.1622964 40.4328518,26.3876649 39.7599366,26.6615745 C39.6274455,26.7170498 39.5367937,26.8280005 39.4321955,26.9250823 C39.1776732,27.0152298 38.9510437,27.1747214 38.895258,27.4590325 C38.6128429,28.7904408 38.2955616,30.1183819 38.0514991,31.4567246 C37.9538741,32.0114781 38.1665571,32.5627643 38.7453339,32.7291903 C39.1149143,32.8366738 39.5298205,32.7118543 39.8994009,32.6529117 C40.5653429,32.5488955 41.2277982,32.441412 41.8972268,32.3373957 C42.5527089,32.2333794 43.3162759,32.2229778 43.8462402,31.7722406 C44.3762045,31.3215035 44.4354768,30.6211272 44.5296152,29.9762263 C44.6237536,29.2862517 44.7004589,28.5928099 44.7388116,27.8959009 C44.7841375,27.1573854 44.8259768,26.2836487 44.0240571,25.9195917" id="Fill-28"></path>
                <path d="M34.6698388,24.7057218 C34.4188031,24.3520665 34.0771156,24.1024274 33.6482629,23.9984112 C33.3170353,23.9186654 32.982321,23.9186654 32.6476067,23.9394686 C32.4558433,23.9533375 32.2849996,24.0365505 32.1315888,24.1509684 C31.8491737,24.0816242 31.5562987,24.1024274 31.3192094,24.3173944 C31.0367942,24.5705007 30.9112763,24.9206888 30.8764103,25.2882129 C30.8450308,25.5898601 30.9356826,25.8811057 31.0612004,26.151548 C31.1902049,26.4323919 31.4098612,26.6508261 31.6608969,26.8241866 C31.9398254,27.0183503 32.2884862,27.0911617 32.6232004,27.1223665 C32.9125888,27.1501042 33.2159237,27.0980961 33.4913656,27.0218175 C33.7563478,26.9524733 34.0422496,26.8553914 34.268879,26.699367 C34.6628656,26.4393264 34.8999549,26.0614006 34.9313344,25.5863929 C34.9487674,25.2882129 34.8441692,24.9484265 34.6698388,24.7057218" id="Fill-30"></path>
                <path d="M10.0149937,27.6022283 C10.0149937,27.6056955 10.0149937,27.629966 10.0115071,27.6577036 C9.99756071,27.7166462 9.98710089,27.7790559 9.96618125,27.8414657 C9.95920804,27.8726706 9.94874821,27.9038755 9.93828839,27.9350804 C9.94526161,27.9281459 9.941775,27.9212115 9.94874821,27.9142771 C9.941775,27.9177443 9.93828839,27.9420148 9.92782857,27.9558836 C9.93131518,27.9489492 9.93131518,27.9558836 9.93828839,27.9420148 C9.93828839,27.9385476 9.93828839,27.9350804 9.93828839,27.9350804 C9.92782857,27.945482 9.92782857,27.9558836 9.92434196,27.9662852 C9.89993571,28.0113589 9.87204286,28.0668343 9.85809643,28.094572 C9.82671696,28.1431129 9.79882411,28.1916538 9.76395804,28.2401947 C9.76047143,28.243662 9.76047143,28.2471292 9.75698482,28.2505964 C9.67330625,28.3372766 9.59311429,28.427424 9.50594911,28.5106371 C9.47108304,28.5383747 9.41878393,28.5730468 9.38740446,28.6077189 C9.38043125,28.6146533 9.36997143,28.6215877 9.36299821,28.625055 C9.2584,28.7013336 9.14682857,28.7706777 9.03874375,28.8330875 C8.82257411,28.9613742 8.59943125,29.0723249 8.36931518,29.1798084 C8.30655625,29.2075461 8.24379732,29.2352838 8.17755179,29.2630214 C8.14965893,29.2734231 8.01368125,29.3323656 8.0869,29.3011607 C8.05552054,29.3150296 8.01716786,29.3323656 8.00322143,29.3358328 C7.94394911,29.3601033 7.88467679,29.3843737 7.82191786,29.405177 C7.72080625,29.4398491 7.61620804,29.4641196 7.51160982,29.48839 C7.51160982,29.3947754 7.51858304,29.2976935 7.52206964,29.2006117 C7.53252946,29.023784 7.54647589,28.8400219 7.57088214,28.6631943 C7.57436875,28.625055 7.57785536,28.5869157 7.58482857,28.5453091 C7.57088214,28.6319894 7.57088214,28.6319894 7.58482857,28.5487764 C7.60226161,28.4586289 7.61620804,28.3719487 7.63015446,28.2818013 C7.66850714,28.0911048 7.71034643,27.9038755 7.75915893,27.7166462 C7.77659196,27.6334332 7.72777946,27.5536874 7.72429286,27.4704743 C8.45648036,27.2208353 9.19564107,27.0440076 9.93828839,26.967729 C9.94874821,27.0024011 9.93480179,27.0370732 9.94874821,27.0752125 C9.88947589,26.9330569 9.93828839,27.050942 9.95920804,27.1202862 C9.98012768,27.1861632 9.99407411,27.2520402 10.0115071,27.3213843 C10.0463732,27.4843432 10.0115071,27.1930976 10.0149937,27.3629909 C10.0149937,27.4427367 10.0184804,27.5224825 10.0149937,27.6022283 M33.8320071,27.3595236 C29.9060875,28.2020554 25.8930027,28.0044245 21.967083,27.2520402 C18.4316634,26.5724672 14.9136768,25.0052887 11.2736589,25.0468952 C5.4022125,25.1162394 -0.922492857,29.6998898 0.834757143,36.1419642 C1.13111875,37.216799 2.81166339,36.7625946 2.51530179,35.6842926 C1.68548929,32.6331486 3.31722143,29.8177749 5.89731071,28.2540636 C5.87987768,28.3650143 5.84849821,28.4724978 5.83455179,28.5869157 C5.78922589,28.9613742 5.7439,29.3497017 5.77876607,29.7276274 C5.83106518,30.2615776 6.07164107,30.7677902 6.56325268,31.0312981 C6.97467232,31.2531994 7.42444464,31.2601339 7.87421696,31.1838553 C8.22287768,31.1249127 8.54364554,30.9792899 8.86441339,30.8440688 C9.15031518,30.7227164 9.43621696,30.5944297 9.71165893,30.4488069 C10.3392482,30.1124876 10.9075652,29.6652177 11.3015518,29.0653905 C11.7408643,28.3962192 11.8315161,27.6160971 11.6711321,26.8706472 C13.2087259,26.9330569 14.7532929,27.2312369 16.2943732,27.6577036 C22.1832527,29.2838247 28.2325161,30.3309218 34.2957259,29.0341856 C35.3905205,28.7984154 34.9268018,27.1272206 33.8320071,27.3595236" id="Fill-32"></path>
                <path d="M18.9570951,33.6081278 C18.9361754,33.4590378 18.9326888,33.3064806 18.9326888,33.1573907 C19.0233406,33.1088497 19.1105058,33.0811121 19.1802379,33.0083007 C19.197671,33.0325711 19.215104,33.0568416 19.2290504,33.0811121 C19.2674031,33.1400546 19.3022692,33.1989972 19.3336487,33.2579397 C19.3475951,33.2822102 19.3580549,33.3030134 19.3685147,33.3272839 C19.4033808,33.427833 19.4277871,33.528382 19.4487067,33.6289311 C19.4556799,33.7225457 19.4591665,33.8196276 19.4487067,33.9167094 C19.4487067,33.9271111 19.4452201,33.9340455 19.4452201,33.9444471 C19.4382469,33.9652504 19.4312737,33.9895208 19.4243004,34.0103241 C19.4068674,34.0449962 19.3859478,34.0762011 19.3685147,34.1074059 C19.3685147,34.1108732 19.3650281,34.1143404 19.3615415,34.1178076 C19.3545683,34.124742 19.3441085,34.1351436 19.3336487,34.1455452 L19.2464835,34.1940862 C19.2429969,34.1975534 19.2464835,34.1940862 19.2395103,34.1975534 L19.215104,34.2010206 C19.1941844,34.2044878 19.1697781,34.2044878 19.1453719,34.2044878 C19.1418853,34.1975534 19.1349121,34.1871518 19.1244522,34.1802173 C19.1105058,34.1559469 19.0965594,34.1351436 19.0826129,34.1108732 C19.0756397,34.0970043 19.0721531,34.0866027 19.0651799,34.0762011 C19.0477469,34.0207257 19.0303138,33.9687176 19.0163674,33.9132422 C18.9884746,33.8126932 18.9745281,33.7086769 18.9570951,33.6081278 M20.7631576,32.2524491 C20.5504746,31.8987938 20.2750326,31.5798105 19.9821576,31.288565 C19.6579031,30.9695817 19.0686665,30.9453113 18.7513853,31.288565 C18.6642201,31.3821796 18.6572469,31.5069991 18.6154076,31.621417 C18.5875147,31.6179498 18.5700817,31.5867449 18.5421888,31.5902122 C17.9808451,31.6179498 17.5240996,31.9438675 17.3079299,32.4570144 C17.147546,32.8349402 17.1614924,33.2371365 17.2103049,33.6358655 C17.2904969,34.3085041 17.440421,35.0331508 17.9913049,35.4977568 C18.3295058,35.7786007 18.7374388,35.9519612 19.1837246,35.9450268 C19.5637647,35.9380923 19.9647246,35.8202072 20.2750326,35.6017731 C20.9444612,35.1302326 21.2931219,34.3258401 21.1920103,33.5145132 C21.1362246,33.063776 21.0037335,32.6407765 20.7631576,32.2524491" id="Fill-34"></path>
                <path d="M16.6733674,23.6645189 C16.6977737,23.6055764 16.7221799,23.5431666 16.7465862,23.4842241 C16.6524478,23.6610517 16.6385013,23.8725515 16.6733674,24.0701824 C16.6629076,24.0043054 16.6524478,23.9384285 16.6454746,23.8725515 C16.6524478,23.8032073 16.6629076,23.7338631 16.6733674,23.6645189 M18.9710415,23.7581336 C18.9326888,23.6506501 18.8734165,23.5570355 18.7897379,23.4807569 C18.709546,23.3940766 18.6188942,23.3351341 18.5073228,23.300462 C18.4062112,23.2449866 18.2946397,23.2207162 18.1726085,23.2276506 C18.1621487,23.2276506 18.1516888,23.2380522 18.141229,23.2380522 C18.123796,23.217249 18.1063629,23.1929785 18.0854433,23.168708 C18.026171,23.1132327 17.9494656,23.0542901 17.8727603,23.0126836 C17.8204612,22.984946 17.7123763,22.9398722 17.653104,22.919069 C17.6461308,22.919069 17.6391576,22.9156018 17.6286978,22.9156018 C17.4648272,22.8705281 17.3985817,22.8774625 17.2486576,22.8982657 C17.0882737,22.919069 17.0464344,22.9294706 16.8825638,23.0161508 C16.872104,23.019618 16.8616442,23.0230853 16.8511844,23.0300197 C16.7953987,23.068159 16.7152067,23.1305687 16.6663942,23.1721752 C16.6001487,23.2311178 16.5513362,23.3073964 16.5025237,23.3767406 C16.4327915,23.4703552 16.3874656,23.5882403 16.3560862,23.6957238 C16.3281933,23.8032073 16.3142469,23.9176252 16.3107603,24.0285759 C16.3107603,24.0493791 16.3142469,24.0667152 16.3142469,24.0875184 C16.3247067,24.1811331 16.3351665,24.2782149 16.3560862,24.3718296 C16.3595728,24.3891656 16.366546,24.4065017 16.3735192,24.4238377 C16.4014121,24.5105179 16.4397647,24.5971982 16.481604,24.6804112 C16.4990371,24.7185505 16.5199567,24.7497554 16.5443629,24.7844275 C16.6803406,24.9647223 16.8198049,25.1276812 17.0290013,25.2351646 C17.1231397,25.2837056 17.2277379,25.3322465 17.3323362,25.356517 C17.3881219,25.373853 17.4473942,25.3773202 17.4996933,25.3842546 C17.5589656,25.3911891 17.6182379,25.4015907 17.6775103,25.4015907 C17.9180862,25.3981235 18.1203094,25.3357137 18.3329924,25.2316974 C18.5456754,25.1207467 18.6921129,24.9508535 18.8315772,24.7636242 C18.8978228,24.6734768 18.9361754,24.5590589 18.9815013,24.4550426 C19.0268272,24.3371575 19.0303138,24.212338 19.0442603,24.0944529 C19.0512335,23.9731005 19.0233406,23.8621499 18.9710415,23.7581336" id="Fill-36"></path>
                <path d="M30.3304076,10.7859176 C29.8283362,12.0237112 29.7446576,13.5388816 30.7592603,14.5547738 C31.3310638,15.1233961 32.084171,15.303691 32.8686576,15.1858059 C33.4927603,15.0921912 34.1412692,14.7593392 34.5596621,14.2877987 C35.1175192,13.6671683 35.4138808,12.7379563 35.0861397,11.9335638 C34.9954879,11.7151296 34.8978629,11.5383019 34.6851799,11.4169496 C34.4969031,11.3059989 34.2214612,11.2609252 34.0122647,11.3268022 C33.6043317,11.4585561 33.2208049,11.9439654 33.4055951,12.3947026 C33.4334879,12.4605795 33.450921,12.5299237 33.4718406,12.5992679 C33.4892737,12.6928825 33.4892737,12.6720793 33.468354,12.5299237 C33.4718406,12.568063 33.4718406,12.6027351 33.4718406,12.6408744 C33.4753272,12.6755465 33.4718406,12.7102186 33.4718406,12.7483579 C33.4613808,12.8419725 33.4648674,12.8211693 33.4823004,12.6790137 C33.4578942,12.699817 33.4369746,12.8593086 33.4300013,12.8905135 C33.3951353,12.9806609 33.4055951,12.9598576 33.4544076,12.8385053 C33.4404612,12.8731774 33.4265147,12.9043823 33.4055951,12.9355872 C33.3811888,12.9806609 33.2975103,13.0673411 33.2905371,13.1158821 C33.3777022,13.0118658 33.3881621,12.9945297 33.3288897,13.0638739 C33.3079701,13.0881444 33.2800772,13.1124148 33.255671,13.1401525 C33.2208049,13.1748246 33.1789656,13.2094967 33.1406129,13.2441688 C33.0708808,13.3031113 33.0883138,13.2892425 33.1929121,13.2060295 C33.1615326,13.2268327 33.1336397,13.2441688 33.1057469,13.264972 C33.0464746,13.3031113 32.9837156,13.3377834 32.9209567,13.3689883 C32.8895772,13.3863244 32.8581978,13.4001932 32.8268183,13.414062 C32.9523362,13.3655211 32.9732558,13.3551195 32.8860906,13.3897916 C32.8163585,13.414062 32.7431397,13.4383325 32.669921,13.4591357 C32.6176219,13.4730046 32.4851308,13.5284799 32.4328317,13.5111439 C32.5653228,13.4938078 32.5827558,13.4868734 32.4851308,13.497275 C32.4432915,13.5007423 32.4049388,13.5007423 32.3630996,13.5007423 C32.3212603,13.497275 32.2829076,13.497275 32.2410683,13.4938078 C32.3735594,13.5111439 32.3909924,13.5146111 32.2933674,13.4938078 C32.2375817,13.4764718 32.1783094,13.4591357 32.1225237,13.4417997 C32.0597647,13.4175292 32.0911442,13.4313981 32.2201487,13.4834062 C32.1922558,13.4695374 32.1643629,13.4556685 32.1364701,13.4383325 C32.1085772,13.4244637 32.0806844,13.4071276 32.0562781,13.3897916 C31.9830594,13.3377834 32.0004924,13.3551195 32.1155504,13.4417997 C32.0806844,13.3932588 32.0179254,13.3551195 31.9760862,13.313513 C31.9551665,13.2892425 31.9307603,13.264972 31.9098406,13.2407016 C31.8540549,13.1713574 31.8680013,13.1921607 31.9586531,13.3031113 C31.9342469,13.247636 31.8819478,13.1921607 31.8505683,13.1401525 C31.8191888,13.0881444 31.7982692,13.015333 31.7599165,12.9667921 C31.8157022,13.098546 31.8261621,13.1228165 31.791296,13.0396035 C31.7843228,13.0083986 31.7703763,12.9771937 31.7634031,12.949456 C31.7459701,12.8939807 31.7285371,12.8385053 31.7180772,12.78303 L31.7041308,12.7136858 C31.6901844,12.6270056 31.6901844,12.6478088 31.711104,12.7726284 C31.6797246,12.7344891 31.6971576,12.5749974 31.6971576,12.5229893 C31.6971576,12.4432435 31.7041308,12.3600305 31.7076174,12.2768175 C31.7180772,12.1797356 31.7145906,12.1970716 31.6971576,12.3218912 L31.7180772,12.2005389 C31.7808362,11.871154 31.8854344,11.555638 32.0109522,11.2470564 C32.0911442,11.0528927 32.0248987,10.7512455 31.9237871,10.577885 C31.8191888,10.3975901 31.6099924,10.2276969 31.4042826,10.179156 C31.1811397,10.130615 30.930104,10.1410167 30.7313674,10.2693034 C30.5291442,10.3975901 30.4210594,10.5640162 30.3304076,10.7859176" id="Fill-38"></path>
                <path d="M24.6015634,13.0850239 C24.524858,13.1266304 24.4446661,13.1821057 24.3679607,13.2271795 C24.3644741,13.2271795 24.3575009,13.2306467 24.3540143,13.2306467 C24.2773089,13.2549171 24.197117,13.2791876 24.1204116,13.2965236 C24.0890321,13.3034581 24.0576527,13.3069253 24.0297598,13.3138597 C24.0158134,13.3173269 24.0297598,13.3138597 24.0193,13.3173269 C23.9704875,13.3207941 23.9181884,13.3277285 23.8658893,13.3311957 C23.7124786,13.3415974 23.5590679,13.3415974 23.4021705,13.3346629 C23.3638179,13.3346629 23.318492,13.3311957 23.2801393,13.3277285 C23.3080321,13.2653188 23.3428982,13.1994418 23.3777643,13.137032 C23.4021705,13.0954255 23.43355,13.0572862 23.4579563,13.0156797 C23.4788759,13.0122125 23.4997955,13.0087453 23.5172286,13.0052781 C23.5834741,12.9948765 23.646233,12.9844748 23.708992,12.9740732 C23.7473446,12.970606 23.7891839,12.9636716 23.8205634,12.9602044 C24.1273848,12.9324667 24.4342063,12.9185979 24.7410277,12.9289995 L24.7445143,12.9289995 C24.7375411,12.9394011 24.7270813,12.9498027 24.7166214,12.9636716 C24.6957018,12.9914092 24.6678089,13.0226141 24.6573491,13.0330158 C24.6399161,13.0503518 24.6189964,13.0676878 24.6015634,13.0850239 M26.4947911,12.3950493 C26.3867063,11.8472303 25.9613402,11.4554356 25.4418357,11.2890096 C25.0269295,11.1572556 24.5353179,11.1780589 24.1064652,11.2057966 C23.6078804,11.2335342 23.1058089,11.3098128 22.6211705,11.4242307 C22.3492152,11.4901077 22.1748848,11.7154763 22.0772598,11.975517 C21.8645768,12.2806314 21.6867598,12.606549 21.561242,12.9602044 C21.400858,13.4109415 21.3311259,13.9275557 21.5682152,14.364424 C21.8576036,14.894907 22.4189473,15.0058577 22.9698313,15.043997 C23.3394116,15.0717347 23.7124786,15.0890707 24.0820589,15.043997 C24.9571973,14.9469152 25.8009563,14.5724566 26.2611884,13.7854001 C26.5052509,13.3624006 26.5889295,12.8735241 26.4947911,12.3950493" id="Fill-40"></path>
                <path d="M49.5203446,37.3301768 C49.5308045,37.3059063 49.5377777,37.2781686 49.5482375,37.2538982 C49.5761304,37.1914884 49.5621839,37.2192261 49.5133714,37.3371112 C49.5377777,37.3197751 49.5586973,37.2434965 49.5726437,37.2157589 C49.614483,37.1290786 49.6632955,37.0423984 49.7155946,36.9591854 C49.7434875,36.9141117 49.7713804,36.869038 49.8027598,36.8239643 C49.8236795,36.7962266 49.9247911,36.6818087 49.8306527,36.7823577 C49.7365143,36.8829068 49.8445991,36.7684889 49.8655187,36.7442184 C49.8968982,36.7026119 49.9352509,36.6644726 49.9736036,36.6228661 C50.0328759,36.5569892 50.0991214,36.4945794 50.165367,36.4356368 C50.2037196,36.4009647 50.2455589,36.3662927 50.2873982,36.3316206 C50.4059429,36.2310715 50.1723402,36.4113664 50.262992,36.3524238 C50.4268625,36.2449403 50.590733,36.1443913 50.7650634,36.0542438 C50.8626884,36.0091701 50.5837598,36.1201208 50.7301973,36.0750471 C50.7790098,36.057711 50.8278223,36.040375 50.8801214,36.0299734 C50.9219607,36.0161045 50.9672866,36.0091701 51.0091259,35.9987685 C51.1137241,35.974498 50.7999295,36.0126373 50.9568268,36.0091701 C51.0091259,36.0057029 51.0579384,36.0057029 51.1102375,36.0057029 C51.2636482,36.0091701 50.9498536,35.9675636 51.0474786,35.9987685 C51.0753714,36.0091701 51.1381304,36.0334406 51.1695098,36.0299734 C51.043992,35.974498 51.0126125,35.9606292 51.0683982,35.9953013 C51.0928045,36.0057029 51.1137241,36.0161045 51.1346437,36.0299734 C51.0928045,36.023039 50.9672866,35.9051538 51.0893179,36.0091701 C51.1660232,36.0681127 50.9951795,35.8462113 51.0649116,35.974498 C51.1172107,36.0681127 51.1695098,36.1582601 51.2148357,36.2518748 C51.3298937,36.4772433 51.4588982,36.6852759 51.6332286,36.869038 C51.9470232,37.1949556 52.5502062,37.2088245 52.8674875,36.869038 C53.191742,36.5153826 53.2056884,35.9918341 52.8674875,35.641646 C52.7489429,35.5202936 52.9685991,35.8150064 52.8570277,35.6347115 C52.8256482,35.5827034 52.7942687,35.5272281 52.7698625,35.4717527 C52.72105,35.3781381 52.6757241,35.2810562 52.6269116,35.1909088 C52.4665277,34.9031304 52.2259518,34.6396225 51.9261036,34.4870653 C51.3403536,34.1819509 50.6569786,34.2339591 50.0642554,34.4835981 C49.0078134,34.9274009 48.2372732,35.8115392 47.8398,36.869038 C47.6794161,37.2955047 48.017617,37.8363893 48.4464696,37.9334712 C48.9450545,38.0478891 49.3495009,37.7843812 49.5203446,37.3301768" id="Fill-42"></path>
                <path d="M30.8105134,36.8815199 C30.8174866,36.8225774 30.8279464,36.7601676 30.8349196,36.701225 C30.8523527,36.6630857 30.8697857,36.6249464 30.8837321,36.5868071 C30.8105134,36.701225 30.8244598,36.8607167 30.8279464,37.0098067 C30.8209732,36.9682001 30.8174866,36.9231264 30.8105134,36.8815199 M32.5119777,36.5937416 C32.4387589,36.3232993 32.2469955,36.0563242 31.9959598,35.9176358 C31.5880268,35.6888 31.1661473,35.7408081 30.7268348,35.8205539 C30.1445714,35.9245702 29.5797411,36.13607 29.05675,36.4065123 C28.6523036,36.6145448 28.4988929,37.2109048 28.746442,37.5922978 C29.0114241,38.0014285 29.5030357,38.126248 29.9388616,37.9008794 C30.0120804,37.8627401 30.0887857,37.828068 30.1689777,37.7933959 C30.4513929,37.678978 30.7512411,37.613101 31.0510893,37.5506913 C31.1103616,37.613101 31.1312813,37.7067157 31.2010134,37.744855 C31.4032366,37.8488713 31.6472991,37.9008794 31.8739286,37.8315352 C31.9401741,37.8003303 32.0099063,37.7725927 32.0796384,37.744855 C32.2121295,37.6651092 32.3167277,37.5610929 32.393433,37.4328062 C32.456192,37.3461259 32.4945446,37.2351752 32.5189509,37.1346262 C32.5607902,36.9577985 32.5607902,36.7705692 32.5119777,36.5937416" id="Fill-44"></path>
                <path d="M10.4051451,37.0254091 C11.5278326,37.0254091 11.5278326,35.2918046 10.4051451,35.2918046 C9.28245759,35.2918046 9.28245759,37.0254091 10.4051451,37.0254091" id="Fill-46"></path>
                <path d="M0.660078125,36.1551396 C0.674024554,36.3146312 0.691457589,36.4810573 0.740270089,36.6336145 C0.785595982,36.7861717 0.851841518,36.9352617 0.925060268,37.0774172 C1.0401183,37.2923842 1.20050223,37.4969495 1.3818058,37.6599084 C1.81065848,38.0413014 2.35108259,38.284006 2.93683259,38.2805388 C3.15997545,38.2805388 3.39357812,38.1834569 3.55396205,38.0274325 C3.70388616,37.8783425 3.8189442,37.6287035 3.80848437,37.4137365 C3.79802455,37.1883679 3.7248058,36.9560649 3.55396205,36.8035077 C3.3831183,36.6474833 3.17392187,36.5469342 2.93683259,36.5469342 C2.87756027,36.5469342 2.81828795,36.543467 2.75901562,36.5365326 C2.83920759,36.5469342 2.91242634,36.5573359 2.9891317,36.5677375 C2.87407366,36.5504015 2.76250223,36.5191966 2.6509308,36.4775901 C2.72066295,36.5053277 2.79039509,36.5330654 2.86012723,36.5642703 C2.73809598,36.5122622 2.62652455,36.4463852 2.52192634,36.3666394 C2.58119866,36.4117131 2.63698437,36.4567868 2.6962567,36.5018605 C2.5986317,36.4255819 2.51146652,36.3354345 2.43127455,36.2383526 C2.47660045,36.2972952 2.52541295,36.3562377 2.56725223,36.4151803 C2.49403348,36.3146312 2.42778795,36.210615 2.37897545,36.0961971 C2.41035491,36.162074 2.43824777,36.2314182 2.46962723,36.3007624 C2.42430134,36.2002133 2.39640848,36.0927299 2.37897545,35.9852464 C2.38943527,36.061525 2.39989509,36.1378036 2.41035491,36.2140822 C2.4068683,36.1932789 2.4033817,36.1759429 2.4033817,36.1551396 C2.4068683,36.0372545 2.38246205,35.9263038 2.33016295,35.8222875 C2.29181027,35.7148041 2.23253795,35.6211894 2.14885937,35.5414436 C1.99544866,35.3923536 1.74789955,35.2779357 1.53172991,35.2883374 C1.30510045,35.298739 1.07149777,35.3715504 0.914600446,35.5414436 C0.768162946,35.7009352 0.635671875,35.929771 0.660078125,36.1551396" id="Fill-48"></path>
                <path d="M29.6902665,31.6113621 C29.5856683,31.4310673 29.3764719,31.261174 29.1707621,31.2126331 C28.9476192,31.1640922 28.6965835,31.1744938 28.4978469,31.3027805 C28.3827888,31.3755919 28.3235165,31.5073459 28.2468112,31.6217638 C28.2468112,31.6148293 28.2433246,31.6044277 28.2398379,31.5974933 C28.2398379,31.5454852 28.2363513,31.4969442 28.2398379,31.4484033 C28.2433246,31.4345345 28.2433246,31.4241328 28.2468112,31.4137312 C28.3095701,31.195297 28.274704,30.9421908 28.159646,30.7445599 C28.0550478,30.564265 27.8458513,30.3943717 27.6401415,30.3458308 C27.4169987,30.2972899 27.1659629,30.3076915 26.9672263,30.4359783 C26.7754629,30.5573306 26.6290254,30.730691 26.5662665,30.9525924 C26.3779897,31.6390998 26.5314004,32.4088202 27.0299853,32.9323688 C27.1136638,33.0155818 27.2147754,33.0883932 27.3054272,33.1577374 C27.3507531,33.1889423 27.3891058,33.2132127 27.4379183,33.2374832 C27.6750076,33.3484339 27.8493379,33.3935076 28.1073469,33.4212453 C28.4316013,33.4524501 28.7593424,33.3623027 29.0452442,33.2132127 C29.1498424,33.1612046 29.2404942,33.0814588 29.331146,33.0086474 C29.3694987,32.9774425 29.4043647,32.9462376 29.4357442,32.9080983 C29.5089629,32.8214181 29.5961281,32.7243362 29.6449406,32.62032 C29.6972397,32.5128365 29.7530254,32.3984186 29.7774317,32.2805335 C29.8297308,32.0516977 29.8122978,31.8159275 29.6902665,31.6113621" id="Fill-50"></path>
                <path d="M29.172854,32.8352869 C30.2955415,32.8352869 30.2955415,31.1016824 29.172854,31.1016824 C28.0501665,31.1016824 28.0501665,32.8352869 29.172854,32.8352869" id="Fill-52"></path>
            </g>
        </g>
        <g id="Group" transform="translate(67.000000, 153.035645)">
            <mask id="mask-8" fill="white">
                <use xlink:href="#path-7"></use>
            </mask>
            <g id="Path-5"></g>
            <path d="M-0.143878354,7.4347187 C-0.0520289335,5.99167632 0.233769402,4.56883139 0.705304532,3.20706788 L-0.430477579,3.88208937 C0.834928151,4.29895084 2.00552755,4.97586994 3.01083607,5.87208778 C3.37630778,6.23389094 3.953106,6.23389094 4.31857771,5.87208778 C5.40676574,4.69576795 6.55553403,3.58080604 7.75989136,2.53204639 L6.3141575,2.35452451 C6.74954573,3.29026315 7.03627032,4.29222053 7.16334038,5.3219891 C7.3062462,5.82312834 7.81040715,6.1149801 8.2991225,5.97947757 L13.4600315,4.37958897 L12.2902821,3.4569135 C12.3773233,4.69956669 12.0503879,6.42218646 13.4600315,7.00954282 C14.8696751,7.59689919 16.7803366,6.35205436 18.1411522,5.94441151 L17.2452642,4.34452292 C16.3684829,5.48197796 16.7124019,8.19959694 16.8843615,9.58470597 C17.2622479,12.6398357 21.0835709,11.8048253 23.1831755,11.7872923 L22.2872876,10.5797052 C21.7812106,11.877695 21.2071654,13.1463274 20.5676922,14.3799885 C20.099476,15.105 19.7934471,15.928509 19.6718043,16.7907795 C19.6718043,18.3358774 22.219353,19.6859204 23.2171429,20.5384638 L23.406086,19.0284319 C22.3743288,19.7385195 19.6548206,20.8036508 19.5168284,22.3158742 C19.3788362,23.8280977 21.7013514,25.0707509 21.5293919,26.4799678 L21.9773358,25.6449575 C20.6690264,26.131543 19.2897443,26.3835603 17.899135,26.3901111 C17.4973391,26.5080162 17.2178577,26.8838068 17.2112969,27.3149782 C17.2112969,28.0425988 17.3153218,28.7526863 17.3153218,29.5066064 C17.2792338,29.9258424 17.2792338,30.3475566 17.3153218,30.7667926 C17.4872813,31.4067481 17.3153218,31.5141378 16.661451,31.1218364 C15.6806447,31.1218364 14.9397327,30.1991609 13.8570245,30.3416167 C12.1353062,30.5717377 11.5217716,34.2142238 10.9995241,35.491943 L12.1353062,34.8344546 C11.267815,34.5237904 10.4673685,34.0413874 9.77882368,33.4142795 C9.45997381,33.0325318 9.08189149,32.7081358 8.66002522,32.4543463 C7.66223533,32.0291705 7.02534817,32.6494013 6.32477228,33.3068897 C5.71264068,33.9153438 5.137632,34.5623843 4.60305398,35.2442891 C4.60305398,35.2442891 3.19341039,36.859519 3.81119094,36.859519 C3.22689229,35.1649321 2.75033729,33.4327875 2.38456369,31.6741267 C2.24271042,31.1656204 1.72898758,30.8715316 1.23604384,31.0166382 C1.16201659,31.0385903 1.09075828,31.0694868 1.02374811,31.1086866 C-0.602936842,32.1652531 -2.29905269,33.1033565 -4.05224259,33.9161624 L-2.69142701,34.9988267 C-2.31354063,33.4361958 -0.971831669,30.7361098 -1.86559666,29.226078 C-2.03515924,28.9308689 -2.34200173,28.7487897 -2.67444336,28.7461114 C-4.67082459,29.0620873 -6.62358076,29.6227195 -8.49134613,30.4161321 L-7.33858036,31.5886532 L-5.28780369,25.2022486 C-5.15782352,24.6924851 -5.44938306,24.1696606 -5.94167451,24.0297275 C-6.83267285,23.8942611 -7.74134611,23.9547574 -8.60810878,24.2072494 C-9.22904846,24.467931 -9.88473149,24.6297644 -10.5527376,24.687216 C-10.977329,24.9063788 -11.0346489,24.8296718 -10.7246971,24.4921611 C-10.5912023,24.2487038 -10.416474,24.0319507 -10.2088185,23.8522056 C-8.91806053,22.4320305 -7.26639982,21.6320862 -6.37263483,19.8393344 C-6.13318166,19.3616964 -6.31247888,18.7740872 -6.77387374,18.5243574 C-6.97350716,18.4189829 -7.20248151,18.3887571 -7.42137569,18.4388839 C-8.703732,18.6912964 -10.0287824,18.5714239 -11.2490676,18.0926067 C-12.2659641,17.524975 -10.8541975,17.0099423 -10.1493757,16.7250307 C-8.82465041,16.174932 -7.44685118,15.8900203 -6.13910953,15.2873226 C-5.92683527,15.157709 -5.77313388,14.9463473 -5.71182091,14.6997385 C-5.65050794,14.4531297 -5.68660633,14.1914769 -5.81217412,13.9723456 C-5.892391,13.8336233 -6.00473386,13.7176465 -6.13910953,13.6348349 C-8.01702096,12.559698 -9.68325589,11.1309623 -11.0516325,9.42252548 L-11.4486255,11.0224141 C-9.00510178,10.6651787 -6.56582393,10.4350577 -4.08408695,10.2926019 C-3.83746659,10.2891381 -3.60228273,10.1846654 -3.43028488,10.0021717 C-3.25828704,9.819678 -3.16356793,9.57411606 -3.16696943,9.31951896 C-3.16878106,9.15602109 -3.21195975,8.99585191 -3.29222391,8.85489378 C-4.20361721,7.475985 -5.03104516,6.03988734 -5.76971498,4.55491923 L-6.56157802,5.99481896 C-4.71858721,6.22856799 -2.97083074,6.97133315 -1.50257097,8.14480624 C-0.538748397,8.8724268 0.391106864,7.21993913 -0.555732054,6.49231857 C-2.31454112,5.15193999 -4.38765554,4.31977651 -6.56157802,4.08152754 C-7.31735079,4.08152754 -7.6442862,4.95817882 -7.37042472,5.51923564 C-6.63127216,7.00322307 -5.80386011,8.43856117 -4.89293365,9.81701856 L-4.08408695,8.37931046 C-6.7165539,8.52176629 -9.33203719,8.80448633 -11.9390286,9.17925475 C-12.6948014,9.28445291 -12.7287687,10.2969851 -12.3508823,10.7769517 C-10.8837833,12.6068547 -9.09810685,14.1373538 -7.08594845,15.2895142 L-7.08594845,13.6370265 C-9.03057726,14.542169 -13.4548201,14.9520035 -13.9685757,17.7748206 C-14.4823314,20.5976377 -8.54866597,20.3521754 -6.98192355,20.1373958 L-8.03278737,18.7347537 C-9.11549555,20.902274 -12.764859,22.0747951 -12.9707859,24.739815 C-13.1830816,27.9549336 -7.80775391,25.5551007 -6.4830286,25.7326226 L-7.13689943,24.5601015 L-9.16856948,31.0451294 C-9.29796376,31.5575463 -9.0019334,32.0815823 -8.50620683,32.2176505 C-8.35098202,32.2593249 -8.18801218,32.2593249 -8.03278737,32.2176505 C-6.32954676,31.4636271 -4.54375131,30.926382 -2.71477954,30.6177619 L-3.50664259,30.1377953 C-3.56350178,30.8743231 -3.70241078,31.60163 -3.92061924,32.3053156 L-4.45560446,34.4706443 C-4.54583314,34.8425658 -4.41250924,35.2341973 -4.11672958,35.4660703 C-3.82094991,35.6979434 -3.41972196,35.7253676 -3.09691184,35.5357756 C-1.34334954,34.724586 0.352825337,33.7871823 1.97907886,32.7304915 L0.620386244,32.2921659 C0.964305313,33.5370107 1.84108664,40.4625558 4.3886353,38.6698039 C5.71336061,37.7449368 6.22923921,35.5248175 7.72592405,34.7621308 C8.39677853,34.4246201 8.26090927,34.602142 8.77678787,35.0448509 C9.03599894,35.284717 9.31202751,35.5044784 9.60261823,35.7023394 C10.2678492,36.1597233 10.9916909,36.5189666 11.7531739,36.7696623 C12.240832,36.896694 12.7396006,36.6079638 12.888956,36.1121738 L13.8357949,33.7495986 L14.230665,32.6537845 C14.230665,32.2636747 14.3346899,32.1935426 14.625535,32.4346217 C15.6424315,32.3272319 16.708156,33.4471539 17.8269545,33.217033 C19.8395179,32.8071985 19.3236393,28.7220035 19.1856471,27.3368945 L18.4914401,28.2705281 C19.7991817,28.0513653 23.3742417,28.2705281 23.5164798,26.3177874 C23.5164798,25.3578542 22.6672969,24.3102559 22.2087382,23.5453777 L21.5187771,22.3925812 L21.9837047,22.3925812 C22.7531271,21.7024009 23.6173535,21.133709 24.548237,20.7050275 C24.9830262,20.4422137 25.1293515,19.8654448 24.8751724,19.4163501 C24.833299,19.3410542 24.7811004,19.2724036 24.7201966,19.2125287 L22.5972393,17.4351182 C21.6504004,16.6198325 21.6164331,17.0450084 22.0813607,15.9623441 C22.7861825,14.3449224 23.6459802,12.8173576 24.2149327,11.140762 C24.2743758,10.8890584 24.2343648,10.6232816 24.1037281,10.4020744 C23.9730914,10.1808673 23.7625657,10.0224101 23.5186028,9.96166602 C23.4533467,9.94437961 23.3863961,9.93482098 23.3190448,9.93317486 C22.2872876,9.93317486 21.2555304,10.0931637 20.2407568,10.0405646 C19.2259833,9.98796556 18.8799413,9.86304275 18.8459739,8.70805469 L18.8459739,6.10440037 C18.8459739,5.76688963 19.0879911,5.24966537 18.7079817,5.74716498 C19.2429669,5.05461046 18.7079817,3.84702332 17.8142167,4.14946801 C16.9204518,4.4519127 16.2474743,4.84202253 15.421644,5.03707744 C14.1839599,5.3219891 14.3729031,4.59875179 14.2858618,3.50293769 C14.2858677,3.2483668 14.1874746,3.00431721 14.0125093,2.82492664 C13.837544,2.64553606 13.6004721,2.54563615 13.3538836,2.54738779 C13.2735725,2.54752604 13.1936285,2.55857915 13.1161124,2.58026221 L7.95520343,4.17795918 L9.09098554,4.85298067 C8.92266481,3.66526764 8.57825117,2.51137924 8.06984312,1.43184903 C7.93930449,1.21086999 7.72903107,1.05252253 7.48533692,0.991683678 C7.24164277,0.930844822 6.98451704,0.972504914 6.7705933,1.10748806 C6.71210319,1.14491405 6.65734679,1.18822741 6.60712559,1.23679412 C5.3994596,2.28015504 4.25115202,3.39462601 3.1679349,4.57464388 L4.46081585,4.57464388 C3.17686855,3.44262391 1.67676682,2.60185627 0.0578025811,2.10687052 C-0.440527749,1.96922752 -0.953676536,2.26971047 -1.09496319,2.78189201 C-1.59946852,4.28370303 -1.90649831,5.848607 -2.00783479,7.4347187 C-2.00146592,8.6620305 -0.279747616,8.6620305 -0.143878354,7.4347187 Z" id="Path" fill="#421E13" fill-rule="nonzero" mask="url(#mask-8)"></path>
        </g>
        <g id="Group-2" transform="translate(61.363700, 127.443353) rotate(-22.000000) translate(-61.363700, -127.443353) translate(47.863700, 116.443353)" fill="#AC2117" fill-rule="nonzero">
            <path d="M24.8244625,13.3469629 L23.6844185,6.46341614 C23.5523391,5.67565299 22.9350365,4.97825239 22.1353372,5.13687106 C21.4274347,5.27651405 20.7198655,6.03245297 20.8605895,6.87921502 L22.004293,13.7643947 C22.1337251,14.5533741 22.7500155,15.2479256 23.5507271,15.092156 C24.2612768,14.9512968 24.9651864,14.193725 24.8244625,13.3469629 L24.8244625,13.3469629 Z" id="Path" transform="translate(22.842564, 10.114177) rotate(22.000000) translate(-22.842564, -10.114177) "></path>
            <path d="M3.58800589,5.84504255 C4.56614899,6.3233074 5.5269743,6.82320787 6.47048182,7.34474394 C6.70681407,7.47495252 6.94158213,7.60897029 7.17635018,7.74298806 L7.52693807,7.94782388 C7.57271403,7.97183582 7.61700177,7.99868816 7.65952705,8.02821464 C8.12307047,8.3071097 8.58400691,8.59235338 9.04233634,8.8839457 C10.8689603,10.0533065 12.6274429,11.3279111 14.3082809,12.700871 C14.9676753,13.210928 15.8979266,13.1095142 16.3862101,12.4743401 C16.856105,11.8339312 16.7194758,10.919483 16.0763414,10.4004139 C12.5720895,7.55028276 8.75136569,5.11626899 4.69662559,3.15090145 C3.93418983,2.8253331 3.07346695,3.15692104 2.76220178,3.89612574 C2.4773729,4.64025334 2.84100034,5.49842251 3.58800589,5.84504255 L3.58800589,5.84504255 Z" id="Path" transform="translate(9.665354, 8.025843) rotate(22.000000) translate(-9.665354, -8.025843) "></path>
            <path d="M2.43545992,19.8416991 L7.22142038,19.3286797 C8.1011711,19.2340978 8.71990791,18.3806691 8.60340771,17.4224933 C8.48690751,16.4643176 7.67928657,15.7642364 6.79953584,15.8588183 L2.01357539,16.3718377 C1.13382466,16.4664196 0.515087858,17.3198483 0.631588054,18.278024 C0.748088251,19.2361998 1.55570919,19.936281 2.43545992,19.8416991 L2.43545992,19.8416991 Z" id="Path" transform="translate(4.617498, 17.850259) rotate(22.000000) translate(-4.617498, -17.850259) "></path>
        </g>
    </g>
</svg>