<?xml version="1.0" encoding="UTF-8"?>
<svg width="225px" height="225px" viewBox="0 0 225 225" version="1.1" xmlns="http://www.w3.org/2000/svg" xmlns:xlink="http://www.w3.org/1999/xlink">
    <title>Numbers__2</title>
    <g id="Numbers__2" stroke="none" stroke-width="1" fill="none" fill-rule="evenodd">
        <path d="M174.096,192.488 L174.096,157.096 L109.36,157.096 L136.24,138.28 C159.536,121.48 172.528,108.488 172.528,83.4 L172.528,82.952 C172.528,53.384 149.008,33 114.736,33 C84.496,33 67.696,44.872 50.896,66.6 L80.24,91.016 C92.56,76.904 100.848,70.632 111.376,70.632 C122.128,70.632 129.072,76.68 129.072,86.76 C129.072,96.168 123.248,103.56 108.688,114.984 L50,159.784 L50,192.488 L174.096,192.488 Z" id="2" fill="#AC2117" fill-rule="nonzero"></path>
        <g id="rewards---icons_App" transform="translate(128.500000, 9.500000)">
            <path d="M46.6382596,51.391356 L45.3463065,54.1495713 L45.7737449,55.2780155 L47,56.5528839 L45.0910642,58.1180022 L46.6382596,60.662695 C44.5307842,61.5302352 43.4770465,61.9640053 43.4770465,61.9640053 C43.4770465,61.9640053 43.4770465,62.6764602 43.4770465,64.10137 L40.6663298,63.601113 L39.2603289,66.2667051 L36.7692673,64.9244327 L33.8640997,67.5 L32.6914953,64.10137 C30.6112201,65.189922 29.5710825,65.7341981 29.5710825,65.7341981 C29.5710825,65.7341981 29.6594294,64.6249103 29.8361232,62.4063347 L26.6578833,63.0537801 L27.6696963,59.445678 C25.3986989,59.8767479 24.2632002,60.0922828 24.2632002,60.0922828 C24.2632002,60.0922828 23.6561766,59.445678 23.6561766,59.445678 C23.6561766,59.445678 24.6567455,58.3149666 26.6578833,56.0535439 L23,55.8357418 L23,54.7462727 L27.4081895,53.0136378 L24.2632002,50.8123845 L25.7463038,49.9975753 L28.7189364,49.9975753 L27.6696963,47.4837569 L28.4723682,47.4837569 L30.8713883,48.7019203 L31.4538354,45.8788992 L33.8640997,47.0767344 L36.2971736,45.5 L36.7692673,47.0767344 L40.3431424,46.4123234 L40.6663298,47.8860412 L41.8519453,47.8860412 L43.0526601,47.0767344 L43.4770465,49.7013645 L44.2993153,51.07283 L46.6382596,50.8123845 L46.6382596,51.391356 Z" id="Path-7" fill="#AC2117"></path>
            <path d="M1.55896719,39.2586356 L16.3602724,95.2663069 C17.3080753,98.8291526 17.7992882,103.398651 19.8680087,106.559275 C21.9367291,109.719899 25.323285,109.695722 28.6384312,109.339657 C37.3648449,108.490826 46.0170284,106.984019 54.5234039,104.831702 C60.2599916,103.352494 69.8353974,101.732619 68.3444473,93.644234 C67.4788738,89.0483608 65.9424811,84.5052379 64.836711,79.9994799 C63.730941,75.4937219 62.4563842,70.950599 61.3289748,66.4074762 C58.9212381,57.0604093 56.5827473,47.6957591 54.3135023,38.3135254 C53.4994042,33.7788185 52.4044429,29.300798 51.0351431,24.9061478 C50.0156065,22.1287063 47.3361242,20.347568 44.4221622,20.5102863 C40.0387784,20.5604899 35.6781369,21.1584253 31.4385612,22.2906102 C26.3400291,23.3417225 21.3043826,24.68609 16.3559446,26.3172193 C11.6905039,27.8315936 -3.25145701,31.2867408 1.37936071,39.3751259 C1.66071227,39.7857366 2.20524998,39.9082425 2.63099306,39.6567084 C3.05673614,39.4051743 3.22110674,38.863837 3.00880265,38.4124322 C0.500803703,34.0165707 7.00775178,31.6779724 9.90309482,30.6097781 C13.5284048,29.2558528 17.1703049,28.032338 20.8287951,26.9392337 C28.0589999,24.5042578 35.5574511,22.9849925 43.1540972,22.4158923 C44.7323028,22.2205647 46.3268606,22.610832 47.6442593,23.5148576 C49.2931766,24.8511995 49.5571765,27.4887164 49.994291,29.4294893 C50.9420939,33.4209315 51.8898968,37.3925924 52.8528472,41.3818367 C54.7830759,49.3412766 56.7710095,57.2867962 58.816648,65.2183956 C60.8622865,73.1499951 62.9432692,81.0771986 65.0595962,89 C66.0766449,92.8112182 68.0068736,97.229059 63.7980229,99.6885436 C60.5338032,101.27675 57.0745547,102.412958 53.5128469,103.066763 C45.8292766,104.975184 38.0290527,106.361485 30.1640043,107.216456 C28.5911338,107.481124 26.9971845,107.594453 25.4033506,107.554938 C22.999868,107.481278 20.9512108,105.762321 20.4263035,103.378869 C19.1820417,99.8160235 18.4095175,95.8421647 17.4292556,92.1188701 L3.40047461,38.6871736 C3.17709479,38.3184509 2.73886445,38.1465406 2.32946429,38.2670345 C1.92006412,38.3875284 1.64021327,38.7707831 1.64552453,39.2036873 L1.55896719,39.2586356 Z" id="Path" fill="#421E13" fill-rule="nonzero"></path>
            <g id="Group" transform="translate(56.500000, 19.500000) scale(-1, 1) rotate(13.000000) translate(-56.500000, -19.500000) translate(46.500000, 2.500000)" fill="#421E13" fill-rule="nonzero">
                <path d="M13.1354308,1.3065137 L18.361293,9.58470362 C18.9564937,10.5449083 20.4683035,9.66846615 19.8572307,8.69191759 L14.6254166,0.411684681 C14.0143438,-0.548519974 12.5501501,0.346309045 13.1354308,1.3065137 Z" id="Path"></path>
                <path d="M2.4536364,15.0796789 C4.15320205,15.6683039 5.81854827,16.2776734 7.49986356,16.9077874 L9.95910084,17.854255 L11.1795943,18.3365644 L11.7544809,18.56994 L12.1240509,18.7151514 C12.2335531,18.7151514 12.1240509,18.7151514 12.1240509,18.611429 L12.1240509,17.854255 C12.1201527,18.363282 12.4147001,18.8130855 12.8448077,18.954923 C13.2749153,19.0967605 13.7355178,18.8959845 13.9719008,18.4636245 C14.2000304,16.972614 12.9932248,16.635516 12.0122674,16.2361845 L8.99867515,15.1004234 C7.00254099,14.3225049 5.00412553,13.609413 3.00799137,13 C2.56016496,12.9956125 2.16444169,13.3304132 2.03965738,13.8193 C1.91487307,14.3081868 2.09150967,14.8317359 2.47188676,15.1004234 L2.4536364,15.0796789 Z" id="Path"></path>
                <path d="M1.41714067,33.8561102 C4.84426512,31.8504581 8.21546391,29.8115516 11.5710035,27.7227636 C12.6045097,27.0659905 11.5710035,25.5009583 10.5732897,26.1577315 C7.23788337,28.2361274 3.84655135,30.2833475 0.437323111,32.2889996 C-0.614079298,32.9125184 0.437323111,34.479629 1.41714067,33.8561102 Z" id="Path"></path>
            </g>
            <path d="M28.3411374,103.426038 C37.2552734,102.682536 46.103139,101.300557 54.8150914,99.2909811 C56.0149884,99.0110032 55.5032356,97.1954547 54.3207599,97.5443502 C45.7937847,99.5193848 37.1328321,100.878351 28.4064676,101.61049 C27.2065705,101.71602 27.1891491,103.583256 28.4064676,103.497109 L28.3411374,103.426038 Z" id="Path" fill="#421E13" fill-rule="nonzero"></path>
            <path d="M57.7124897,99.4390296 C60.3550798,98.8640827 63.4047715,97.7370045 63.5,94.7230967 C63.4845245,93.280884 63.2511733,91.8484216 62.8072129,90.4703155 C62.4024919,88.971347 61.9763445,87.47466 61.5525778,85.9756916 C61.3068202,85.5929435 60.8246889,85.4144941 60.3742759,85.5395714 C59.9238629,85.6646486 59.6159772,86.0624813 59.6218206,86.5118523 C60.4274869,88.9359548 61.07236,91.4064654 61.5525778,93.9085887 C61.9382531,96.404588 59.2766174,97.0890485 57.2506317,97.606957 C55.9364788,97.8853042 56.495946,99.8086382 57.7886725,99.4572818 L57.7124897,99.4390296 Z" id="Path" fill="#421E13" fill-rule="nonzero"></path>
            <path d="M31.4868319,76.5 C37.191938,74.9064879 42.9596134,73.5791071 48.789858,72.5178576 C50.0359653,72.3188733 49.5045039,70.2479627 48.2583966,70.5255581 C42.4485058,71.5081965 36.6725382,72.7954529 30.9734628,74.3897839 C30.5957377,74.6402374 30.4173299,75.1329177 30.5367482,75.5957887 C30.6561665,76.0586597 31.0442972,76.3788754 31.4868319,76.3796268 L31.4868319,76.5 Z" id="Path" fill="#421E13" fill-rule="nonzero"></path>
            <path d="M30.7091569,79.5 L52.8084159,76.3469016 C54.0219591,76.1824901 53.5043862,74.2838744 52.2908431,74.5203568 L30.1915841,77.6058888 C28.9780409,77.7703003 29.4956138,79.668916 30.7091569,79.4324336 L30.7091569,79.5 Z" id="Path" fill="#421E13" fill-rule="nonzero"></path>
            <path d="M31.5268441,48.5865452 C31.5833668,47.67515 31.7592427,46.7765111 32.0494182,45.9164499 L31.3504753,46.3427793 C32.1291866,46.6060602 32.8495554,47.0335881 33.4682068,47.5996204 C33.6931125,47.8281277 34.0480652,47.8281277 34.2729709,47.5996204 C34.9426251,46.8566816 35.6495594,46.1524951 36.3907024,45.4901206 L35.50102,45.3780015 C35.7689512,45.9689943 35.9453971,46.6018095 36.0235941,47.2521897 C36.1115361,47.5686987 36.421789,47.7530261 36.7225369,47.6674455 L39.8984809,46.6569896 L39.1786351,46.0742472 C39.232199,46.8590808 39.0310079,47.9470512 39.8984809,48.3180131 C40.7659539,48.688975 41.9417456,47.9027572 42.7791706,47.6452986 L42.2278549,46.6348426 C41.6882972,47.3532353 41.8999397,49.0696262 42.0057609,49.9444319 C42.2383064,51.8739875 44.5898898,51.3466126 45.8819542,51.3355391 L45.3306385,50.5728524 C45.0192065,51.3926355 44.6659479,52.193877 44.272426,52.9730314 C43.9842929,53.4309334 43.7959674,53.9510443 43.7211103,54.4956362 C43.7211103,55.4714875 45.2888326,56.3241463 45.9028571,56.8625947 L46.0191299,55.9088904 C45.3842024,56.3573667 43.7106589,57.0300812 43.6257406,57.9851698 C43.5408223,58.9402583 44.9700624,59.7250919 44.8642411,60.6151236 L45.139899,60.0877486 C44.3347855,60.3950658 43.4859965,60.5542346 42.6302369,60.558372 C42.3829779,60.6328383 42.2109894,60.8701798 42.2069519,61.1424986 C42.2069519,61.6020484 42.2709673,62.0505247 42.2709673,62.5266848 C42.2487593,62.7914654 42.2487593,63.0578112 42.2709673,63.3225919 C42.3767885,63.7267743 42.2709673,63.7945994 41.8685852,63.5468301 C41.2650121,63.5468301 40.8090663,62.9640877 40.1427843,63.0540598 C39.0832653,63.1993993 38.7057056,65.4999168 38.3843225,66.3068974 L39.0832653,65.8916415 C38.5494246,65.6954326 38.0568422,65.390757 37.6331223,64.9946889 C37.436907,64.753585 37.2042409,64.5487033 36.9446309,64.3884153 C36.3306064,64.1198832 35.9386758,64.5116079 35.5075522,64.9268637 C35.1308558,65.3111505 34.7770043,65.7198077 34.4480332,66.1504844 C34.4480332,66.1504844 33.5805602,67.1706296 33.9607329,67.1706296 C33.6011645,66.1003642 33.3078999,65.0063782 33.0828084,63.895645 C32.9955141,63.5744831 32.679377,63.3887428 32.376027,63.4803891 C32.3304717,63.4942536 32.2866205,63.5137672 32.2453835,63.5385249 C31.2443466,64.2058301 30.200583,64.7983164 29.1216969,65.3116675 L29.9591218,65.9954555 C30.1916673,65.0085307 31.0173344,63.3032133 30.4673251,62.349509 C30.3629789,62.1630611 30.1741528,62.0480637 29.9695733,62.0463722 C28.741031,62.2459359 27.5393349,62.6000194 26.3899408,63.1011221 L27.0993352,63.8416617 L28.3613516,59.808143 C28.4413394,59.4861872 28.2619181,59.1559822 27.9589695,59.0676034 C27.4106629,58.9820456 26.8514793,59.0202538 26.3180869,59.1797225 C25.9359702,59.3443635 25.5324729,59.4465741 25.1213923,59.4828593 C24.8601052,59.6212779 24.8248315,59.5728314 25.015571,59.3596667 C25.0977217,59.2059042 25.2052468,59.0690075 25.3330348,58.9554843 C26.1273474,58.0585316 27.143754,57.5533036 27.6937632,56.4210393 C27.841119,56.1193732 27.7307822,55.7482516 27.4468469,55.5905276 C27.3239956,55.5239752 27.1830883,55.5048852 27.0483842,55.5365443 C26.2592418,55.6959627 25.4438262,55.6202538 24.6928815,55.3178429 C24.067099,54.9593386 24.9358785,54.6340549 25.3696149,54.4541107 C26.1848305,54.1066799 27.032707,53.9267357 27.8374711,53.5460845 C27.9681014,53.4642233 28.0626868,53.3307317 28.1004179,53.1749787 C28.138149,53.0192258 28.1159346,52.8539714 28.0386621,52.7155727 C27.9892978,52.6279587 27.9201638,52.5547102 27.8374711,52.5024081 C26.6818333,51.8233742 25.6564579,50.9210148 24.81438,49.8420021 L24.5700766,50.8524581 C26.0737835,50.6268357 27.5748776,50.4814962 29.1021003,50.3915241 C29.2538667,50.3893364 29.3985952,50.3233536 29.5044401,50.2080945 C29.6102849,50.0928353 29.6685736,49.9377435 29.6664804,49.7769454 C29.6653655,49.6736836 29.638794,49.5725241 29.5894007,49.4834979 C29.0285433,48.6126081 28.5193568,47.7055991 28.0647908,46.7677245 L27.5774904,47.6771348 C28.7116386,47.8247658 29.7871811,48.2938806 30.6907256,49.0350215 C31.2838471,49.4945714 31.8560658,48.4508949 31.2733957,47.9913451 C30.1910516,47.1447902 28.9152889,46.6192133 27.5774904,46.4687403 C27.1123995,46.4687403 26.9112085,47.0224147 27.0797386,47.3767664 C27.5346018,48.3140216 28.0437784,49.220551 28.6043485,50.0911556 L29.1021003,49.1831295 C27.4821207,49.2731016 25.8725925,49.4516616 24.2682901,49.6883574 C23.8031991,49.7547984 23.7822962,50.3942924 24.0148416,50.6974292 C24.9176718,51.8531574 26.0165496,52.8197884 27.254801,53.5474687 L27.254801,52.5037923 C26.0581063,53.0754612 23.3354953,53.334304 23.019338,55.1171359 C22.7031807,56.8999677 26.3546671,56.7449389 27.3188163,56.6092886 L26.6721308,55.7234094 C26.0058489,57.0923696 23.7600868,57.8329093 23.6333625,59.5160797 C23.502719,61.5466809 26.810613,60.030997 27.6258286,60.1431161 L27.2234465,59.4025765 L25.973188,63.4983835 C25.8935608,63.8220153 26.0757333,64.1529854 26.3807958,64.2389232 C26.4763188,64.2652438 26.5766079,64.2652438 26.6721308,64.2389232 C27.7202789,63.7626979 28.81923,63.4233852 29.9447511,63.2284672 L29.4574507,62.9253304 C29.4224604,63.3905059 29.336978,63.8498576 29.2026959,64.2942906 L28.8734742,65.6618666 C28.8179488,65.8967644 28.8999943,66.1441106 29.0820126,66.2905568 C29.2640308,66.4370029 29.5109403,66.4543234 29.7095927,66.3345811 C30.788708,65.8222509 31.8325079,65.2302064 32.8332793,64.5628228 L31.9971608,64.2859855 C32.2088033,65.0722033 32.748361,69.4462318 34.3160833,68.3139675 C35.1312988,67.7298409 35.4487626,66.3276602 36.3697994,65.8459634 C36.7826329,65.6327987 36.6990211,65.7449178 37.0164848,66.0245234 C37.1759993,66.1760178 37.3458631,66.3148145 37.5246881,66.4397793 C37.9340611,66.7286534 38.3795021,66.9555439 38.848107,67.113878 C39.1482043,67.1941085 39.4551388,67.0117526 39.5470498,66.6986221 L40.1297199,65.2064694 L40.3727169,64.5143762 C40.3727169,64.2679911 40.4367322,64.2236971 40.6157138,64.3759576 C41.2414963,64.3081325 41.8973268,65.0154517 42.5858181,64.8701121 C43.8243187,64.6112693 43.506855,62.0311461 43.4219367,61.1563404 L42.9947324,61.7460038 C43.7994965,61.6075851 45.9995333,61.7460038 46.0870645,60.5126938 C46.0870645,59.9064203 45.5644904,59.2447792 45.2823004,58.7616982 L44.857709,58.0336163 L45.1438183,58.0336163 C45.617309,57.5977129 46.1491406,57.2385391 46.721992,56.9677929 C46.9895546,56.8018052 47.079601,56.4375301 46.923183,56.1538914 C46.8974148,56.106336 46.8652926,56.0629778 46.8278133,56.025162 L45.5213781,54.902587 C44.938708,54.3876697 44.917805,54.6562019 45.2039143,53.9724138 C45.6376508,52.9508844 46.1667571,51.9861066 46.5168817,50.9272041 C46.553462,50.7682334 46.5288399,50.6003744 46.4484481,50.4606646 C46.3680563,50.3209548 46.238502,50.2208766 46.0883709,50.1825119 C46.0482134,50.1715942 46.007013,50.1655572 45.965566,50.1645175 C45.3306385,50.1645175 44.695711,50.2655631 44.071235,50.2323426 C43.4467589,50.1991222 43.23381,50.1202235 43.212907,49.3907574 L43.212907,47.7463442 C43.212907,47.5331795 43.3618407,47.2065115 43.1279888,47.5207218 C43.4572104,47.0833189 43.1279888,46.3206323 42.5779795,46.51165 C42.0279703,46.7026677 41.6138303,46.9490529 41.1056271,47.0722455 C40.3439753,47.2521897 40.4602481,46.7954082 40.4066842,46.1033151 C40.4066878,45.9425335 40.3461382,45.7883969 40.2384673,45.6750976 C40.1307963,45.5617983 39.9849059,45.4987036 39.8331592,45.4998099 C39.7837369,45.4998972 39.7345406,45.5068781 39.6868384,45.5205727 L36.5108944,46.5296444 L37.2098373,46.9559738 C37.1062553,46.2058393 36.8943084,45.4770676 36.5814419,44.7952591 C36.5011105,44.6556934 36.3717114,44.5556845 36.2217458,44.5172599 C36.0717802,44.4788354 35.9135489,44.505147 35.7819036,44.5903995 C35.7459097,44.614037 35.7122134,44.6413928 35.6813081,44.6720665 C34.938129,45.3310313 34.2314782,46.0349077 33.564883,46.7801822 L34.3605021,46.7801822 C33.5703806,46.0652222 32.6472411,45.534211 31.6509554,45.2215885 C31.3442906,45.134656 31.0285067,45.3244347 30.9415611,45.6479178 C30.6310963,46.59643 30.4421549,47.5847904 30.379794,48.5865452 C30.3837133,49.3616895 31.4432322,49.3616895 31.5268441,48.5865452 Z" id="Path" fill="#421E13" fill-rule="nonzero"></path>
            <path d="M7.64892578,30.6118164 C12.0717773,29.1368815 14.6888021,29.1368815 15.5,30.6118164 C16.7167969,32.8242187 22.4780273,30.6118164 24.6333008,30.0587158 C26.7885742,29.5056152 29.277832,29.0512695 33.5,27.9926758 C37.722168,26.934082 33.8486328,21.4208984 41.5,21.4208984" id="Path-2" stroke="#471B10" stroke-width="2"></path>
        </g>
    </g>
</svg>