<?xml version="1.0" encoding="UTF-8"?>
<svg width="225px" height="225px" viewBox="0 0 225 225" version="1.1" xmlns="http://www.w3.org/2000/svg" xmlns:xlink="http://www.w3.org/1999/xlink">
    <title>Numbers__3</title>
    <defs>
        <polygon id="path-1" points="7.73068232e-05 0.5395 74.5199955 0.5395 74.5199955 82.9998179 7.73068232e-05 82.9998179"></polygon>
    </defs>
    <g id="Numbers__3" stroke="none" stroke-width="1" fill="none" fill-rule="evenodd">
        <path d="M115.752,192.936 C150.696,192.936 176.232,172.552 176.232,140.744 L176.232,140.296 C176.232,113.416 158.088,101.096 135.688,96.168 L173.096,63.912 L173.096,33 L59.976,33 L59.976,68.168 L119.784,68.168 L83.944,100.648 L89.992,123.272 L108.36,123.272 C124.936,123.272 133.896,129.32 133.896,139.4 L133.896,139.848 C133.896,149.48 126.28,155.752 113.96,155.752 C99.4,155.752 87.752,149.256 76.552,137.832 L49,165.16 C64.456,181.96 85.512,192.936 115.752,192.936 Z" id="3" fill="#AC2117" fill-rule="nonzero"></path>
        <path d="M182,117.134766 L182,118.938965 L184.779785,120.525879 C184.205404,122.614421 183.918213,123.658691 183.918213,123.658691 C183.918213,123.658691 183.918213,124.443115 183.918213,126.011963 C181.63859,126.503337 180.384766,126.749023 180.156738,126.749023 C179.814697,126.749023 177.611328,129.022705 177.611328,129.022705 C177.611328,129.022705 176.768,126.749023 176.5,126.749023 C176.321333,126.749023 174.680301,127.080811 171.576904,127.744385 C170.72762,128.407959 170.302979,128.407959 170.302979,127.744385 C170.302979,127.080811 170.302979,126.058919 170.302979,124.678711 C170.42643,123.143102 170.31093,122.375298 169.95648,122.375298 C169.424805,122.375298 167.514893,121.39209 168.172607,121.39209 C168.611084,121.39209 169.553548,121.103353 171,120.525879 C171.910319,120.793457 172.365479,120.595866 172.365479,119.933105 C172.365479,119.270345 173.06429,117.989583 174.461914,116.09082 C175.250977,116.786784 175.645508,117.134766 175.645508,117.134766 C175.645508,117.134766 177.611328,119.452881 177.611328,118.938965 C177.611328,118.425049 178.843262,117.134766 179.5,117.134766 C179.937826,117.134766 180.771159,117.134766 182,117.134766 Z" id="Path-8" fill="#AC2117"></path>
        <g id="Group-52" transform="translate(139.000000, 109.000000)">
            <g id="Group-3">
                <mask id="mask-2" fill="white">
                    <use xlink:href="#path-1"></use>
                </mask>
                <g id="Clip-2"></g>
                <path d="M71.6474235,63.3598944 C71.4057765,66.9611722 71.7636,71.7336722 70.5181882,75.0997833 C68.7894824,79.7477833 61.1915412,78.4612833 57.2694235,78.61345 C53.0591882,78.7702278 48.8489529,78.9223944 44.6387176,79.0791722 C36.2136,79.3973389 27.7931294,79.7062833 19.3726588,80.0152278 C15.6875412,80.1581722 12.0024235,80.31495 8.31730588,80.4302278 C5.08295294,80.5362833 3.89330588,79.4803389 3.45183529,76.0588944 C3.18695294,73.9792833 2.94530588,71.8950611 2.74083529,69.8016167 C1.86254118,60.8791167 2.76407059,52.6482833 4.00948235,43.8180056 C5.10154118,36.1358944 4.51136471,28.5137278 3.76318824,20.8316167 C3.75854118,20.7762833 3.70277647,20.7578389 3.69348235,20.7025056 C3.68883529,20.63795 3.73995294,20.6010611 3.72136471,20.5272833 C2.88024706,17.1842278 18.7127765,16.9306167 20.8829529,16.7277278 C25.1954235,16.3311722 25.9807765,15.4458389 27.2494235,11.46645 C31.1018353,-0.586994444 53.1288941,-0.411772222 51.5488941,14.2192833 C51.4838353,14.8141167 52.1344235,15.3997278 52.7106588,15.3720611 C56.9627176,15.1415056 61.2147765,14.8878944 65.4668353,14.6803944 C68.9614235,14.5097833 70.8946,15.8700611 71.6056,19.5635611 C71.9820118,21.5278944 71.7543059,23.8288389 71.8193647,25.8208389 C72.0981882,34.16695 72.2933647,42.5130611 72.1446588,50.8637833 C72.0749529,55.0322278 71.9216,59.2006722 71.6474235,63.3598944 M74.4542471,37.5653389 C74.3752471,33.1248389 74.2451294,28.68895 74.0917765,24.2622833 C73.9941882,21.3803389 74.7563059,16.65395 72.8742471,14.1316722 C71.5033647,12.2918389 69.1426588,12.2457278 67.0607765,12.2918389 C62.6786,12.3748389 58.2871294,12.7345056 53.9096,12.9881167 C54.2488353,0.445894444 38.4720706,-2.86949444 29.6519529,4.18089444 C27.7838353,5.67489444 26.2688941,7.55622778 25.3859529,9.78339444 C25.1210706,10.4427833 25.0560118,11.3742278 24.7214235,11.9736722 C23.7966588,13.6613389 21.2082471,14.2515611 19.3447765,14.5605056 C17.3326,14.8878944 15.2181882,14.9201722 13.1874235,15.1000056 C9.97630588,15.3858944 0.4266,15.4458389 1.44430588,20.8500611 C2.27612941,29.4405611 2.65718824,37.6806167 1.30024706,46.2388389 C0.0920117647,53.9025056 -0.381988235,61.26645 0.342952941,69.02695 C0.677541176,72.6190056 -0.0520470588,81.3201722 4.61824706,82.6620056 C7.36930588,83.4458944 11.0265412,82.6343389 13.8473059,82.5282833 C18.3177765,82.3622833 22.7928941,82.1962833 27.2680118,82.0302833 C35.4236,81.72595 43.5838353,81.4262278 51.7440706,81.1218944 C55.6894235,80.9743389 59.6394235,80.8406167 63.5894235,80.6838389 C65.9222471,80.5823944 68.7104824,80.7022833 70.6947765,79.2267278 C72.2980118,78.0416722 72.6651294,76.2710056 72.9439529,74.4081167 C73.5666588,70.2488944 73.8222471,65.9928389 74.0685412,61.7967278 C74.5425412,53.7318944 74.5890118,45.6440056 74.4542471,37.5653389" id="Fill-1" fill="#411E15" mask="url(#mask-2)"></path>
            </g>
            <path d="M34.3025568,12.5445281 C34.8115375,11.9044268 34.6230261,10.9374654 34.8822293,10.1974902 C35.0141872,9.80253408 35.3582205,9.0670986 35.7823711,8.60858636 C35.8860523,8.84011234 35.9708824,9.07163833 36.0085847,9.14881365 C36.2395111,9.58916699 36.4657248,10.0295203 36.6919384,10.4698737 C37.0406845,11.1462927 38.0256564,11.1689913 38.5393499,10.7013997 C39.4819068,9.84793133 40.57056,9.28500541 41.7299049,8.85373152 C41.6073725,9.13519448 41.4848401,9.41665744 41.3623077,9.69358067 C41.1172429,10.2565066 41.6356492,10.9465448 42.187045,11.091816 C42.9505161,11.2870242 43.6715721,11.5457885 44.3690641,11.8635693 C44.0815843,12.1949692 43.8883601,12.5853856 43.8600834,13.0348184 C43.8223812,13.7702539 43.9213496,14.5329277 43.9543391,15.2683632 C43.9731903,15.6633193 43.9920414,16.0491959 44.0061798,16.444152 C43.8789346,16.3760561 43.7422638,16.3034205 43.7045616,16.2852616 C43.3605283,16.1036726 42.9929311,15.9674808 42.5970572,15.9402425 C41.9655441,15.8948452 41.3811589,16.0855137 40.8627526,16.4259931 C40.3254952,16.7755519 39.9249085,17.2522231 39.477194,17.6789572 C39.3405232,17.8015298 39.1425863,17.9694996 38.930511,18.1420092 C38.9540749,17.8242284 38.9776389,17.5064477 38.99649,17.1841272 C39.0483306,16.4214534 38.2047422,15.9402425 37.5072501,16.0900534 C35.8907651,16.4486917 34.3355463,16.9934587 32.7756147,17.5155271 C32.9028598,17.0978724 32.9829772,16.6665985 33.138499,16.2534835 C33.3599999,15.6996371 33.0630945,15.3273796 32.657795,15.1049331 C32.8274553,14.6555003 32.7756147,14.1425113 32.2100805,13.8428895 C31.7388021,13.5977443 31.3287899,13.2981224 30.9564799,12.9667225 C31.281662,12.8577691 31.6398336,12.8305308 32.0074308,12.9077061 C32.8368808,13.0802156 33.685182,13.3162813 34.3025568,12.5445281 M30.8575114,15.6905576 C30.452212,16.7437738 30.1317426,17.815149 29.9149546,18.9183022 C29.7688582,19.6673568 30.4569248,20.6615566 31.3664921,20.3165375 C33.030105,19.6718966 34.7644096,19.2224638 36.4892887,18.773031 C36.4657248,19.2633213 36.4987143,19.7490719 36.6966512,20.1621869 C37.1443657,21.0973703 38.2141678,21.1745456 39.0860329,20.7614306 C39.9201957,20.3573951 40.6883796,19.730913 41.3387438,19.086272 C41.5790958,18.8502063 41.9137035,18.3417571 42.2577368,18.2509626 C42.6300467,18.1510886 42.9882183,18.5596639 43.3322516,18.7185543 C44.0768715,19.0771926 45.00529,19.1180501 45.6886438,18.6096009 C46.513381,17.9921983 46.3814231,16.988919 46.3484336,16.0991329 C46.3248696,15.5452864 46.2965929,14.9914399 46.273029,14.4375935 C46.2588907,14.1561305 46.2447523,13.883747 46.2353267,13.602284 L46.2353267,13.3934567 C46.2824546,13.3798375 46.2918802,13.370758 46.3531464,13.3571389 C46.5322322,13.3253608 46.6971796,13.289043 46.8715526,13.2209471 C47.300416,13.0620567 47.5784703,12.8214513 47.8329606,12.4491938 C48.2005578,11.918046 47.9177908,11.2234681 47.40881,10.9011476 C46.3719975,10.2292682 45.2315037,9.7344382 44.0580204,9.33040266 C44.3407874,8.68576169 44.6141289,8.04566044 44.896896,7.4055592 C45.2927699,6.50215389 44.2088295,5.90744989 43.4453584,6.01186357 C41.5178296,6.26608818 39.717546,7.00152366 38.1529016,8.09559742 C37.8795601,7.49181397 37.5732291,6.90618943 37.1490785,6.47945526 C36.3431924,5.66684446 35.3016671,6.02094302 34.538196,6.67920317 C33.8501295,7.26482772 33.2940209,8.02296182 32.921711,8.83103289 C32.7096357,9.28046568 32.5352626,9.74805738 32.4362942,10.233808 C32.4127303,10.3699997 32.4033047,10.5288901 32.3938791,10.678701 C32.2854851,10.6650819 32.1865166,10.6423832 32.0781226,10.6287641 C31.6021313,10.5697476 31.1402785,10.5924463 30.669,10.6877805 C29.7782838,10.8557503 28.9723977,11.3097228 28.3455974,11.9316652 C28.0062769,12.2676048 27.8648934,12.8940869 28.1617988,13.3072019 C28.8828548,14.3014017 29.7688582,15.0958536 30.8575114,15.6905576" id="Fill-4" fill="#411E15"></path>
            <path d="M24.5294175,28.3145067 C24.5435679,28.3145067 24.6048866,28.3236753 24.6284707,28.3236753 C24.6237538,28.8508687 24.6096034,29.3780621 24.5907361,29.9052554 C24.5530016,31.083418 24.5058334,32.2615806 24.4445148,33.4443275 C24.3407448,35.4522467 24.1803729,37.4509972 24.0011339,39.454332 C19.5012895,39.8944239 14.9967283,40.27492 10.4827335,40.6004046 C10.935548,36.7358479 11.143088,32.8529541 11.0440348,28.9700602 C15.5202951,28.4795412 20.0248563,28.2457424 24.5294175,28.3145067 M25.1001525,41.6502071 C25.7840911,41.586027 26.2133215,41.1826095 26.279357,40.5041345 C26.5246315,37.9461006 26.7133042,35.3743137 26.8359415,32.8025269 C26.8972601,31.5143413 26.9444283,30.2261558 26.977446,28.9425545 C26.9963133,27.8744149 27.2038533,26.4853749 25.8689938,26.1002945 C25.3171261,25.9398444 24.6143202,26.0223616 24.0435852,26.013193 C23.3973812,26.0086087 22.7511771,26.0086087 22.104973,26.013193 C20.8125649,26.0223616 19.5201568,26.0544516 18.2277486,26.1140474 C15.6429324,26.2194861 13.0675497,26.4303634 10.4968839,26.7191737 C9.87426393,26.7925224 9.35541395,27.1913556 9.33182986,27.8423248 C8.96863487,28.002775 8.67147534,28.2686638 8.68562579,28.7821043 C8.81297988,33.1509329 8.58657261,37.5197616 8.006404,41.8519159 C7.92621809,42.438705 8.61487352,43.039247 9.1856085,42.9979884 C14.4967456,42.6312452 19.8031658,42.1819848 25.1001525,41.6502071" id="Fill-6" fill="#411E15"></path>
            <path d="M13.0523964,36.7871285 C13.1738567,37.3645252 13.5662669,37.7938714 14.1128383,37.9419218 C14.5239347,38.0603622 14.9864182,37.9665969 15.4115293,37.9320518 C16.2010212,37.8678966 16.9951848,37.7988064 17.7893483,37.7297162 C18.5648256,37.670496 19.3496461,37.6211459 20.1251234,37.5372507 C20.59695,37.4879005 21.0407472,37.3694602 21.3864419,37.0042692 C21.8022099,36.5650529 21.853597,36.0123313 21.9096556,35.4349347 C21.998415,34.6305274 22.0217728,33.8162501 21.9797288,33.0069078 C21.9330133,32.0100349 21.9376849,30.6923862 20.8258559,30.3518702 C20.3587009,30.2136898 19.807458,30.2531699 19.3262883,30.2235599 C18.8965057,30.1988848 18.4667231,30.1742097 18.0369405,30.1495346 C17.1353313,30.1051195 16.2383936,30.0508344 15.3367845,30.0014842 C14.9397027,29.9768092 14.6267088,30.26304 14.4118175,30.618361 C13.939991,30.6726461 13.4541497,30.973682 13.3840765,31.4967935 C13.2766308,32.375226 13.1738567,33.2585935 13.1131266,34.146896 C13.0850973,34.5268921 13.0617395,34.9019532 13.0430533,35.2819492 C13.0196956,35.7655806 12.9542939,36.3084322 13.0523964,36.7871285" id="Fill-8" fill="#411E15"></path>
            <path d="M34.7974973,28.1671744 C34.2982543,28.1371744 33.7990113,28.1071744 33.2997683,28.0771744 C33.0653411,28.0621744 32.8830089,28.2621744 32.7657953,28.4971744 C32.5140032,28.5371744 32.2535286,28.6771744 32.2144574,28.9821744 C32.15368,29.5221744 32.0972439,30.0521744 32.0625139,30.5871744 C32.0451489,30.8171744 32.0321252,31.0471744 32.0234427,31.2771744 C32.010419,31.5721744 31.975689,31.8971744 32.027784,32.1871744 C32.0972439,32.5371744 32.3186473,32.8021744 32.6181931,32.8871744 C32.8526202,32.9621744 33.1044123,32.9021744 33.3388395,32.8771744 C33.7816463,32.8421744 34.2201119,32.8021744 34.6585775,32.7621744 C35.0883606,32.7221744 35.5268262,32.6921744 35.9609505,32.6471744 C36.2214251,32.6121744 36.468876,32.5421744 36.664232,32.3171744 C36.8899766,32.0521744 36.9160241,31.7171744 36.950754,31.3721744 C36.9985077,30.8821744 37.0115314,30.3871744 36.9898252,29.9021744 C36.9637778,29.2971744 36.968119,28.4921744 36.3473212,28.2921744 C36.0911878,28.2071744 35.7829595,28.2321744 35.5138024,28.2121744 C35.2750341,28.1971744 35.0406069,28.1821744 34.7974973,28.1671744" id="Fill-10" fill="#411E15"></path>
            <path d="M59.5100214,57.2088986 L58.798325,57.1638986 L57.2968192,57.0788986 C57.0624802,57.0638986 56.8802165,57.2588986 56.7673866,57.4988986 C56.5113495,57.5338986 56.2509728,57.6738986 56.2119163,57.9788986 C56.1555013,58.5188986 56.0990863,59.0488986 56.0600298,59.5888986 C56.047011,59.8138986 56.0339922,60.0438986 56.0253129,60.2738986 C56.0122941,60.5688986 55.9732376,60.8938986 56.0296525,61.1838986 C56.0990863,61.5338986 56.3160669,61.7988986 56.6155002,61.8888986 C56.8498392,61.9588986 57.1015367,61.8988986 57.3402154,61.8788986 C57.7785162,61.8388986 58.216817,61.7988986 58.6594574,61.7588986 C59.089079,61.7188986 59.5230402,61.6888986 59.9570014,61.6438986 C60.2173781,61.6088986 60.464736,61.5388986 60.6600185,61.3138986 C60.8856783,61.0538986 60.9160556,60.7138986 60.9507725,60.3638986 C60.9985083,59.8788986 61.0115271,59.3888986 60.989829,58.8988986 C60.9594518,58.2938986 60.9637914,57.4938986 60.3432269,57.2938986 C60.0871897,57.2038986 59.7790773,57.2288986 59.5100214,57.2088986" id="Fill-12" fill="#411E15"></path>
            <path d="M44.4338771,42.7320425 C44.1776934,42.7184872 43.9306592,42.7049319 43.6790502,42.6913766 L42.096201,42.6145633 C42.050454,42.6100449 42.0138563,42.6507107 41.9681092,42.664266 C41.9040633,42.6100449 41.8674656,42.5287131 41.8034197,42.4790103 C40.856455,41.8870958 39.3010541,42.140128 38.2214229,42.1220542 C35.4034024,42.0813884 32.5853819,42.0452409 29.7719362,42 C29.2549941,41.9955382 28.9530633,42.2621256 28.7563509,42.5964896 C28.7197532,42.569379 28.7197532,42.5241947 28.6877302,42.5016025 C28.1204664,42.171757 27.2055247,42.3299021 26.9035939,42.9624825 C26.4369736,43.9249084 25.8056638,45.3301406 26.0572728,46.4236011 C26.368353,47.7384646 27.9237539,47.6029117 28.9759369,47.5803195 C31.469153,47.5306168 33.9669439,47.4763956 36.4601601,47.4221744 C36.6568726,47.417656 36.853585,47.4086191 37.0502975,47.4086191 C37.0182745,47.9960152 36.9679527,48.5834113 36.9542286,49.1753259 C36.9359298,49.8666459 36.8947574,50.7522585 37.7548026,50.9691432 C38.0567334,51.0459565 38.3815377,50.9601063 38.6834684,50.9194404 C38.9853992,50.8878114 39.2781806,50.8471455 39.5755366,50.8064797 C40.2068464,50.7296663 40.8518803,50.6618898 41.4831901,50.5624843 C41.8171438,50.5127816 42.1190746,50.3139706 42.2974882,50.0293094 C42.4850513,49.7401298 42.5079248,49.4102843 42.5353731,49.0759204 C42.5902696,48.3710451 42.6085684,47.6435776 42.5948443,46.9161101 C42.9059245,46.8935179 43.2170046,46.8664074 43.5326595,46.8438152 C43.9855557,46.8076677 44.4430265,46.7805572 44.9004974,46.7398913 C45.1749799,46.7082623 45.4357383,46.6450042 45.6416002,46.4416748 C45.879485,46.2067164 45.911508,45.899463 45.9481056,45.5831728 C45.9984274,45.1448849 46.0121516,44.7020787 45.989278,44.2592724 C45.9618298,43.7125421 45.9618298,42.9895931 45.3076465,42.8043374 C45.0377386,42.7275241 44.717509,42.7501162 44.4338771,42.7320425" id="Fill-14" fill="#411E15"></path>
            <path d="M39.3380328,32.8771837 L40.6613143,32.7621837 C41.0908384,32.7221837 41.5247012,32.6921837 41.958564,32.6421837 C42.2188817,32.6071837 42.4661835,32.5421837 42.6614217,32.3171837 C42.8870304,32.0521837 42.9174007,31.7171837 42.9521098,31.3671837 C42.9998347,30.8821837 43.0128506,30.3871837 42.9868188,29.8971837 C42.960787,29.2921837 42.9651257,28.4921837 42.3447019,28.2921837 C42.0887228,28.2021837 41.7806803,28.2271837 41.5116853,28.2071837 L40.8001504,28.1671837 L39.2989852,28.0771837 C39.0646993,28.0621837 38.8824769,28.2571837 38.7653339,28.4971837 C38.5136935,28.5371837 38.2533759,28.6721837 38.2143282,28.9821837 C38.1579261,29.5171837 38.1015239,30.0521837 38.0624762,30.5871837 C38.0451217,30.8171837 38.0364445,31.0471837 38.0234286,31.2771837 C38.0104127,31.5671837 37.9757037,31.8971837 38.0277672,32.1821837 C38.0971853,32.5371837 38.3184553,32.7971837 38.6178206,32.8871837 C38.8521065,32.9621837 39.1037469,32.9021837 39.3380328,32.8771837" id="Fill-16" fill="#411E15"></path>
            <path d="M59.5100214,52.2130797 L58.798325,52.1680797 C58.2992696,52.1380797 57.7958746,52.1080797 57.2968192,52.0780797 C57.0624802,52.0630797 56.8802165,52.2630797 56.7673866,52.5030797 C56.5113495,52.5380797 56.2509728,52.6730797 56.2119163,52.9830797 C56.1555013,53.5180797 56.0990863,54.0530797 56.0600298,54.5930797 C56.047011,54.8180797 56.0339922,55.0430797 56.0253129,55.2730797 C56.0122941,55.5680797 55.9732376,55.8980797 56.0296525,56.1880797 C56.0990863,56.5330797 56.3160669,56.7980797 56.6155002,56.8930797 C56.8498392,56.9580797 57.1015367,56.8980797 57.3402154,56.8830797 C57.7785162,56.8430797 58.216817,56.8030797 58.6594574,56.7580797 C59.089079,56.7180797 59.5230402,56.6930797 59.9570014,56.6430797 C60.2173781,56.6130797 60.464736,56.5380797 60.6600185,56.3180797 C60.8856783,56.0580797 60.9160556,55.7180797 60.9507725,55.3680797 C60.9985083,54.8780797 61.0115271,54.3930797 60.989829,53.8980797 C60.9594518,53.2980797 60.9637914,52.4980797 60.3432269,52.2930797 C60.0871897,52.2080797 59.7790773,52.2280797 59.5100214,52.2130797" id="Fill-18" fill="#411E15"></path>
            <path d="M66.5138024,64.2100078 C66.2750341,64.1950078 66.0406069,64.1800078 65.7974973,64.1650078 L64.295427,64.0800078 C64.0653411,64.0650078 63.8830089,64.2600078 63.7657953,64.5 C63.5140032,64.5350078 63.2535286,64.6750078 63.2144574,64.9800078 C63.15368,65.5200078 63.0972439,66.0500078 63.0625139,66.5900078 C63.0451489,66.8150078 63.0321252,67.0450078 63.0234427,67.2750078 C63.010419,67.5700078 62.975689,67.8950078 63.027784,68.1850078 C63.0972439,68.5350078 63.3186473,68.7950078 63.6181931,68.8900078 C63.848279,68.9550078 64.1044123,68.9000078 64.3388395,68.8800078 C64.7816463,68.8400078 65.2201119,68.8000078 65.6585775,68.7600078 C66.0883606,68.7200078 66.5268262,68.6900078 66.9566093,68.6450078 C67.2214251,68.6100078 67.468876,68.5400078 67.6598907,68.3150078 C67.8856354,68.0550078 67.9160241,67.7150078 67.950754,67.3650078 C67.9985077,66.8800078 68.0115314,66.3900078 67.9898252,65.9000078 C67.9637778,65.2950078 67.9637778,64.4950078 67.3473212,64.2950078 C67.0911878,64.2050078 66.7829595,64.2250078 66.5138024,64.2100078" id="Fill-20" fill="#411E15"></path>
            <path d="M34.5138024,52.2130797 C34.2750341,52.1980797 34.0406069,52.1830797 33.7974973,52.1680797 C33.2982543,52.1380797 32.79467,52.1080797 32.2997683,52.0780797 C32.0653411,52.0630797 31.8830089,52.2630797 31.7657953,52.5030797 C31.5140032,52.5380797 31.2535286,52.6730797 31.2144574,52.9830797 C31.15368,53.5180797 31.0972439,54.0530797 31.0625139,54.5930797 C31.0451489,54.8180797 31.0321252,55.0430797 31.0234427,55.2730797 C31.010419,55.5680797 30.975689,55.8980797 31.027784,56.1880797 C31.0972439,56.5380797 31.3186473,56.7980797 31.6181931,56.8930797 C31.8526202,56.9580797 32.1044123,56.8980797 32.3388395,56.8830797 C32.7816463,56.8430797 33.2201119,56.8030797 33.6585775,56.7630797 C34.0883606,56.7230797 34.5268262,56.6930797 34.9609505,56.6430797 C35.2214251,56.6130797 35.468876,56.5380797 35.664232,56.3180797 C35.8899766,56.0580797 35.9160241,55.7180797 35.950754,55.3680797 C35.9985077,54.8780797 36.0115314,54.3930797 35.9898252,53.8980797 C35.9637778,53.2980797 35.968119,52.4980797 35.3473212,52.2930797 C35.0911878,52.2080797 34.7829595,52.2280797 34.5138024,52.2130797" id="Fill-22" fill="#411E15"></path>
            <path d="M50.5138024,65.2137905 C50.2706928,65.1937905 50.0362657,65.1837905 49.7974973,65.1687905 C49.2982543,65.1337905 48.79467,65.1087905 48.295427,65.0787905 C48.0653411,65.0637905 47.8830089,65.2587905 47.7657953,65.4987905 C47.509662,65.5337905 47.2491874,65.6737905 47.2144574,65.9837905 C47.15368,66.5187905 47.0972439,67.0487905 47.0581727,67.5887905 C47.0451489,67.8187905 47.0321252,68.0437905 47.0234427,68.2737905 C47.010419,68.5687905 46.975689,68.8937905 47.027784,69.1887905 C47.0972439,69.5337905 47.314306,69.7987905 47.6138518,69.8887905 C47.848279,69.9587905 48.1000711,69.8987905 48.3388395,69.8837905 C48.7816463,69.8387905 49.2157707,69.7987905 49.6585775,69.7587905 C50.0883606,69.7187905 50.5268262,69.6937905 50.9566093,69.6437905 C51.2170839,69.6087905 51.468876,69.5387905 51.6598907,69.3137905 C51.8856354,69.0537905 51.9160241,68.7187905 51.950754,68.3687905 C51.9985077,67.8787905 52.0115314,67.3887905 51.9898252,66.8987905 C51.9637778,66.2937905 51.9637778,65.4987905 51.3429799,65.2937905 C51.0868466,65.2037905 50.7829595,65.2287905 50.5138024,65.2137905" id="Fill-24" fill="#411E15"></path>
            <path d="M41.5116853,52.2130797 L40.8001504,52.1680797 C40.3012082,52.1380797 39.7979274,52.1080797 39.2989852,52.0780797 C39.0646993,52.0630797 38.8824769,52.2630797 38.7653339,52.5030797 C38.5136935,52.5380797 38.2533759,52.6730797 38.2143282,52.9830797 C38.1579261,53.5180797 38.1015239,54.0530797 38.0624762,54.5930797 C38.0451217,54.8180797 38.0364445,55.0430797 38.0234286,55.2730797 C38.0104127,55.5680797 37.9757037,55.8980797 38.0277672,56.1880797 C38.0971853,56.5380797 38.3184553,56.7980797 38.6178206,56.8930797 C38.8521065,56.9580797 39.1037469,56.8980797 39.3380328,56.8830797 L40.6613143,56.7630797 C41.0908384,56.7230797 41.5247012,56.6930797 41.958564,56.6430797 C42.2188817,56.6130797 42.4661835,56.5380797 42.6614217,56.3180797 C42.8870304,56.0580797 42.9174007,55.7180797 42.9521098,55.3680797 C42.9998347,54.8780797 43.0128506,54.3930797 42.9868188,53.8980797 C42.960787,53.2980797 42.9651257,52.4980797 42.3447019,52.2930797 C42.0887228,52.2080797 41.7806803,52.2280797 41.5116853,52.2130797" id="Fill-26" fill="#411E15"></path>
            <path d="M50.5138024,47.2088986 C50.2706928,47.1938986 50.0362657,47.1788986 49.7974973,47.1638986 L48.295427,47.0788986 C48.0653411,47.0638986 47.8830089,47.2588986 47.7657953,47.4988986 C47.509662,47.5338986 47.2491874,47.6738986 47.2144574,47.9788986 C47.15368,48.5188986 47.0972439,49.0488986 47.0581727,49.5888986 C47.0451489,49.8138986 47.0321252,50.0438986 47.0234427,50.2738986 C47.010419,50.5688986 46.975689,50.8938986 47.027784,51.1838986 C47.0972439,51.5338986 47.314306,51.7938986 47.6138518,51.8888986 C47.848279,51.9588986 48.1000711,51.8988986 48.3388395,51.8788986 C48.7816463,51.8388986 49.2157707,51.7988986 49.6585775,51.7588986 C50.0883606,51.7188986 50.5268262,51.6888986 50.9566093,51.6438986 C51.2170839,51.6088986 51.468876,51.5388986 51.6598907,51.3138986 C51.8856354,51.0538986 51.9160241,50.7138986 51.950754,50.3638986 C51.9985077,49.8788986 52.0115314,49.3888986 51.9898252,48.8988986 C51.9637778,48.2938986 51.9637778,47.4938986 51.3429799,47.2938986 C51.0868466,47.2038986 50.7829595,47.2288986 50.5138024,47.2088986" id="Fill-28" fill="#411E15"></path>
            <path d="M32.5138024,60.2130797 C32.2750341,60.1980797 32.0406069,60.1830797 31.7974973,60.1680797 C31.2982543,60.1380797 30.79467,60.1080797 30.2997683,60.0780797 C30.0653411,60.0630797 29.8830089,60.2630797 29.7657953,60.5030797 C29.5140032,60.5380797 29.2535286,60.6730797 29.2144574,60.9830797 C29.15368,61.5180797 29.0972439,62.0530797 29.0625139,62.5930797 C29.0451489,62.8180797 29.0321252,63.0430797 29.0234427,63.2730797 C29.010419,63.5680797 28.975689,63.8980797 29.027784,64.1880797 C29.0972439,64.5380797 29.3186473,64.7980797 29.6181931,64.8930797 C29.8526202,64.9580797 30.1044123,64.8980797 30.3388395,64.8830797 C30.7816463,64.8430797 31.2201119,64.8030797 31.6585775,64.7630797 C32.0883606,64.7230797 32.5268262,64.6930797 32.9609505,64.6430797 C33.2214251,64.6130797 33.468876,64.5380797 33.664232,64.3180797 C33.8899766,64.0580797 33.9160241,63.7180797 33.950754,63.3680797 C33.9985077,62.8780797 34.0115314,62.3930797 33.9898252,61.9030797 C33.9637778,61.2980797 33.968119,60.4980797 33.3473212,60.2930797 C33.0911878,60.2080797 32.7829595,60.2280797 32.5138024,60.2130797" id="Fill-30" fill="#411E15"></path>
            <path d="M10.3388395,48.8811771 C10.7816463,48.8411771 11.2201119,48.8011771 11.6585775,48.7661771 C12.0883606,48.7261771 12.5268262,48.6961771 12.9566093,48.6411771 C13.2214251,48.6111771 13.468876,48.5461771 13.6598907,48.3211771 C13.8856354,48.0561771 13.9160241,47.7211771 13.950754,47.3661771 C13.9985077,46.8811771 14.0115314,46.3911771 13.9898252,45.9011771 C13.9637778,45.2961771 13.9637778,44.4961771 13.3473212,44.2911771 C13.0911878,44.2061771 12.7786183,44.2261771 12.5138024,44.2111771 C12.2750341,44.1961771 12.0406069,44.1861771 11.7974973,44.1711771 C11.2982543,44.1411771 10.79467,44.1111771 10.295427,44.0761771 C10.0653411,44.0661771 9.88300892,44.2611771 9.76579534,44.5011771 C9.51400322,44.5411771 9.25352862,44.6711771 9.21445743,44.9861771 C9.15368002,45.5161771 9.09724385,46.0561771 9.06251391,46.5911771 C9.04514893,46.8211771 9.0321252,47.0461771 9.02344271,47.2761771 C9.01041898,47.5661771 8.97568904,47.9011771 9.02778396,48.1861771 C9.09724385,48.5411771 9.31864727,48.7961771 9.61819307,48.8911771 C9.84827897,48.9611771 10.1044123,48.9011771 10.3388395,48.8811771" id="Fill-32" fill="#411E15"></path>
            <path d="M17.801762,44.1711727 C17.3025327,44.1411727 16.8033033,44.1111727 16.2997328,44.0761727 C16.0653121,44.0661727 15.8829848,44.2661727 15.7657744,44.5011727 C15.5139892,44.5411727 15.2535217,44.6761727 15.2144516,44.9861727 C15.1536758,45.5211727 15.0972412,46.0561727 15.0625122,46.5911727 C15.0451477,46.8211727 15.0364654,47.0461727 15.0234421,47.2761727 C15.0104187,47.5711727 14.9756897,47.9011727 15.0277832,48.1911727 C15.0972412,48.5411727 15.3186386,48.8011727 15.6181762,48.8911727 C15.8525969,48.9611727 16.1043822,48.9011727 16.3388029,48.8811727 L17.662846,48.7661727 C18.0926174,48.7261727 18.5267299,48.6961727 18.9608424,48.6461727 C19.2213099,48.6161727 19.468754,48.5461727 19.6641046,48.3211727 C19.8898431,48.0561727 19.920231,47.7211727 19.95496,47.3711727 C19.9983712,46.8811727 20.0113946,46.3911727 19.989689,45.9061727 C19.9636422,45.3011727 19.9679833,44.4961727 19.3472025,44.2911727 C19.0910761,44.2111727 18.7871974,44.2311727 18.5137065,44.2161727 C18.2749446,44.2011727 18.0405239,44.1861727 17.801762,44.1711727" id="Fill-34" fill="#411E15"></path>
            <path d="M42.5625892,61.4188613 C42.5763595,61.3369041 42.5947199,61.2597679 42.6039002,61.1729897 C42.6543914,60.7053516 42.6635717,60.2328925 42.6452112,59.7556123 C42.6130804,59.1770909 42.6176705,58.4057291 41.9612842,58.2080676 C41.6904675,58.1261104 41.3645694,58.1453945 41.0799824,58.1309314 L40.3272037,58.0923633 C39.7947505,58.0634373 39.2668874,58.0296902 38.7390243,58.0007641 C38.4911582,57.9863011 38.2983734,58.1791415 38.1790304,58.4105501 C37.9036236,58.4491182 37.6328069,58.5744645 37.596086,58.8781882 C37.5272343,59.3892154 37.4721529,59.9098847 37.4308419,60.4257329 C37.4170716,60.6426784 37.4033012,60.864445 37.394121,61.0862115 C37.3803506,61.3658302 37.3344495,61.6888379 37.3987111,61.9636356 C37.3987111,61.9684566 37.4033012,61.9684566 37.4078913,61.9732776 C37.3344495,62.122729 37.233467,62.2480753 37.2242868,62.4216317 C37.1370746,63.9547134 37.0774031,65.4926161 37.0452723,67.0305187 C37.031502,67.7681335 36.870848,68.7612619 37.2518275,69.4265615 C37.7796905,70.3377327 38.8629574,69.9279467 39.6570471,69.7736743 C40.3639246,69.643507 41.1075231,69.5615498 41.8006303,69.3735304 C42.6727519,69.1421218 42.8884872,68.2936238 42.9343884,67.4595888 C43.0170104,65.9265071 43.0216005,64.3837834 42.9481587,62.8458807 C42.9297983,62.4071687 42.9297983,61.9202465 42.7002926,61.5297446 C42.6635717,61.4718924 42.6039002,61.4670714 42.5625892,61.4188613" id="Fill-36" fill="#411E15"></path>
            <path d="M68.8251036,47.757568 C68.7222664,47.3983876 68.521489,47.1543291 68.2570504,46.970134 C68.3109175,46.9378998 68.3794757,46.9517145 68.4284458,46.9056657 C68.6879873,46.6662121 68.7222664,46.3530804 68.7565455,46.030739 C68.8104126,45.5794611 68.8202066,45.132788 68.7957216,44.6769051 C68.7663395,44.1243199 68.7712365,43.3875395 68.075861,43.1987396 C67.7820403,43.1204567 67.4392496,43.1388762 67.1307379,43.1250615 L66.3276281,43.0836176 C65.7644719,43.0559884 65.2013156,43.0283591 64.6381594,43.0007299 C64.3688238,42.9869152 64.1631493,43.1711103 64.03093,43.3921444 C63.7469034,43.4289834 63.4530827,43.5487102 63.4139067,43.8342126 C63.3404515,44.3269345 63.2816874,44.8196563 63.2376143,45.3169831 C63.2180262,45.5288074 63.2082322,45.7360269 63.1984382,45.9432464 C63.1837471,46.2149341 63.139674,46.518856 63.2033352,46.7859389 C63.2523053,46.9931584 63.4579798,47.0852559 63.6293751,47.2049827 C63.6244781,47.3799681 63.6440662,47.5503485 63.7077273,47.7161241 C63.4041126,47.9187387 63.1739531,48.2226606 63.1641591,48.6693337 C63.100498,51.0316357 63.0564249,53.3939377 63.0270428,55.7516348 C63.0123518,56.9396931 63.0074548,58.1231465 63.0025577,59.3112048 C62.9976607,60.2782291 62.9193086,61.6366678 64.1680463,61.9590092 C64.7801727,62.115575 65.3286379,61.7886288 65.8673091,61.5675947 C66.4353623,61.3327459 66.9985186,61.1025021 67.5616748,60.8722582 C68.6488112,60.4255851 68.8691767,59.5874975 68.9230439,58.5375855 C69.0307781,56.2167274 69.001396,53.8820546 68.976911,51.5565917 C68.972014,50.8612552 68.9622199,50.156709 68.9475289,49.4613725 C68.9328379,48.9087873 68.972014,48.2963386 68.8251036,47.757568" id="Fill-38" fill="#411E15"></path>
            <path d="M25.510103,48.2087905 L24.7984456,48.1637905 L23.2970221,48.0787905 C23.0626959,48.0637905 22.8804422,48.2587905 22.7676184,48.4987905 C22.5115954,48.5337905 22.2512329,48.6737905 22.2121785,48.9837905 C22.1557667,49.5187905 22.0993548,50.0487905 22.0603004,50.5887905 L22.0212461,51.2737905 C22.0125673,51.5687905 21.973513,51.8937905 22.0299248,52.1837905 C22.0993548,52.5337905 22.3163235,52.7987905 22.6157403,52.8887905 C22.8500666,52.9587905 23.1017503,52.8987905 23.3404158,52.8837905 C23.7786926,52.8387905 24.2169694,52.7987905 24.6595856,52.7587905 C25.0891837,52.7187905 25.5231211,52.6887905 25.9570585,52.6437905 C26.217421,52.6087905 26.4647653,52.5387905 26.6600371,52.3137905 C26.8856846,52.0537905 26.9160602,51.7137905 26.9507752,51.3687905 C26.9985083,50.8787905 27.0115265,50.3887905 26.9898296,49.8987905 C26.959454,49.2937905 26.9637933,48.4987905 26.3432628,48.2937905 C26.0872397,48.2037905 25.7791442,48.2287905 25.510103,48.2087905" id="Fill-40" fill="#411E15"></path>
            <path d="M40.1149793,34.1563619 C39.6504338,34.1513619 39.4158613,34.4463619 39.273278,34.7963619 C38.8363293,34.3513619 38.1188135,34.2363619 37.7508566,34.9663619 C37.355303,35.7563619 36.7481742,37.1163619 37.1115316,38.0213619 C37.5300825,39.0813619 38.9375174,38.8213619 39.7884176,38.8013619 C41.8627743,38.7563619 43.937131,38.7163619 46.0114877,38.6713619 C46.9819738,38.6513619 47.95246,38.6613619 48.9229461,38.6113619 C49.8658355,38.5613619 50.5787519,38.2713619 50.8869158,37.2213619 C51.1352866,36.3463619 51.0065017,34.9863619 50.1785989,34.4963619 C49.760048,34.2463619 49.2403089,34.2813619 48.7757634,34.2713619 C48.2376265,34.2663619 47.6948902,34.2613619 47.1567533,34.2563619 C44.8110285,34.2213619 42.4653036,34.1913619 40.1149793,34.1563619" id="Fill-42" fill="#411E15"></path>
            <path d="M19.1272186,69.9211243 C17.6945522,70.1660164 16.2525219,70.3415995 14.8011278,70.4571147 C14.1035222,70.5171825 13.3965528,70.5633886 12.6942653,70.5911123 C12.3431216,70.6049741 11.9919778,70.6142153 11.6408341,70.6234565 C11.5284681,70.6280771 11.4161021,70.6280771 11.3037361,70.6280771 C11.3177819,70.3785643 11.3458734,70.1151898 11.3505553,69.911883 C11.3552372,69.348169 11.3599191,68.7890756 11.3599191,68.2299821 C11.3692829,67.1117953 11.3786468,65.9889878 11.3880106,64.8661804 L11.4395117,58.194024 C13.8834721,57.7874106 16.3414783,57.5055536 18.8182121,57.4039003 C20.0823296,57.348453 21.351129,57.3345912 22.6199284,57.3576942 C22.6667475,57.3623148 23.0178913,57.371556 23.2753967,57.3807972 C23.2800786,57.47783 23.312852,57.6164482 23.3175339,57.6811367 C23.3643531,58.277195 23.2847605,58.8871151 23.2238956,59.4831734 C22.9804359,62.0291277 23.031937,64.5843233 23.3783988,67.1164159 C23.4205361,67.4121347 23.4626733,67.7078536 23.5141744,68.008193 C23.537584,68.1837761 23.537584,68.7705932 23.6686777,68.8907289 C23.6639957,68.8907289 23.6780415,68.9230732 23.6780415,68.936935 C23.4158542,68.9461762 23.0600285,69.1032768 22.8165688,69.1633447 C21.5945886,69.454443 20.3679265,69.7085763 19.1272186,69.9211243 M25.5227166,59.922131 C25.6491283,58.4851223 26.1407296,55.6896551 24.21178,55.1629059 C23.256669,54.8995313 22.076826,55.0335289 21.0983055,55.0381496 C19.8763253,55.0473908 18.659027,55.0889762 17.4510925,55.1675265 C15.1148162,55.3200066 12.7925856,55.6018636 10.4890826,55.9992358 C9.78211324,56.1239922 9.58079083,56.6969474 9.69783874,57.2329378 C9.37010459,57.3992797 9.10323534,57.6718955 9.09855343,58.1431974 C9.07046193,62.320226 9.03768851,66.4972546 9.00023318,70.6742832 C8.99555126,71.5845427 9.05173426,72.5086641 10.0677101,72.8598302 C10.8683179,73.132446 12.0107055,72.9291393 12.8440866,72.8967951 C14.955631,72.7997623 17.0671754,72.5733526 19.1553101,72.2452895 C20.0448743,72.1066713 20.9391203,71.9403295 21.8240025,71.7508846 C22.7978412,71.5521985 23.9449107,71.4135803 24.8485206,70.970002 C26.7259691,70.0320188 25.7849039,67.8048863 25.6069911,66.2107769 C25.3682134,64.1222626 25.3448038,62.0152659 25.5227166,59.922131" id="Fill-44" fill="#411E15"></path>
            <path d="M20.4964667,60.5940585 C19.8861291,59.7946955 18.670113,60.0217335 17.7988677,60.0548432 C16.9695539,60.083223 16.1448993,60.1210626 15.3202447,60.1730922 C14.9708147,60.196742 14.6726345,60.3859403 14.4489994,60.650818 C14.351159,60.6224382 14.2719549,60.5231091 14.1647963,60.5278391 C13.5358225,60.5562188 12.9953708,61.0481345 13,61.7103287 C13.009348,63.1813458 13.0605978,64.6712827 13.2516195,66.1328399 C13.358778,66.9085531 13.7501395,67.7694056 14.5887713,67.9586039 C15.3901306,68.1336124 16.2194444,67.7126461 16.9648949,67.4619583 C17.6358003,67.2349203 18.3020468,67.0078823 18.9682932,66.7855742 C19.2664734,66.6862451 19.5739717,66.5963759 19.8628338,66.4781269 C20.4032854,66.2652788 20.8132832,65.8821521 20.9530552,65.2909073 C21.0369184,64.9077807 20.9856686,64.5057342 20.9716914,64.1226076 C20.9577142,63.7536708 20.939078,63.3800041 20.9251008,63.0063373 C20.8878283,62.2164343 20.9903277,61.2515227 20.4964667,60.5940585" id="Fill-46" fill="#411E15"></path>
            <path d="M62.1274492,38.919961 C60.690149,39.164843 59.2528488,39.3450391 57.8015034,39.4605495 C57.0992395,39.5206149 56.3969755,39.5621986 55.6947116,39.5945415 C55.3435797,39.6037824 54.9924477,39.6176436 54.636634,39.6268844 C54.5289535,39.6268844 54.4165913,39.6268844 54.3042291,39.6315048 C54.3135926,39.3773821 54.3463649,39.1140184 54.3463649,38.9107202 L54.3604102,37.2335097 C54.3697737,36.110749 54.3791372,34.9879883 54.3885007,33.869848 C54.4072278,31.6428082 54.421273,29.4157684 54.4400001,27.193349 C56.8791968,26.7867525 59.3371205,26.5095277 61.8137713,26.4078785 C63.0778463,26.3524336 64.3512849,26.3339519 65.61536,26.3616744 C65.6668593,26.3616744 66.0179913,26.3755356 66.2754881,26.3847765 C66.2801698,26.4818052 66.3129421,26.6157972 66.3176239,26.6851034 C66.3644415,27.2811369 66.2801698,27.8910316 66.2239887,28.4870651 C65.9758554,31.0329135 66.0320366,33.5833823 66.3784868,36.1199898 C66.4206226,36.4156964 66.4627584,36.7067825 66.509576,37.0071094 C66.5376666,37.1826852 66.5376666,37.7740982 66.6687559,37.894229 C66.6640741,37.8896086 66.6734376,37.9219515 66.6781194,37.9404331 C66.4159408,37.9450536 66.0554454,38.1021476 65.8166756,38.162213 C64.5947364,38.4579196 63.3681154,38.7120424 62.1274492,38.919961 M68.5227326,28.9260045 C68.6491401,27.4844351 69.1360431,24.6937048 67.21184,24.1623571 C66.256761,23.8989935 65.0769576,24.0329855 64.0937881,24.0422263 C62.8765307,24.0468467 61.6592732,24.0884305 60.4466975,24.1715979 C58.1151813,24.3194512 55.7883468,24.6059169 53.4896029,24.9986521 C52.7826572,25.1234033 52.5813416,25.6963347 52.6983856,26.2323028 C52.3706624,26.4032581 52.0991203,26.6712422 52.0991203,27.1471449 C52.066348,31.3193792 52.0335757,35.5008543 52.0008034,39.6730886 C51.9914399,40.5833102 52.047621,41.5120136 53.0635628,41.8585446 C53.8688254,42.1311491 55.006493,41.9324713 55.8445279,41.895508 C57.9560015,41.7984792 60.067475,41.5766994 62.1555397,41.2486499 C63.045074,41.1054171 63.9392901,40.9390822 64.8194609,40.7542656 C65.7979486,40.5509673 66.9449797,40.4123549 67.8485592,39.9687951 C69.7259448,39.0354714 68.7849111,36.8084316 68.6070043,35.2143886 C68.3682345,33.1259612 68.340144,31.0144318 68.5227326,28.9260045" id="Fill-48" fill="#411E15"></path>
            <path d="M64.4964667,29.5952769 C63.8861291,28.7957467 62.6654539,29.0228322 61.7942086,29.0512178 C60.9695539,29.0796035 60.1402402,29.1174511 59.3202447,29.1742225 C58.9708147,29.1978772 58.6726345,29.3871152 58.4489994,29.6520482 C58.3464999,29.6189316 58.2719549,29.5195817 58.1647963,29.5243126 C57.5358225,29.5574293 56.9953708,30.0494479 57,30.7070497 C57.009348,32.1831054 57.0605978,33.6686231 57.2516195,35.1304861 C57.358778,35.9110925 57.7501395,36.772125 58.5841123,36.956632 C59.3901306,37.136408 60.2147853,36.7153536 60.9648949,36.4598824 C61.6358003,36.2327969 62.3020468,36.0104424 62.9682932,35.7880878 C63.2664734,35.684007 63.5739717,35.594119 63.8628338,35.4758453 C64.4032854,35.2629526 64.8132832,34.8844768 64.9530552,34.2883773 C65.0369184,33.9099015 64.9856686,33.5077709 64.9716914,33.1245641 C64.9577142,32.7508192 64.939078,32.3770743 64.9204417,32.0080604 C64.8878283,31.217992 64.9903277,30.2528786 64.4964667,29.5952769" id="Fill-50" fill="#411E15"></path>
        </g>
    </g>
</svg>