<?xml version="1.0" encoding="utf-8"?>
<!-- Generator: Adobe Illustrator 26.0.1, SVG Export Plug-In . SVG Version: 6.00 Build 0)  -->
<svg version="1.1" id="Layer_1" xmlns="http://www.w3.org/2000/svg" xmlns:xlink="http://www.w3.org/1999/xlink" x="0px" y="0px"
	 viewBox="0 0 48 48" style="enable-background:new 0 0 48 48;" xml:space="preserve">
<style type="text/css">
	.st0{fill:#57AB00;}
	.st1{filter:url(#Adobe_OpacityMaskFilter);}
	.st2{fill-rule:evenodd;clip-rule:evenodd;fill:#FFFFFF;}
	.st3{mask:url(#b_00000162337186514650276120000017683184719597174920_);}
	.st4{fill-rule:evenodd;clip-rule:evenodd;fill:#57AB00;}
</style>
<g>
	<g>
		<path id="a_00000128470557863438299220000015574025557670618004_" class="st0" d="M24,22c2.8,0,5-2.2,5-5s-2.2-5-5-5s-5,2.2-5,5
			S21.2,22,24,22z M24,24c-3.9,0-7-3.1-7-7s3.1-7,7-7s7,3.1,7,7S27.9,24,24,24z M32.7,33.4C31.7,30.3,28,28,24,28
			c-4,0-7.7,2.3-8.7,5.4c-0.6,1.9,0,2.6,1.3,2.6h14.8C32.8,36,33.4,35.3,32.7,33.4z M34.7,33.3c1.1,3.5-0.8,4.7-2.6,4.7H15.9
			c-1.7,0-3.7-1.2-2.6-4.7C14.7,29,19.2,26,24,26C28.8,26,33.3,29,34.7,33.3L34.7,33.3z"/>
	</g>
	<defs>
		<filter id="Adobe_OpacityMaskFilter" filterUnits="userSpaceOnUse" x="0" y="0" width="48" height="48">
			<feColorMatrix  type="matrix" values="1 0 0 0 0  0 1 0 0 0  0 0 1 0 0  0 0 0 1 0"/>
		</filter>
	</defs>
	<mask maskUnits="userSpaceOnUse" x="0" y="0" width="48" height="48" id="b_00000162337186514650276120000017683184719597174920_">
		<g class="st1">
			<path id="a_00000094611201615350351060000010810416889305449604_" class="st2" d="M24,22c2.8,0,5-2.2,5-5s-2.2-5-5-5s-5,2.2-5,5
				S21.2,22,24,22z M24,24c-3.9,0-7-3.1-7-7s3.1-7,7-7s7,3.1,7,7S27.9,24,24,24z M32.7,33.4C31.7,30.3,28,28,24,28
				c-4,0-7.7,2.3-8.7,5.4c-0.6,1.9,0,2.6,1.3,2.6h14.8C32.8,36,33.4,35.3,32.7,33.4z M34.7,33.3c1.1,3.5-0.8,4.7-2.6,4.7H15.9
				c-1.7,0-3.7-1.2-2.6-4.7C14.7,29,19.2,26,24,26C28.8,26,33.3,29,34.7,33.3L34.7,33.3z"/>
		</g>
	</mask>
	<g class="st3">
		<path class="st4" d="M0,0h48v48H0V0z"/>
	</g>
</g>
</svg>
