<?xml version="1.0" encoding="utf-8"?>
<!-- Generator: Adobe Illustrator 26.0.1, SVG Export Plug-In . SVG Version: 6.00 Build 0)  -->
<svg version="1.1" id="Layer_1" xmlns="http://www.w3.org/2000/svg" xmlns:xlink="http://www.w3.org/1999/xlink" x="0px" y="0px"
	 viewBox="0 0 24 24" style="enable-background:new 0 0 24 24;" xml:space="preserve">
<style type="text/css">
	.st0{fill-rule:evenodd;clip-rule:evenodd;fill:#0C0C0C;}
</style>
<g transform="translate(5 5)">
	<path id="a" class="st0" d="M14.4,13.5H6.3c-0.7,0-1.3-0.6-1.3-1.4c0-0.7,0.6-1.3,1.3-1.3h8.2l-3.4-3.4c-0.5-0.6-0.5-1.5,0-2
		c0.5-0.5,1.4-0.5,2,0l5.5,5.5c0.3,0.3,0.5,0.8,0.4,1.2c0.1,0.4-0.1,0.9-0.4,1.2l-5.5,5.5c-0.6,0.5-1.5,0.5-2,0
		c-0.5-0.5-0.5-1.4,0-2L14.4,13.5L14.4,13.5z"/>
</g>
</svg>
