<svg xmlns="http://www.w3.org/2000/svg" width="506" height="190" viewBox="0 0 506 190">
    <path fill="#451400" fill-rule="evenodd" d="M292.435 139.187c8.116-3.95 14.344 2.659 17.323 9.545 4.215 9.745 4.908 36.393 5.232 39.463.1.95-.562 1.762-1.467 1.805l-6.46-.13c-.742.034-1.392-.58-1.44-1.358-.21-3.345-.724-11.639-.86-14.426-.026-.562-.487-1.007-1.021-.99-3.176.1-13.08.419-13.862.506-.04.338-1.882 11.098-2.532 14.887-.132.77-.747 1.323-1.5 1.345-2.11.062-4.976.161-6.744.046-.68-.044-1.19-.702-1.092-1.401.69-4.866 3.185-21.807 4.839-30.172 1.44-7.285 2.19-15.52 9.584-19.12zm139.496 50.744c-5.532-.954-5.156-9.445.691-8.906 6.914.636 4.84 9.86-.691 8.906zm-187.578-50.927c.858-.01 1.73-.017 2.553.198.823.217 1.607.693 1.947 1.406.041.087.076.176.104.266.162.515-.178 3.484-.306 5.103-.121 1.534-1.047 2.194-2.9 2.432-.49.063-.988.072-1.483.056-5.118-.152-4.03-.089-9.141.191-1.686.092-1.198 1.8-1.297 2.893-.038.43-.076 5.331-.091 6.865-.004.385.344.697.769.685 1.595-.042 2.32-.132 4.346-.136 1.359-.004 3.484-.282 4.537.605.805.678.337 4.713.31 7.122-.014 1.142-1.032 2.064-2.294 2.076l-6.942.094c-.673.007-1.224.484-1.26 1.092-.127 2.103.248 18.934-1.043 19.65-1.232.683.257.316-6.581.148-1.462-.036-2.614-1.136-2.58-2.46l1.192-46.178c.03-1.168 1.093-2.095 2.382-2.075 3.16.05 8.581.127 10.062.112 4.644-.049 3.072-.097 7.716-.145zm18.09-1.004c.675-.003 1.207.562 1.187 1.263-.124 4.369-.531 18.922-.677 26.476-.082 4.25.177 9.135.21 13.422.007.677.554 1.215 1.206 1.186 2.362-.107 6.422.092 9.2.13.796.01 1.431.683 1.431 1.508l-.438 6.263c-.067.947-.815 1.684-1.729 1.698-4.549.068-15.414.103-19.413-.089-.798-.038-1.42-.72-1.42-1.548v-8.089c.016-4.386.835-34.467 1.014-40.983.02-.693.567-1.243 1.235-1.234 2.06.025 6.15.009 8.194-.003zm-73.928 1c.679-.004 1.213.558 1.193 1.255-.125 4.342.35 17.405.204 24.912-.083 4.224.615 9.8.65 14.06.005.675.555 1.208 1.21 1.18 2.373-.106 7 .092 9.79.129.8.01 1.438.679 1.438 1.5l-.44 6.222c-.067.943-.819 1.675-1.737 1.688-4.57.068-16.035.103-20.053-.088-.801-.038-1.427-.714-1.427-1.538v-8.186c-.02-4.817-.48-33.497-.302-39.905.019-.69.57-1.234 1.24-1.227 2.071.027 6.18.01 8.234-.002zm152.701-2l5.944.593c.866-.023 1.657.357 2.204 1.026.583.711.753 1.683.56 2.589-.657 3.078-2.016 8.597-3.586 14.973-2.037 8.274-4.347 17.653-5.515 23.36-.359 1.751-.766 3.736-1.393 5.663-.305.94-.698 1.904-1.505 2.598-.848.732-1.901.948-2.819 1.062-.719.09-1.584.136-2.437.136-.657 0-1.306-.027-1.875-.082-.914-.09-1.974-.258-2.911-.83-1.723-1.055-2.44-3.113-2.913-4.475-1.54-4.416-4.816-16.574-7.708-27.301-1.664-6.17-3.236-12.004-4.125-15.028-.229-.777-.18-1.627.218-2.33.487-.856 1.342-1.385 2.296-1.416 2.012-.067 4.065-.04 5.465-.006 1.054.026 1.975.724 2.307 1.749 1.728 5.333 6.316 24.211 8.408 31.885.159.586.983.545 1.077-.054 1.253-7.919 5.362-30.286 5.52-31.513.187-1.427 1.343-2.52 2.75-2.598l.038-.001zm-189.387 3.26c8.127-3.67 13.035 1.211 16.097 7.816 4.336 9.347 6.7 36.248 7.061 39.192.113.911-.54 1.69-1.444 1.732l-6.462-.125c-.742.034-1.4-.555-1.458-1.302-.25-3.209-.866-10.496-1.035-13.169-.035-.539-.5-.967-1.035-.95-3.174.097-13.075-.267-13.857-.184-.034.324-1.746 10.646-2.35 14.28-.122.74-.73 1.269-1.483 1.29-2.11.06-4.974.155-6.744.044-.68-.04-1.199-.674-1.109-1.343.63-4.667 2.917-20.918 4.469-28.942 1.35-6.988 3.439-15.67 9.35-18.34zm-79.343-.776c5-.334 24.676-2.717 29.205 7.305 3.48 7.699-3.52 13.182-5.952 15.021-.332.251-.313.806.038 1.026 1.277.797 3.773 3.377 5.612 6.95 2.026 3.931 2.699 13.502 2.602 17.42-.023.957-.73 1.715-1.594 1.715h-5.861c-.69 0-1.248-.613-1.256-1.376-.03-3.346-1.026-11.932-3.388-15.901-1.414-2.374-3.42-4.274-6.092-4.952-1.572-.4-4.076-.683-5.58-.313-.916.225-.586 1.63-.605 2.669-.087 4.677-.383 14.188-.51 18.153-.032 1.006-.777 1.799-1.686 1.799h-6.136c-.66 0-1.188-.602-1.166-1.33.206-6.982-.2-39.305-.101-45.633.023-1.47 1.143-2.464 2.47-2.553zm319.376-.99c4.965-.341 23.136-2.772 27.815 7.451 3.594 7.853-3.257 14.134-5.643 16.01-.326.256-.296.821.056 1.044 1.284.815 3.798 2.758 5.691 6.402 2.084 4.011 2.243 13.773 2.217 17.77-.008.975-.697 1.75-1.556 1.75h-5.828c-.685 0-1.252-.626-1.272-1.404-.088-3.414-.554-12.171-2.973-16.22-1.446-2.421-3.476-4.359-6.144-5.051-1.57-.407-3.072-.172-4.562.206-.906.229-1.545 1.139-1.546 2.197-.004 4.772-.132 14.473-.187 18.517-.015 1.025-.742 1.834-1.647 1.834h-6.1c-.655 0-1.192-.613-1.183-1.357.08-6.891.44-37.99.451-45.839v-.706c-.003-1.5 1.093-2.513 2.41-2.604zm-24.192-1.487c10.088-.31 15.601 9.836 16.932 14.398 1.59 5.462 1.657 11.163 1.025 16.643-.626 5.42-3.959 20.653-16.062 20.946-18.518.448-23.763-24.682-16.278-41.483 3.612-8.108 11.69-10.422 14.383-10.504zm-237.42 1.997c.872-.01 1.76-.016 2.599.196.837.211 1.635.678 1.981 1.376.043.086.078.174.107.262.163.505-.181 3.414-.312 5.002-.123 1.504-1.066 2.152-2.952 2.385-.5.061-1.006.07-1.51.055-5.21-.149-5.614-.087-10.818.187-1.716.09-1.22 1.765-1.32 2.837-.04.42-.078 5.226-.094 6.73-.004.378.35.683.783.672 1.625-.042 5.361-.13 7.424-.134 1.383-.004 3.546-.277 4.618.592.82.665.343 4.621.315 6.983-.014 1.12-1.05 2.023-2.335 2.036l-10.065.09c-.684.008-1.246.476-1.283 1.071-.129 2.062-.427 7.118-.547 9.525-.027.559.485 1.022 1.127 1.016 4.198-.038 15.582-.73 16.539.18 1.128 1.074.144 7.842-1.171 8.545-1.254.67-16.748.308-23.709.145-1.488-.036-2.661-1.115-2.626-2.413l1.213-45.272c.031-1.144 1.113-2.052 2.426-2.034 3.215.05 8.735.125 10.243.11 4.727-.048 4.638-.095 9.366-.142zm240.931 9.125c-2.663-1.945-5.14-.511-6.787 1.683-2.369 3.152-3.716 7.028-4.308 11.014-.407 2.739-.54 16.267 5.054 17.368 5.297 1.042 8.328-4.086 9.296-6.895.232-.673.433-1.345.612-1.995 1.01-3.689 1.233-7.672.69-11.521-.355-2.514-1.041-5.045-2.411-7.239-.573-.917-1.272-1.778-2.146-2.415zm-72.777.59c-3.168-.321-4.74 4.226-5.53 6.408-.782 2.16-1.411 6.033-1.708 8.076-.1.686.442 1.318 1.107 1.288 2.325-.105 7.305-.325 10.896-.447.852-.03 1.465-.815 1.332-1.705-.26-1.744-.576-3.483-.973-5.224-.589-2.572-1.519-8.028-5.124-8.395zm-140.654.702c-2.959-.417-4.54 3.891-5.333 5.956-.785 2.046-1.466 5.738-1.791 7.687-.11.654.383 1.279 1.006 1.273 2.18-.021 6.85-.063 10.217-.056.798 0 1.392-.732 1.288-1.59-.202-1.682-.456-3.36-.787-5.044-.49-2.486-1.231-7.75-4.6-8.226zm-77.376-3.07c-.468-.046-.832.41-.818 1.017.06 2.756.183 7.42.236 9.96.016.773.574 1.406 1.152 1.303 3.443-.612 13.51-.561 12.22-7.312-1.021-5.338-10.022-4.71-12.79-4.969zm330.905 2.718c-1.292-5.258-9.91-4.3-12.655-4.294-.464 0-.828.503-.82 1.123.041 2.811.125 8.833.16 11.426.01.788.56 1.38 1.134 1.218 3.42-.964 13.46-4.264 12.18-9.473zM207.246 70.042c2.532-.558 7.102-1.333 11.67-.93 9.036.795 15.084 6.407 15.084 13.461 0 7.134-2.293 12.084-6.957 13.51-4.663 1.426-8.18 1.426-10.544 1.41-2.364-.017-2.147.616-2.262 2.139-.115 1.522.498 18.441.233 19.986-.264 1.545-3.467 1.309-3.634 1.382-3.04-.06-5.734-.075-5.81-1.651-.077-1.576.03-38.582.173-47.025.019-1.081.855-2.019 2.047-2.282zm106.923 0c2.445-.558 6.857-1.333 11.267-.93C334.16 69.906 340 75.518 340 82.572c0 7.134-2.215 12.084-6.718 13.51-4.502 1.426-7.897 1.426-10.18 1.41-2.283-.017-2.072.616-2.184 2.139-.11 1.522.481 18.441.226 19.986-.256 1.545-3.348 1.309-3.51 1.382-2.934-.06-5.536-.075-5.61-1.651-.073-1.576.03-38.582.168-47.025.018-1.081.825-2.019 1.977-2.282zM61.348 69c.936 0 1.887.035 2.838.112 9.745.787 16.033 7.221 16.032 12.7 0 5.349-3.631 8.79-8.637 10.934 2.366.678 5.703 1.756 7.833 5.189 3.881 6.256 3.92 21.938 3.273 22.303-.913.516-10.158 1.273-10.198-.147-.041-1.42-.153-11.925-1.447-16.194-1.293-4.27-5.959-5.689-10.132-5.828-.975-.037-1.776.596-1.765 1.389.047 3.539.34 15.27.298 17.158-.01.477-.043 1.008-.055 1.555-.331 1.7-1.055 2.656-2.64 2.788-1.584.133-5.836-.007-7.155-1.172-1.117-.988-.342-39.087-.19-47.484.022-1.074.92-2.005 2.207-2.265C53.81 69.59 57.442 69 61.348 69zm210.171 1.136c.434 1.76 1.474 32.136-2.098 40.38-3.514 8.09-8.059 10.535-14.14 10.483-9.963-.083-15.481-9.816-16.83-14.373-.93-3.137-1.359-6.354-1.445-9.563-.063-2.366.369-24.432.584-26.706.132-1.388 10.115-1.103 10.302.146.187 1.25-.649 25.237.936 33.16.702 3.51 2.036 4.568 2.906 5.208 2.643 1.938 6.747.367 8.547-3.007 1.844-3.454 1.863-33.81 1.801-35.434-.062-1.624 9.003-2.053 9.437-.294zM396.552 69c10.91 0 13.74 10.159 14.428 14.093.139.798-.464 1.527-1.253 1.526l-5.15-.006c-.805.003-1.566-.663-1.735-1.473-.685-3.299-4.655-9.044-8.187-5.599-3.725 3.634 7.337 14.458 11.57 20.008.753.989 1.449 2.036 2.054 3.135 1.098 1.99 1.898 4.146 2.213 6.412.489 3.515-.384 7.237-2.556 9.974-4.517 5.693-26.712 7.957-26.935-12.873-.003-.262.003-.605.012-.952.022-.819.693-1.46 1.49-1.429l5.684.225c.589.022 1.123.355 1.408.884 1.343 2.497 2.475 9.829 9.018 8.517 2.758-.554.896-7.62-4.389-15.073-4.061-5.728-8.665-10.042-9.648-14.716C383.616 77.09 385.84 69 396.552 69zm-36.828.118c10.075-1.29 15.963 8.307 17.46 12.734 1.792 5.3 2.07 10.987 1.636 16.522-.427 5.475-3.198 21.013-15.292 22.482-18.5 2.248-24.67-22.34-17.801-39.849 3.315-8.449 11.306-11.545 13.997-11.889zM287.348 69c.936 0 1.887.035 2.84.112 9.743.787 16.031 7.221 16.029 12.7 0 5.349-3.63 8.79-8.637 10.934 2.367.678 5.704 1.756 7.834 5.189 3.881 6.256 3.92 21.938 3.273 22.303-.913.516-10.158 1.273-10.198-.147-.041-1.42-.152-11.925-1.446-16.194-1.294-4.27-5.96-5.689-10.132-5.828-.976-.037-1.777.596-1.765 1.389.046 3.539.338 15.27.297 17.158-.01.477-.042 1.008-.054 1.555-.332 1.7-1.056 2.656-2.64 2.788-1.584.133-5.836-.007-7.155-1.172-1.118-.988-.342-39.087-.19-47.484.021-1.074.92-2.005 2.206-2.265 2.201-.449 5.833-1.038 9.738-1.038zm-117.703 1c.689-.004 1.23.558 1.21 1.255-.126 4.342-.541 18.126-.69 25.633-.083 4.224.181 9.08.216 13.34.006.674.563 1.207 1.228 1.178 2.408-.105 7.1.093 9.932.13.81.01 1.459.679 1.459 1.5l-.447 6.222c-.068.943-.83 1.675-1.763 1.688-4.636.068-16.266.103-20.342-.088-.814-.038-1.448-.714-1.448-1.538v-8.042c.017-4.355.851-33.574 1.034-40.05.02-.688.577-1.234 1.259-1.225 2.1.026 6.269.008 8.352-.003zm-45.208 10.28c3.186-6.626 9.554-12.866 17.613-9.184 5.862 2.678 7.79 11.39 9.011 18.401 1.402 8.051 3.388 24.356 3.931 29.039.079.672-.452 1.307-1.133 1.348-1.772.111-4.635.016-6.745-.044-.751-.022-1.35-.552-1.459-1.295-.536-3.646-2.056-14.002-2.084-14.328-.78-.083-10.676-.39-13.85-.487-.534-.015-1.008.412-1.052.954-.22 2.682-.983 10.665-1.293 13.884-.072.75-.741 1.34-1.482 1.307l-6.465.125c-.904-.042-1.541-.823-1.412-1.737.416-2.955 1.91-28.603 6.42-37.982zm313.136-10.277c.864-.008 1.741-.015 2.577.197.835.212 1.635.678 1.996 1.377.043.085.08.173.111.26.175.505-.094 3.416-.184 5.003-.086 1.504-1.002 2.153-2.863 2.385-.493.061-.994.07-1.494.056-5.16-.15-6.295-.088-11.438.186-1.697.09-1.163 1.765-1.236 2.837-.029.42.052 5.227.074 6.73.007.378.364.682.793.672 1.605-.041 5.3-.13 7.342-.134 1.369-.003 3.504-.277 4.586.593.827.664.454 4.62.484 6.982.014 1.12-.988 2.024-2.259 2.035l-9.96.092c-.678.007-1.221.474-1.243 1.071-.077 2.062-.246 7.117-.305 9.523-.014.56.504 1.022 1.14 1.017 4.154-.038 16.789-.73 17.759.18 1.142 1.074.337 7.842-.948 8.545-1.224.67-17.953.308-24.846.145-1.473-.036-2.661-1.114-2.659-2.413l.079-45.271c.001-1.145 1.05-2.054 2.349-2.034 3.184.047 8.65.124 10.141.11 4.677-.048 5.326-.095 10.004-.144zm-328.625 0c.871-.009 1.759-.016 2.603.197.844.211 1.655.678 2.023 1.377.045.085.082.172.113.26.179.505-.08 3.416-.163 5.003-.08 1.503-1.003 2.153-2.88 2.384-.498.063-1.004.07-1.509.056-5.213-.15-6.597-.088-11.79.187-1.714.09-1.167 1.765-1.236 2.837-.027.42.077 5.226.106 6.73.007.378.37.682.803.672 1.622-.042 5.354-.13 7.415-.134 1.383-.004 3.538-.277 4.634.592.839.665.48 4.621.522 6.983.019 1.12-.99 2.024-2.274 2.036l-10.059.092c-.684.006-1.23.473-1.25 1.07-.068 2.062-.217 7.117-.265 9.523-.011.56.515 1.022 1.157 1.016 4.194-.037 15.553-.73 16.537.181 1.16 1.074.376 7.843-.917 8.545-1.234.67-16.733.309-23.695.145-1.49-.036-2.694-1.114-2.698-2.413L86 72.071c-.003-1.146 1.052-2.054 2.364-2.034 3.216.047 8.736.124 10.242.11 4.724-.048 5.618-.096 10.342-.143zm343.983 49.928c-5.532-.954-5.156-9.445.691-8.906 6.914.636 4.84 9.86-.691 8.906zm-89.287-40.046c-2.735-1.683-5.159-.01-6.726 2.34-2.252 3.379-3.457 7.382-3.903 11.42-.306 2.775.058 16.3 5.692 16.855 5.335.526 8.178-4.89 9.043-7.79.208-.695.382-1.386.538-2.053.875-3.782.95-7.782.267-11.573-.447-2.476-1.226-4.937-2.677-6.995-.607-.86-1.337-1.652-2.234-2.204zm-227.631.372l-.219.014c-3.617.353-4.278 4.998-4.944 7.473-.45 1.676-.579 3.956-.892 5.635-.16.856.43 1.612 1.281 1.64 3.588.117 7.89.33 10.212.43.664.03 1.225-.579 1.146-1.24-.235-1.966-.747-5.693-1.465-7.772-.724-2.1-2.16-6.477-5.338-6.166zm80.426-2.88c-.864-.015-1.577.565-1.613 1.28-.169 3.383-.32 6.769-.435 10.155-.025.718.761 1.084 1.624 1.109 7.74.232 9.558-3.946 8.964-7.723-.552-3.508-4.787-4.753-8.54-4.821zm106.606 0c-.834-.015-1.523.565-1.557 1.28-.164 3.383-.31 6.769-.421 10.155-.024.718.734 1.084 1.568 1.109 7.474.232 9.23-3.946 8.655-7.723-.533-3.508-4.622-4.753-8.245-4.821zm-261.69-.328c-.932-.013-1.701.494-1.74 1.116-.18 2.96-.346 5.92-.47 8.88-.024.558.659.988 1.455.988.097 0 .195-.004.293-.017 4.858-.66 9.628-3.534 8.984-6.835-.598-3.068-4.477-4.073-8.523-4.132zm226 0c-.932-.013-1.701.494-1.742 1.116-.178 2.96-.344 5.92-.467 8.88-.025.558.658.988 1.455.988.097 0 .194-.004.292-.017 4.857-.66 9.628-3.534 8.984-6.835-.598-3.068-4.477-4.073-8.523-4.132zM478.653 1c10.92.003 11.17 6.856 12.236 9.512.439 1.091-.346 2.286-1.498 2.29l-5.925.026c-.43.002-3.638-5.59-7.24-2.265C472.18 14.3 484.2 24 488.515 29.55c.769.99 1.477 2.037 2.095 3.136 1.119 1.99 1.934 4.145 2.256 6.41.497 3.516-.391 7.239-2.606 9.975-4.605 5.694-27.983 7.957-28.21-12.872-.009-.818-.143-1.65.07-2.438.534-1.98 4.615-1.65 6.893-1.303.922.141 2.098.666 2.1 1.619.014 5.525 5.35 10.708 9.346 8.973 6.376-2.77-.998-10.61-2.863-12.237-5.098-4.448-11.581-9.597-12.122-17.226-.242-3.411 2.261-12.588 13.18-12.586zm-283.638.206c.346-.486 8.21-.224 8.461 2.008.318 2.811.551 21.13.52 27.386-.01 2.297-.105 8.55-.123 9.381-.043 2.014-.1 6.858-.129 9.53-.011 1.036-.702 1.874-1.568 1.908 0 0-6.076 1.082-7.525.293-1.45-.789-14.418-26.484-14.418-26.484-.294-.54-.994-.295-1 .348l-.194 23.802c-.011 1.292-.891 2.334-1.972 2.334h-4.903c-1.217 0-2.195-1.2-2.164-2.654l.371-46.475c.008-.867.612-1.557 1.337-1.525l5.49-.042c1.328-.01 2.56.821 3.237 2.186 2.952 5.941 10.488 21.215 13.062 25.889.232.422.78.226.782-.28.011-2.872.033-8.822.041-13.127.006-2.617.029-5.234.07-7.852.022-1.308.069-2.618.077-3.926.007-1.022-.057-1.85.548-2.7zM119.646 1c.688-.004 1.23.558 1.21 1.254-.127 4.342-.542 18.127-.69 25.635-.084 4.223.18 9.079.215 13.339.006.674.563 1.207 1.228 1.178 2.408-.105 7.1.093 9.933.13.81.01 1.458.679 1.458 1.499l-.447 6.224c-.068.941-.83 1.674-1.763 1.687-4.636.068-16.266.103-20.342-.088-.814-.038-1.448-.715-1.448-1.538v-8.043c.017-4.354.851-33.573 1.034-40.049.02-.689.577-1.234 1.259-1.226 2.1.026 6.269.01 8.352-.002zm267.315.003c.745-.008 1.503-.015 2.219.2.715.216 1.396.693 1.692 1.405.037.087.067.176.09.267.141.514-.153 3.483-.265 5.102-.107 1.534-.91 2.195-2.521 2.432-.426.063-.858.072-1.289.057-4.449-.153-8.904-.09-13.347.19-1.466.093-1.041 1.8-1.127 2.894-.033.43-.066 5.331-.08 6.864-.004.386.3.696.669.685 1.387-.041 4.576-.132 6.337-.136 1.18-.003 3.03-.282 3.943.605.7.678.293 4.713.269 7.122-.012 1.142-.896 2.064-1.993 2.076l-8.594.094c-.584.007-1.063.484-1.096 1.091-.108 2.104-.364 7.26-.465 9.715-.025.57.413 1.043.96 1.036 3.585-.038 15.572-.745 16.39.184.961 1.095.122 8-1 8.716-1.07.683-16.567.315-22.509.148-1.271-.036-2.273-1.137-2.243-2.46l1.036-46.178c.026-1.168.95-2.095 2.07-2.075 2.746.05 7.458.128 8.746.112l12.108-.146zm-169.416 1.48c7.55-4.97 23.442-2.777 24.438 9.298.049.587.01 1.934-.332 2.442-.315.47-4.811.106-7.27.268-.851.056-1.604-.445-1.78-1.172-.358-1.48-1.344-3.795-4.029-4.323-2.963-.582-6.693.78-8.165 3.982-2.964 6.452-2.462 29.202 4.56 29.654 5.617.362 5.6-8.797 5.674-11.464-1.014-.001-2.834.1-4.155.182-.847.053-1.551-.555-1.502-1.293.108-1.605.162-4.075.187-5.647.014-.834.767-1.51 1.724-1.546 2.786-.104 8.23-.32 10.491-.51.66-.056 1.349-.108 1.968.101.32.108.596.28.83.493.403.367.677.858.81 1.357.21.79.13 1.613.065 2.422-.265 3.31-.222 6.639-.672 9.933-.45 3.294-1.428 6.604-3.543 9.364-2.012 2.625-5.06 4.67-8.548 5.53-3.487.858-7.393.482-10.483-1.167-2.528-1.349-4.431-3.473-5.685-5.812-1.3-2.424-1.945-5.079-2.336-7.73-.884-6-3.065-27.24 7.753-34.362zm201.47-1.277c.347-.486 8.21-.224 8.462 2.008.317 2.811.551 21.13.52 27.386-.01 2.297-.105 8.55-.123 9.381-.043 2.014-.1 6.858-.129 9.53-.01 1.036-.702 1.874-1.568 1.908 0 0-6.075 1.082-7.526.293-1.449-.789-14.417-26.484-14.417-26.484-.293-.54-.994-.295-1 .348l-.194 23.802c-.01 1.292-.89 2.334-1.972 2.334h-4.902c-1.217 0-2.196-1.2-2.165-2.654l.373-46.475c.006-.867.61-1.557 1.336-1.525l5.489-.042c1.329-.01 2.56.821 3.238 2.186 2.951 5.941 10.488 21.215 13.061 25.889.232.422.78.226.782-.28.012-2.872.033-8.822.041-13.127.005-2.617.029-5.234.07-7.852.021-1.308.069-2.618.078-3.926.006-1.022-.058-1.85.546-2.7zm-261.277-.035c1.548-.207 3.187-.259 4.74.03 1.472-.11 3.156.623 3.34 2.2.428 3.694-.036 7.254-.013 10.947.023 3.912.146 7.829.028 11.739-.225 7.5-.679 14.917-.635 22.429.006 1.03-.656 1.696-1.522 2.016-1.347 1.61-4.302 1.519-6.694 1.424-.784-.032-1.636-.34-2.006-.958-1.576-2.643-.815-5.883-.629-8.7.29-4.368.373-8.728.782-13.09.828-8.837-.55-17.919.987-26.687.103-.592.919-1.258 1.622-1.35zm193 0c1.548-.207 3.187-.259 4.739.03 1.473-.11 3.157.623 3.34 2.2.43 3.694-.034 7.254-.013 10.947.025 3.912.147 7.829.03 11.739-.225 7.5-.68 14.917-.636 22.429.006 1.03-.657 1.696-1.522 2.016-1.347 1.61-4.303 1.519-6.694 1.424-.783-.032-1.637-.34-2.006-.958-1.575-2.643-.816-5.883-.628-8.7.289-4.368.372-8.728.78-13.09.83-8.837-.548-17.919.987-26.687.104-.592.92-1.258 1.623-1.35zm-31.363-.161c1.64-.034 3.277.013 4.904.223 3.19.41 6.274 1.42 9.033 3.06 4.232 2.517 7.317 6.167 9.408 10.427 3.063 6.24 2.946 13.898.212 20.23-2.786 6.456-7.7 11.083-14.031 14.039-1.715.8-3.492 1.473-5.308 2.016-1.876.562-3.964 1.205-5.941.929-1.098-.154-2.189-.678-2.784-1.599-.463-.718-.586-1.593-.668-2.44-.406-4.17-.117-8.368.19-12.551l.132-1.793c.633-8.813.015-29.475.613-30.796.67-1.483 2.673-1.713 4.24-1.745zm181.71 50.221c-5.285-.944-4.927-9.34.66-8.808 6.606.63 4.624 9.75-.66 8.808zM248.704 1.485c4.965-.335 23.157-2.718 27.655 7.304 3.455 7.699-3.497 13.856-5.912 15.695-.33.252-.31.806.038 1.025 1.269.798 3.747 2.703 5.575 6.275 2.011 3.934 2.003 13.504 1.907 17.422-.024.956-.725 1.715-1.583 1.715h-5.821c-.685 0-1.24-.612-1.247-1.376-.03-3.347-.343-11.932-2.69-15.902-1.404-2.373-3.397-4.273-6.05-4.952-1.561-.398-3.066-.167-4.56.202-.91.225-1.564 1.117-1.583 2.155-.087 4.677-.38 14.188-.506 18.153-.033 1.006-.772 1.799-1.675 1.799h-6.094c-.655 0-1.18-.602-1.158-1.331.205-6.982 1.153-39.303 1.251-45.631.023-1.472 1.135-2.465 2.453-2.553zm-166.602.61c8.147-3.682 14.363 2.56 17.388 9.187 4.281 9.379 5.153 35.027 5.498 37.982.106.914-.55 1.696-1.455 1.736l-6.461-.125c-.742.033-1.397-.557-1.45-1.307-.231-3.219-.802-11.202-.956-13.884-.03-.54-.495-.969-1.03-.953-3.174.097-13.076.403-13.858.487-.036.325-1.808 10.682-2.432 14.328-.127.743-.738 1.273-1.49 1.294-2.11.06-4.976.156-6.745.045-.679-.042-1.195-.676-1.1-1.35.657-4.681 3.037-20.987 4.635-29.037 1.391-7.012 3.53-15.724 9.456-18.402zM461.496 1c.888 0 1.582.69 1.497 1.486 0 0-.043 4.5-.871 5.354-1.227 1.265-7.05 1.162-9.414 1.065-.555-.023-1.02.362-1.042.861-.24 5.46-1.467 33.781-1.436 39.744.009 1.695-5.402 1.725-8.982 1.165-1.577-.247-1.361-4.138-1.271-5.517.14-2.145.3-4.288.294-6.443-.025-8.387.686-23.976.885-28.173.028-.586-.48-1.06-1.131-1.062-2.556-.004-8.433-.062-9.31-.518-1.124-.584-.547-4.272-.697-6.072-.086-1.022.811-1.89 1.948-1.89zm-155.659.003c.762-.008 1.537-.015 2.272.196.734.212 1.437.679 1.75 1.378.038.085.069.172.096.26.15.505-.112 3.416-.203 5.003-.087 1.504-.9 2.152-2.544 2.385-.435.06-.876.07-1.316.055-4.552-.15-9.106-.087-13.644.187-1.497.09-1.04 1.765-1.112 2.837-.03.42.004 5.226.012 6.73.001.378.315.682.692.671 1.418-.041 4.678-.129 6.478-.134 1.207-.003 3.092-.276 4.04.593.725.665.364 4.62.371 6.983.004 1.12-.887 2.024-2.008 2.035l-8.785.092c-.598.007-1.081.474-1.105 1.07-.084 2.062-.274 7.117-.345 9.524-.016.56.438 1.023.998 1.016 3.664-.037 15.908-.73 16.757.18 1 1.074.235 7.843-.903 8.546-1.085.67-16.932.309-23.01.145-1.3-.036-2.34-1.114-2.328-2.414l.429-45.271c.01-1.145.942-2.053 2.088-2.034 2.808.049 7.628.125 8.943.11l12.377-.143zm-245.41 0c.843-.009 1.701-.016 2.512.196.81.212 1.582.678 1.916 1.378.041.085.075.172.103.26.158.505-.175 3.415-.301 5.003-.12 1.503-1.031 2.153-2.854 2.385-.483.06-.973.07-1.46.055-5.037-.15-6.377-.087-11.409.187-1.66.09-1.178 1.765-1.276 2.837-.038.42-.075 5.226-.09 6.73-.004.378.339.682.757.671 1.57-.04 5.182-.129 7.176-.133 1.337-.004 3.43-.277 4.465.593.792.664.332 4.62.304 6.981-.013 1.121-1.015 2.025-2.256 2.037l-9.732.091c-.661.007-1.203.475-1.239 1.07-.125 2.063-.414 7.118-.53 9.524-.026.56.47 1.023 1.09 1.017 4.059-.038 15.065-.73 15.99.18 1.09 1.073.139 7.842-1.132 8.545-1.213.67-16.192.309-22.92.144-1.44-.034-2.574-1.113-2.54-2.412L38.174 3.07c.03-1.146 1.075-2.054 2.345-2.034 3.108.047 8.444.124 9.902.109 4.57-.047 5.436-.095 10.005-.142zM3.69 1.633c4.947-.333 23.07-2.7 27.55 7.258 3.443 7.649-3.483 13.766-5.889 15.594-.329.25-.31.801.037 1.018 1.265.793 3.733 2.686 5.555 6.235 2.004 3.908 1.995 13.417 1.9 17.31-.023.95-.723 1.704-1.578 1.704h-5.799c-.682 0-1.235-.608-1.242-1.367-.03-3.325-.342-11.855-2.68-15.8-1.397-2.358-3.384-4.246-6.027-4.92-1.555-.395-3.054-.166-4.543.2-.906.224-1.558 1.11-1.577 2.141-.085 4.648-.379 14.097-.504 18.037-.032 1-.77 1.788-1.669 1.788h-6.07c-.653 0-1.176-.598-1.154-1.323.205-6.937 1.148-39.05 1.246-45.338.023-1.462 1.131-2.449 2.444-2.537zm321.264 7.066c-.565-.302-1.244.099-1.268.747l-1.181 31.185c-.01.931 1.032 1.476 1.766.92 3.283-2.486 12.094-8.548 12.626-16.926.57-8.994-8.788-14.242-11.943-15.926zM88.136 11.271c-3.17-.311-4.712 4.066-5.487 6.166-.768 2.079-1.37 5.807-1.653 7.773-.095.66.45 1.269 1.115 1.24 2.324-.102 7.304-.313 10.893-.431.852-.028 1.46-.784 1.32-1.64-.271-1.68-.598-3.353-1.008-5.03-.605-2.474-1.573-7.725-5.18-8.078zm-65.306.661c-1.194-5.121-9.787-4.188-12.518-4.182-.46 0-.833.489-.834 1.093-.008 2.739-.028 8.605-.039 11.13-.003.768.535 1.345 1.109 1.187 3.42-.939 13.466-4.154 12.282-9.228zm245.087-.08c-1.199-5.155-9.824-4.215-12.566-4.21-.463 0-.836.492-.837 1.1-.008 2.757-.029 8.661-.039 11.202-.003.773.536 1.354 1.113 1.195 3.432-.945 13.517-4.18 12.329-9.288z"/>
</svg>
