<svg xmlns="http://www.w3.org/2000/svg" xmlns:xlink="http://www.w3.org/1999/xlink" width="360" height="138" viewBox="0 0 360 138">
    <defs>
        <path id="prefix__a" d="M80.222 2.226C86.124.236 92.509.067 98.506 1.794c2.238.645 3.976 1.626 5.633 3.25.305.298.67.532.928.87.262.339.496.697.698 1.071.368.673.653 1.132.748 1.922l.218 1.843c.05.443.102.903-.026 1.333-.086.29-.255.553-.352.841-.14.41-.133.854-.214 1.28-.226 1.182-1.139 2.314-1.781 3.309-.225.348-.376.742-.618 1.068-.255.34-.434.744-.708 1.06-.277.32-.629.577-.924.874-.3.3-.694.487-1.012.764-.317.277-.584.61-.92.865-.337.253-.59.635-.94.866-.353.233-.76.384-1.125.593-.366.21-.765.358-1.14.547-.376.187-.756.374-1.141.541-.386.165-.734.44-1.129.587-1.938.722-4.15.967-6.17 1.403-.763.165-1.536.33-2.316.314-1.245-.026-2.436.112-3.667.108.307.278.68.483.948.782.293.324.434.766.694 1.1.267.344.548.665.786 1.019.24.36.498.702.714 1.074.218.37.354.784.552 1.166.64 1.236 1.235 2.296 1.685 3.635.913 2.694 2.651 5.834 4.778 7.754.329.297.708.533 1.072.796.356.257.769.422 1.16.645.38.214.755.437 1.17.614.419.181.798.446 1.221.587.43.144.895.15 1.33.261.436.111.859.283 1.297.37.442.088.895.108 1.34.177.443.074.868.285 1.315.344.444.064.906.002 1.352.064.447.06.891.135 1.337.203.445.068.89.14 1.332.223.442.081.845.336 1.283.442.439.101.91.06 1.341.193.459.139.8.463.968.851.177.408.214.917.047 1.32-.157.38-.554.554-1.046.676-.419.105-.802.384-1.235.461-.426.078-.865.104-1.301.154-.431.051-.875-.054-1.312-.028-.434.026-.863.063-1.302.067-.434.002-.865.012-1.301-.008-.437-.02-.883.124-1.318.084-.434-.042-.873-.086-1.303-.147-.433-.064-.848-.243-1.274-.329-.43-.083-.862-.157-1.28-.262-.427-.11-.838-.263-1.249-.392-.42-.131-.806-.348-1.21-.502-.389-.147-.78-.278-1.152-.447-.381-.173-.812-.233-1.173-.43-.368-.197-.633-.567-.98-.788-.352-.22-.835-.247-1.168-.493-.334-.247-.601-.59-.914-.86-.312-.272-.533-.645-.824-.941-2.043-2.075-3.189-4.353-4.255-7.09-1.042-2.67-1.838-5.761-3.458-8.131-.256-.372-.622-.69-.92-1.069-.284-.364-.498-.801-.818-1.152-.158-.172-.329-.333-.504-.49l-.529-.469c-.35-.314-.66-.694-1.038-.96-.23-.16-.482-.29-.733-.41-.15.336-.311.666-.449 1.006-.157.386-.186.824-.334 1.212-.151.39-.452.722-.596 1.112-.14.392-.108.846-.244 1.24-.137.394-.454.726-.583 1.122-.128.396-.25.796-.374 1.194-.122.398-.26.794-.378 1.194-.116.4.014.871-.096 1.273-.112.4-.344.768-.45 1.172-.102.39-.085.812-.165 1.21-.081.4-.323.766-.392 1.166-.07.402-.013.827-.084 1.225-.073.402-.323.766-.407 1.162-.089.4.06.86-.053 1.248-.116.392-.242.794-.4 1.168-.094.225-.387.575-.44.967-.08.599-.037 1.152-.14.88-.167-.45-1.036.721-.996.473.039-.247-.588.16-.582.028.005-.136-.297.236-.337.02-.037-.217-.466.03-.55.005-.142-.037-.283-.622-.419-.682-.132-.062-.558.292-.68.21-.278-.186-.11-1.229-.372-1.014-.41.336-.043-.609-.104-.794-.122-.37.043-.91.137-1.37.087-.426.018-.886.11-1.314.093-.426.286-.83.382-1.255.1-.424.179-.854.283-1.278.106-.424.156-.861.268-1.283.11-.422.232-.842.35-1.264.116-.42.314-.815.436-1.235.124-.418.195-.852.325-1.27.127-.415.28-.825.414-1.24.136-.415.354-.8.494-1.213.141-.414.216-.847.364-1.257.147-.414.163-.874.316-1.282.154-.408.47-.752.63-1.158.159-.408.283-.825.448-1.227.163-.396.297-.802.464-1.192-.061-.016-.124-.028-.185-.046-.423-.123-.77-.485-1.186-.629-.405-.14-.721-.324-1.036-.489-.36-.187-.722-.298-1.026-.52-.305-.222-.553-.513-.87-.771-.318-.265-.652-.593-.735-.967-.15-.21-.244-.436-.204-.685.021-.12.413-.179.273-.288-.098-.08.655.378.079-.22-.08-.08.299.043.14-.154-.048-.06.568.057.251-.265-.05-.054.02.03-.028-.086-.049-.115.207-.061.191-.147-.017-.087.207-.095.287-.125.163-.06.329.03.52.054.397.053.815-.07 1.209-.014.397.057.79.121 1.183.179.396.06.789.123 1.182.187.393.06.77.237 1.164.296.356.056.733-.03 1.093-.006.012-.02.024-.034.036-.053.214-.386.509-.723.735-1.103.224-.382.291-.857.529-1.23.234-.373.452-.763.698-1.13.246-.368.507-.726.763-1.086.252-.36.495-.732.759-1.088.261-.354.568-.679.837-1.029.268-.35.598-.65.874-.997.3-.376.562-.782.874-1.144.311-.364.573-.778.903-1.124.33-.348.7-.665 1.054-.987.352-.322.792-.539 1.174-.832 0 0 .017.046.035.03.39-.296.946-.29 1.156-.308.209-.02.134.219.282.183.147-.034.24.13.188.223-.05.093.195-.074.14.008-.055.083.37.155.381.326.008.11.128-.006.103.133-.028.142.377-.025.416.074.164.422-.16 1.158-.442 1.566-.244.354-.596.63-.84.98-.245.353-.422.753-.668 1.103-.248.35-.462.722-.708 1.073-.246.35-.667.577-.91.927-.244.352-.342.806-.584 1.158-.244.354-.439.738-.679 1.094-.238.354-.534.669-.77 1.027-.232.36-.604.63-.832.993-.228.362-.462.724-.684 1.092-.156.263-.315.525-.47.792.16.046.324.087.491.1.395.033.793.077 1.194.099.395.022.794.051 1.195.061.397.012.798-.199 1.2-.2.395 0 .792.051 1.193.035.413-.016.84.122 1.257.09.412-.032.806-.293 1.223-.34.41-.05.827-.048 1.24-.116.41-.067.856.04 1.263-.048.409-.087.774-.352 1.177-.46.403-.113.775-.306 1.168-.439.396-.135.866-.064 1.25-.223.386-.16.681-.525 1.05-.712.374-.19.844-.201 1.2-.42.356-.217.724-.442 1.058-.69.336-.249.555-.65.865-.931.309-.279.535-.635.818-.946.28-.308.523-.63.773-.973.25-.34.5-.696.735-1.088.225-.372.647-.652.834-1.054.187-.406.124-.908.248-1.324.476-1.605.64-2.371-.368-3.873-.255-.38-.515-.764-.857-1.069-.411-.368-.922-.597-1.426-.824-1.388-.62-2.847-1.367-4.337-1.703-.415-.095-.88.038-1.302-.034-.419-.07-.826-.242-1.252-.292-.423-.048-.862.068-1.288.04-.427-.028-.848-.058-1.276-.066-.427-.01-.854-.135-1.28-.125-.43.008-.852.107-1.277.133-.428.03-.849.101-1.27.147-.43.044-.88-.107-1.297-.044-.411.062-.79.307-1.194.396-.405.09-.786.243-1.186.36-.399.116-.812.172-1.203.31s-.838.134-1.223.291c-.385.154-.775.309-1.154.478-.38.167-.765.336-1.139.511-.257.124-.505.259-.757.394-.336.231-.627.547-.979.744-.138.074-.275.144-.415.215l-.12.074c-.247.135-.501.257-.75.382-.013.008-.026.014-.038.02-.142.087-.293.165-.443.239l-.03.017c-.215.134-.445.243-.675.357-.057.033-.116.065-.173.101-.313.213-.62.46-.938.66-.376.241-.329.584-.66.759-.111.057-.237.121-.367.17-.338.176-.778.365-1.124.174-.321-.18-.39-.64-.44-1.104-.044-.402-.01-.802.249-1.152.187-.253.419-.486.631-.687.183-.19.37-.366.527-.511.027-.024.051-.05.077-.076.074-.075.15-.147.224-.219.226-.232.452-.467.708-.658.37-.27.87-.342 1.262-.583.39-.24.804-.43 1.203-.649.405-.22.77-.507 1.172-.714.38-.197.734-.442 1.115-.627.382-.189.8-.298 1.186-.475.377-.173.786-.265 1.17-.424.108-.088.222-.17.348-.215.002-.002.004-.002.008-.002.241-.199.464-.446.743-.553.397-.153.883-.056 1.284-.19zM35.068 3.962c1.25-.274 2.403-.394 3.372-.29.966.1 1.397.34 1.638.443.242.102-.057.562.222.562.281 0 .224.565.41.513.188-.052.056.565.225.547.167-.016.055.717.242.631.186-.084.223.72.39.685.167-.036-.241.63 0 .545.242-.084.501.275.205.802-.299.53-.134.565-.338 1.06-.206.494.055.504-.222.93-.281.428-.503.205-.542.616-.038.409-.203.072-.165.363.037.29-.372 0-.354.34.02.343-.578.206-.595.513-.02.306-.486.018-.578.393-.092.376-.373.154-.69.512-.316.359-.558.223-1.116.257s-.614-.275-.26-.36c.355-.085.465-.443.24-.357-.221.084-.221-.12-.483-.052-.259.068-.131-.016.057-.341.185-.324-.206.307-.112-.29.093-.597.317-.668.596-.888.279-.222.51-.429.827-1.028.316-.597.216-.37.44-.883.224-.51-.261-1.126-.391-.956-.13.17-.354-.306-1.138.086-.781.393-1.265.223-1.954.736-.688.51-2.456.647-3.2 1.298-.745.647-2.03 1.108-2.793 1.723-.764.615-1.638 1.452-2.086 1.947-.419.465-.656.553-1.297 1.278 1.173-.353 2.315.154 3.261-.08.953-.238.185.338.855.188.668-.146 1.66.339 2.401.277.739-.064.208.422 1.222.254 1.016-.17 1.87.339 1.686.232-.187-.106.76.361.528.361-.232 0 .28.275-.114.317-.393.044.393.36 0 .432-.141.026-.159.044-.151.056-.031-.008-.098-.022-.242-.044-.552-.084.026.297-.507.297-.53 0-.6.084-1.2.148-.6.064-1.06.297-1.823.148-.763-.148-1.27.255-1.87.233-.6-.022-1.454.106-2.769.212-1.316.104-1.963-.022-2.908.317-.27.096-.89.202-1.642.298-1.725 1.905-3.539 3.915-3.753 4.195-.39.51-.632.735-1.915 2.304-1.285 1.57-1.658 1.879-2.627 3.568-.967 1.693-3.481 5.823-4.244 7.428-.764 1.607-1.825 3.161-2.403 5.14-.577 1.982-1.915 6.183-2.047 7.206-.13 1.026-.39.788-.353 1.4.037.616.149.666-.038 1.11-.186.445-.522.105-.707.48-.185.374-.633-.019-.67.272-.037.292-.652-.802-.67-.425-.014.279-.316.239-.485 0-.167-.24-.075.134-.372 0-.298-.138-.707-.292-.819-.753-.112-.46-.316-.597-.409-.99-.094-.392-.224.05-.241-.563-.02-.615-.224 0-.189-.921.038-.924.094-1.01.244-1.316.147-.307.055-.375.073-.992.02-.613-.018-.204.131-.99.15-.785.782-2.322 1.47-4.2.69-1.878.856-2.168 3.742-7.992 2.853-5.755 6.18-9.678 9.24-13.362-.5.038-1.27.242-1.563.204-.325-.042-.138.339-1.478.413-1.34.074-1.084-.094-1.5-.01-.415.084-.023-.34-.207-.318-.185.022.045-.381-.393-.297-.438.084.137-.423 0-.4-.14.02.021-.403-.14-.383-.16.022.116-.403-.208-.319 0 0 .348-.4.81-.549.461-.148.414-.064 1.615-.593 1.202-.529.878-.212 2.123-.783 1.248-.57.716.064 1.8-.359.817-.32 1.466-.158 2.24-.204 1.88-2.103 3.444-3.712 4.137-4.35 1.044-.955 3.743-3.142 5.474-4.216 1.73-1.078 2.664-1.523 3.648-2.083.989-.565 2.162-1.06 3.407-1.333zm122.25 2.29c.305-.596.227.317.19.877-.034.487.836-.737.609 0-.228.738.313.55.772.058.4-.431-.014.481-.178 1.113-.022.092.362-.3.321-.192-.184.467.786-.514.559.034-.228.55-.253.547.139.35.839-.419-.318.986-.28 1.547.037.562.382.385 0 .877-.38.491-.61.07-1.22 1.964-.607 1.895-8.682 16.066-9.139 16.732l-.103.16c-.343.563-.285.89-.355 1.244-.075.387-.531 1.857-.57 2.56-.04.702-.343 1.297-.153 2.068.192.772-.343.772-.038 1.578.304.807.077 1.088.19 1.613.114.528.724 1.192.724 1.192s.343.176 1.142.317c.8.14.19.421 1.106.315.915-.105.38.036 1.219-.034.837-.07.23.315 1.142.034.914-.28.228.35.647.072.42-.28.763 0 1.106-.072.343-.07.95-.105.572.491-.382.596-1.335.877-1.83 1.158-.495.28-2.094.702-3.123.876-1.029.175-3.161-.525-4.457-1.017-1.295-.491-1.599-1.857-2.208-2.385-.61-.525-.42-.98-.726-1.823-.303-.84-.15-1.439-.15-1.439s-1.03.739-2.172 1.86c-1.143 1.121-.647.455-1.525 1.121-.874.668-2.665.879-3.616 1.264-.952.385-1.066.491-2.02.56-.951.072-1.866.072-2.4-.35-.533-.42-1.332-.876-1.599-1.087-.266-.21-.456-.455-.535-1.053-.074-.596.116-1.191 0-.98-.113.21-1.103.91-2.132 1.823-1.027.91-1.6.806-2.552 1.087-.952.279-2.285.036-2.932.21-.649.175-1.905-.49-2.21-.631-.305-.14-.61-.911-.99-.807-.38.107-.647-.632-.61-1.087.04-.455-.15-.806-.15-.806s-.573.28-1.106.736c-.533.455-2.362 1.508-3.236 2.034-.872.526-2.44.666-3.889 1.474-1.446.805-5.483.77-6.144.466-.658-.305-.976-.8-1.926-.907-.955-.104-.386-.447-1.3-.798-.915-.35-.837-.516-1.18-1.216-.343-.702-.221-1.537-.372-1.29.002-.543-.292-1.324-.435-1.763-.145-.443-.386-.736-.418-1.918 0 0 .23-1.69 1.031-3.213.806-1.523 1.104-2.897 1.794-3.784.688-.888.848-.317 1.125-.953.274-.633.205-.443.987-1.119.78-.676.712-.995 1.492-1.205.782-.211.964-.444 1.47-.825.505-.381.758-.612 1.47-.72.98-.144 2.081-.16 3.055.01 1.51.26 3.03 2.11 3.426 3.294.288.86.145 2.066.182 2.967.03.754-.223 1.665-.805 2.264-.23.237-.721.33-.6.727.14.443-.529.57-.435.802.09.233-.368.148-.506.403-.139.253-.805.508-.78.612.022.106-1.242.317-1.31.445-.07.127-2.182.422-2.272.548-.092.128-1.355.022-1.586.255-.23.232-1.148.319-1.286.319-.137 0-.827-.067-.758.02.058.069-.41.081-.581.083l-.062.001c-.212 3.254 1.317 2.776 3.41 3.268 2.097.49 2.364-.036 4.116-.702 1.752-.666 3.542-1.928 4.798-2.77.325-.217.64-.404.93-.56.81-.438 1.467-1.094 1.8-1.902.073-.174.16-.355.267-.528.51-.83-.261-1.02 2.204-4.322.826-1.106 1.772-2.127 2.791-3.084.933-.88 1.186-1.522 2.919-2.501 3.433-1.944 6.085-.889 6.536-.576.16.113.333.227.533.259.204.032 1.397-.155 1.56-.287.306-.245.192-.245.649.14.115.097.762-.35.762-.35s.188 0 .38.806c.116.491.534.21.914-.21.382-.422.192.56.533.35.343-.21.382.351.762.105.38-.245.573-.14.42.387-.153.525-.383 1.647-.8 2.385-.42.736-.153.523-.496 1.68-.34 1.16-.42 1.405-.61 2.071-.19.666-1.103 1.717-1.522 2.373-.42.654-.837 1.66-1.41 3.412-.572 1.756-.113 3.298.914 3.298 1.029 0 .42-.455 2.4-1.334 1.98-.876 5.198-4.453 5.59-5.237.163-.325.72-3.716 1.711-6.241.99-2.524 3.38-7.653 5.77-11.468 1.964-3.138 4.373-5.182 5.02-6.34.646-1.157.533-.212.876-.667.343-.456.456 0 .762-.596zM52.557 19.914c.432-.33 1.094.059 1.094.389 0 .328.066.447.298.717.231.27.231.523.661.56.433.038.83.008.83.458 0 .447.397.33.432.506.033.181.695.12.629.48-.067.36.397.149.397.418 0 .27.463.11.463.444s.498.035.465.426c-.035.386.269-.182 0 .566-.265.748.1.658-.366 1.346-.461.688.17.328-.629.928-3.184 2.397-6.517 9.26-.862 11.516 2.803 1.118 2.852.868 2.852 1.106 0 .24 1.555.03 1.158.27-.397.238.563.15.199.45-.364.298.165.363-.695.599-.863.236-1.692.654-3.944.447-2.254-.21-3.479-.629-4.043-1.377-.335-.445-.954-.754-1.631-2.407-.678-1.653-.355-3.079-.349-3.684.006-.59.117-1.2.183-1.784.06-.531.25-.846.436-1.35.1-.268.148-.543.236-.813.081-.248.262-.457.426-.664.63-.787.967-1.451 1.466-1.899.496-.447 1.234-1.303 1.664-1.604.43-.297-.74-.601-.973-.691-.232-.09-.13-.807-.298-.746-.165.058-.827.926-1.359 1.523-.53.6-.75.756-1.942 1.743-1.192.987-1.935 1.285-4.289 2.305-1.045.453-2.838.76-4.728.817-.27.693-.58 1.414-.93 2.139-1.653 3.438-7.5 7.43-8.883 7.812-1.384.383-3.16.274-4.384-.173-1.355-.497-1.345-1-2.437-1.59-1.092-.593-1.217-1.083-1.524-2.02-.308-.938-.308-2.501 0-4.203.307-1.701 1.46-3.749 2.192-4.964.73-1.215 1.999-2.569 2.921-3.784.923-1.215 3.808-2.014 4.77-2.546.961-.531 1.349.508 2.153 0 .346-.218.77-.648 1-.926.232-.277.193-.035.462-.173.27-.14.307.207.885.238.576.03.154.248.654.039.499-.21.269.486.845.383.576-.106.77.137.925.797.152.66.845.799.998 1.389.154.59.5.938.77 1.492.27.557.114.766.614 1.077.224.139.187.893-.07 1.987.736-.045 1.528-.157 2.046-.432 1.127-.6 1.822-.957 2.486-1.407.662-.449 1.855-1.494 2.385-1.943.53-.45.928-.749 1.691-1.616.761-.867.96-.657 1.29-1.286.332-.627.93-.957 1.36-1.285zm-21.16 6.123c-.134.144-.245.296-.362.498-.325.57-.43.355-.773.998-.208.389-.615.516-.88.832-.228.276-.362.608-.592.895-.61.774-1.078 1.655-1.279 2.592-.027.131-.052.266-.126.381-.062.098-.154.174-.236.258-.484.483-.644 1.135-.71 1.764-.062.588.142 1.301-.057 1.858-.06.166-.165.315-.214.483-.116.412.236.803.598.977.5.236.446.379.656.189.212-.191.265.318.422.088.158-.23.183.125.473-.207.288-.334.551-.262.551-.262s.031.024.464-.379c.432-.402 1.035-.76 1.403-1.092.368-.332 1.814-.57 2.63-1.614.816-1.045 1.51-1.78 2.046-2.785.146-.274.342-.624.557-1-.75-.19-1.418-.448-1.933-.786-2.55-1.676-2.451-2.034-2.55-3.202-.018-.188-.05-.346-.088-.486zm101.473-.997c-.919-.78-1.281-.367-1.907-.106-.627.263-1.368.5-2.136 1.075-.768.576-1.991 1.914-2.62 2.411-.626.498-.626 1.075-1.337 1.862-.711.786-.341.445-.825 1.143-.484.696-.494.817-.911 1.58-.963 1.762-.882 3.409-.882 3.96 0 .55-.057.813.34.787.399-.028.855-.052 1.68-.552.827-.497 1.596-.916 2.534-1.861.941-.943 1.025-1.232 1.88-2.07.854-.839 1.452-1.703 2.191-2.726.741-1.022 1.025-1.938 1.452-2.935.428-.997.82-2.333.541-2.568zm-22.991 1.651c-.141-.345-.68-.3-.774-.086-.092.216-.631.086-.75.28-.117.195-.491-.364-.632.109-.141.475-.668.604-.921.929-.245.315-.437.273-1.049.97-.986 1.124-1.313 1.082-1.313 1.555 0 .476-.188.301-.353.734-.162.432-.864 1.585-.864 1.585.8-.106 1.574-.385 2.254-.493.68-.109 1.105-.538 1.482-.652.374-.115.586-.197.89-.436.305-.236.225.083.578-.35.35-.432.491-.54.609-.69.116-.151.257-.26.374-.432.118-.172.189-.15.304-.453.118-.303.047-.343.212-.71.164-.37.376-.759.211-1.168-.164-.41-.117-.345-.258-.692zm-72.886-2.624c-.262.047-.63-.226-1.025-.066-.129.053-.392.088-.73.144-.14.096-.23.198-.341.376-.267.418-.199.357-.498.806-.298.45-.1.268-.199.807-.1.54.1.258 0 .756-.1.5-.463.172.232.59.697.42.9.092.979.54.082.449.313-.09.512.24.2.328.399-.06.73.238.072.065.198.074.36.053.173-.367.31-.696.374-.948.237-.926.21-1.02.525-1.377.318-.356-.473-.166-.208-.545.26-.379-.107-.309 0-.664.103-.356-.29-.121-.132-.524.157-.402-.316-.023-.238-.307.08-.285-.078-.166-.34-.119z"/>
    </defs>
    <g fill="none" fill-rule="evenodd">
        <rect width="360" height="68.056" fill="#FFF" rx="12.857"/>
        <path fill="#AD2118" d="M78.95 64.167c-5.783 0-10.472-4.702-10.472-10.494V14.38c0-5.797 4.689-10.492 10.473-10.492h266.665c5.782 0 10.471 4.695 10.471 10.492v39.292c0 5.792-4.689 10.494-10.47 10.494H78.95z"/>
        <path fill="#FFF" d="M100.272 22.66c3.241 0 5.835 1.355 8.13 3.375.37.327.938.285 1.262-.094l2.366-2.804c.323-.38.279-.956-.092-1.287-2.832-2.519-6.345-4.35-11.622-4.35-9.504 0-16.186 7.442-16.186 16.574v-.182c0 9.13 6.682 16.57 16.186 16.57 5.277 0 8.79-1.827 11.622-4.349.37-.329.415-.903.092-1.282l-2.366-2.809c-.324-.377-.892-.42-1.262-.093-2.295 2.018-4.889 3.375-8.13 3.375-6.007 0-10.357-5.019-10.357-11.322 0-6.301 4.35-11.322 10.357-11.322zm88.018 12.01c-.49 0-.894-.413-.894-.915v-9.683c0-.5.404-.911.894-.911h5.516c4.126 0 6.77 1.963 6.77 5.752 0 3.427-2.597 5.757-6.77 5.757h-5.516zm17.89-5.894c0-6.53-4.616-10.727-11.925-10.727h-11.479c-.493 0-.891.41-.891.911v30.135c0 .501.398.912.891.912h3.726c.494 0 .894-.41.894-.912v-8.449c0-.499.404-.91.894-.91h5.339c6.904 0 12.55-3.745 12.55-10.96zm134.03-6.616c0 .5-.402.911-.897.911h-15.96c-.494 0-.896.409-.896.912v8.495c0 .503.402.91.896.91h11.97c.494 0 .896.41.896.911V37.5c0 .501-.402.91-.895.91h-11.971c-.494 0-.896.413-.896.912v4.753c0 .5.402.91.896.91h16.186c.494 0 .896.41.896.911v3.2c0 .5-.402.911-.896.911h-21.701c-.494 0-.896-.41-.896-.912V18.96c0-.5.402-.911.896-.911h21.475c.495 0 .897.41.897.911v3.2zm-53.099-3.2c0-.5.402-.911.896-.911h3.723c.49 0 .896.41.896.911v25.021c0 .503.4.912.894.912h14.709c.491 0 .892.41.892.911v3.291c0 .501-.4.912-.892.912h-20.222c-.494 0-.896-.41-.896-.912V18.96zm-19.486 30.135c0 .501-.402.912-.898.912h-3.764c-.496 0-.898-.41-.898-.912v-24.93c0-.503-.4-.914-.894-.914h-8.16c-.495 0-.899-.407-.899-.91v-3.38c0-.502.404-.912.898-.912h23.674c.492 0 .894.41.894.911v3.381c0 .503-.402.91-.894.91h-8.165c-.492 0-.894.41-.894.913v24.931zm-37.36-26.435c-6.231 0-10.581 5.067-10.581 11.322 0 6.253 4.438 11.411 10.673 11.411 6.229 0 10.579-5.068 10.579-11.32 0-6.257-4.442-11.413-10.671-11.413zm0 27.896c-9.639 0-16.36-7.443-16.36-16.482 0-9.04 6.811-16.574 16.452-16.574 9.636 0 16.361 7.442 16.361 16.482s-6.812 16.574-16.453 16.574zm-61.538-32.507c.492 0 .894.41.894.911v30.135c0 .501-.402.912-.894.912h-3.723c-.494 0-.898-.41-.898-.912V18.96c0-.5.404-.911.898-.911h3.723zm-38.603 20.499c-.492 0-.896.41-.896.911v9.636c0 .501-.402.912-.893.912h-3.724c-.492 0-.896-.41-.896-.912V18.96c0-.5.404-.911.896-.911h3.724c.491 0 .893.41.893.911v13.47c0 .503.404.914.896.914h14.508c.494 0 .898-.411.898-.914V18.96c0-.5.402-.911.893-.911h3.726c.49 0 .894.41.894.911v30.135c0 .501-.404.912-.894.912h-3.726c-.491 0-.893-.41-.893-.912V39.46c0-.5-.404-.911-.898-.911h-14.508z"/>
        <path fill="#451400" d="M14.477 64.167c-5.835 0-10.564-4.7-10.564-10.495V14.38c0-5.795 4.729-10.49 10.564-10.49h39.524c5.838 0 10.564 4.695 10.564 10.49v39.293c0 5.795-4.726 10.495-10.564 10.495H14.477z"/>
        <path fill="#FFF" d="M40.28 51.726c1.298 0 4.904-1.948 3.568-2.844-.845-.563-1.837-1.313-3.673-2.734-.819-.636-1.182-.462-1.433-.462-.753 0 .472-1.236.066-2.24-.444-1.086-.7-2.753-1.076-3.133-.379-.385-.223-2.399.57-3.201.861-.875 2.105-3.42 2.792-4.4.81-1.166 1.367-3.727 1.047-4.056-.326-.325-1.806-3.433-2.451-4.091-.42-.423-1.1-1.463-1.787-2.308l-.164-.232-.698.403c-.694.402-1.556 1.237-1.556 1.237s-.6.2-1.987-.08c-.745-.152-1.012-.683-1.012-1.288s-.39-.45-.39-.45-6.393.341-6.904.642c-.513.302-2.746 3.402-2.746 3.402s-1.19 11.79-.273 12.721c1.096 1.108 6.211 10.226 7.28 11.312 1.065 1.479 9.535 1.802 10.828 1.802M27.384 25.625c-.72.13-1.884-.077-2.434.934l-1.042 4.586s.112 4.605.21 5.515c.099.908 1.27 3.875 1.928 4.543.577.583 1.102 2.527 2.122 3.544.275.277.836.41 1.068.733.426.58.763.179 0-.961-2.79-4.19-3.395-7.806-3.531-8.424-.3-1.346-.08-4.522 0-5.79.04-.672.5-2.18.938-2.52.206-.158 2.121-.372 2.512-.485.598-.178 1.447-.165 1.993-.278 1.759-.364 4.384.542 4.604.649 2.631 1.229 1.61 1.659 1.65 1.803.043.151-3.662 7.7-3.645 8.054.018.382.148 4.158.5 5.191.1.303 1.269 3.162 1.482 3.677.926 2.27-1.992-.375-2.18-.48-.188-.105-3.431-6.798-3.99-8.22-.374-.955-.237-2.388-.163-2.695.1-.42-.197-3.655.396-4.1.402-.299 1.603-.481 2.471-.093.79.351 1.213 1.245 1.133 1.461-.064.179-1.314 4.258-1.507 3.919-.065-.113-.069-1.403-.235-1.532-.165-.13-.48-.33-.592-.179-.112.153-.338 1.519-.219 1.99.556 2.266 1.25 1.56 1.494 1.138.363-.628 2.122-5.641 2.09-5.962-.073-.743-.612-2.014-1.753-2.403-.684-.23-3.06-.103-3.88.332-1.258.67-1.182 6.467-.944 7.308.24.836 3.6 7.577 3.787 8.095.367 1.01 2.765 3.41 3.142 3.635.156.095 3.432 1.382 3.853.741.188-.285.094-1.066-.72-1.605-.781-.521-2.65-6.032-2.644-6.466.006-.402-.487-3.469-.16-4.107.624-1.217 5.08-7.984 4.593-8.527-.655-.732-2.652-4.149-3.592-2.86-.849 1.161-4.254-.034-5.252-.775-.076-.058-2.438.42-3.483.614M46.3 9.722c.402.048 2.155.672 2.155.672s1.695 2.512 2.13 3.05c.433.538.242.93.242.93l-.835 3.077s.304.25 0 0c-.302-.248-2.547-.044-3.08.004-.532.05.484-.635.726-.88.242-.244 1.207-.93 1.088-1.323-.12-.394-1.58-3.252-1.58-3.252s-2.552-.024-3.76.125c-1.207.144-3.75 2.705-3.75 2.705l-.92 3.7s.37.687.903 1.127c.53.44 2.077.293 2.656.244.58-.048.34.638-.145 1.076-.483.442-2.22.442-2.22.442l.72.246c.802.733 2.269 4.5 3.13 5.375.865.872-.026 5.287-1.267 6.547-1.238 1.255-1.835 3.955-2.59 4.72-.754.767-1.535.464-.754 1.257.782.792.417 1.748.54 2.44.08.453.208 1.274.589 1.655.374.38 6.11 4.406 8.411 4.59.42.034.425 2.082-1.938 4.597 0 0-.424 1.457-4.36 1.582-4.292.134-8.52-.589-9.491-.589-.971 0-3.793-1.625-3.793-1.625-.539 0-8.905-12.637-8.905-13.509 0-.874-.638-3.233-.638-4.109 0-.874.999-8.88.84-9.845-.126-.765.266-.94 1.13-1.816.866-.872 2.42-2.353 3.015-2.955.265-.268 2.334-.21 4.839-.75l.386-.168-.498-.246s-.803-1.026-2.108-.977c-1.305.05-1.74.147-1.063-.147.675-.293 1.89-1.22 1.89-1.22l2.844 1.27h1.546l2.693-2.244 6.103-5.023 5.119-.753"/>
        <g transform="translate(103.696 85.556)">
            <mask id="prefix__b" fill="#fff">
                <use xlink:href="#prefix__a"/>
            </mask>
            <use fill="#000" xlink:href="#prefix__a"/>
            <g fill="#451400" mask="url(#prefix__b)">
                <path d="M0 0L160.435 0 160.435 52.5 0 52.5z"/>
            </g>
        </g>
    </g>
</svg>
