<svg xmlns="http://www.w3.org/2000/svg" width="118" height="138" viewBox="0 0 118 138">
    <g fill="none" fill-rule="evenodd">
        <path stroke="#FFF" stroke-linecap="round" stroke-linejoin="round" stroke-width="3" d="M56.71 38.25c.062-1.94-1.475-3.547-3.414-3.575-4.188-.06-10.654-.086-10.992.325-.876 1.067-.783 2.107-.793 3.393-.013 1.643-.08 3.287-.112 4.93-.06 3.288-.093 6.576-.101 9.864-.012 5.41-.043 12.883-.06 16.492-.003.621-.812.854-1.145.33-3.74-5.894-14.64-25.046-18.911-32.502-.983-1.715-2.767-2.758-4.691-2.745l-7.954.051c-1.051-.039-1.926.828-1.935 1.917l-.54 58.378c-.045 1.828 1.373 3.334 3.136 3.334H16.3c1.567 0 2.842-1.308 2.856-2.933l.283-29.897c.007-.808 1.023-1.115 1.448-.438 0 0 18.789 32.277 20.888 33.268 2.1.991 10.904-.368 10.904-.368 1.255-.043 2.256-1.096 2.272-2.397.036-2.854 1.362-44.886 1.758-57.428zM76.885 57.597c.933-3.595 4.26-10.416 11.184-10.239 7.313.186 8.646 16.57 8.426 19.964-.318 4.941-1.62 9.904-4.313 14.2-1.874 2.99-4.9 5.23-8.538 3.424-1.195-.593-2.19-1.489-3.028-2.482-2.003-2.37-3.168-5.292-3.902-8.258-1.126-4.542-1.282-9.404-.391-14.07.156-.824.339-1.678.562-2.539zM66.029 83.731c2.215 5.245 10.432 16.383 23.364 13.944 3.454-.65 13.58-5.102 17.322-15.644 7.755-21.847-1.78-51.16-25.533-46.827-15.526 2.833-18.117 21.933-18.32 28.615-.206 6.756.514 13.635 3.167 19.912z" transform="translate(4 4)"/>
        <path fill="#FFF" d="M16.583 97.843c-.164.79-.698 1.292-1.413 1.604-.141-.608-.601-1.15-1.391-1.205-1.366-.095-2.745-.118-4.101-.321-.578-.087-1.156.065-1.523.471-.374-.155-.749-.307-1.125-.456-.724-.692-1.306-1.608-1.497-2.16.079-.118.148-.243.19-.377 2.127-6.787 1.081-14.664 1.09-21.666.01-6.499.15-13.515-1.212-19.89-.028-.128-.069-.242-.118-.346.348-4.492.753-8.982 1.171-13.505.083-.898-.529-1.368-1.22-1.425.5-1.138 1.181-1.965 2.119-2.254 1.84-.567 1.054-3.464-.797-2.892-5.301 1.633-4.631 7.1-5.129 11.73C.761 53.189.122 94.713.757 97.236c1.104 4.392 5.185 5.228 9.147 5.426.948.085 1.909.091 2.819.079l.105-.002.201.003c.048.001.089-.008.134-.011 2.993-.086 6.313-4.09 6.313-4.09s-2.499-2.69-2.893-.798M40.897 33.947c-1.873 1.148-2.962 1.819-3.5 4.006-.86 3.502-.692 7.694-.73 11.26-.044 3.962-.234 7.908-.33 11.864-.046 1.92-.195 4.413.796 6.132.71 1.23 2.27.763 2.742-.36 1.407-3.338.55-7.795.72-11.353.221-4.592.753-9.285.434-13.88-.048-.69-.472-1.13-.986-1.325.432-1.647 1.155-3.01 2.368-3.753 1.643-1.008.137-3.604-1.514-2.591M52.624 96.898c-.329.52-.663 1.23-1.018 1.923-.068.094-.137.174-.207.243-.339.025-.66.148-.892.376-1.226.18-2.761-.583-3.796-.893-2.065-.618-4.143-.954-6.247-1.387-.704-.145-.577.266-.619.372-.087-.085-.177-.167-.266-.249-.06-.275-.024-.737-.186-.898-.093-.09-.189-.197-.283-.295.125-.435.036-.936-.398-1.387-3.084-3.203-5.277-7.108-7.788-10.754-2.387-4.92-4.424-10.116-7.335-14.597-.416-.64-1.189-.786-1.823-.589-.891-1.57-3.35-.086-2.532 1.611.193.4.363.805.523 1.214-.478.355-.777.946-.567 1.573.585 1.746 1.504 3.214 2.57 4.57.152.415.313.828.495 1.234 1.387 3.11 3.062 6.085 4.478 9.182 2.181 4.771 4.829 10.034 9.361 13.133 2.877 1.968 10.24 2.197 12.609 2.195.499 0 .99-.093 1.45-.27.381-.147.724-.38 1.023-.658l3.54-3.285s.325-.547.499-.85c.962-1.684-1.559-3.14-2.591-1.514M94.559 57.878c-.422-3.948-1.687-7.627-4.824-9.863-.883-.63-1.881.025-2.16.893-.825-.405-1.716-.772-2.66-1.19-.121-.05-.23-.114-.353-.162-.793-.304-1.56.26-1.8 1.015-.35 1.097 1.134 1.962 1.134 1.962s4.884 3.709 5.43 11.955c.365 5.489-.296 17.754-8.607 17.882-1.157.018-1.14 2.953-.708 3.184.082.633.547 1.187 1.428 1.188.725 0 1.425-.09 2.103-.232.127.004.254 0 .38-.002-.105.938 1 1.767 1.934 1.587 2.349-.454 4.058-2.217 5.307-4.515.292-.093.568-.277.787-.581 2.97-4.132 3.425-10.926 3.544-15.875.062-2.646-.293-5.003-.935-7.246" transform="translate(4 4)"/>
        <path fill="#FFF" d="M96.022 93.822c-.578.445-1.147.906-1.724 1.355-.463.146-.852.447-1.37.64-2.986 1.105-5.98 1.595-9.18 1.546-1.77-.028-3.538-.346-5.257-.88.028-.466-.178-.95-.731-1.297-2.214-1.39-4.927-2.597-7.116-4.2-2.018-2.354-4.08-4.594-5.494-7.458-1.243-2.518-1.563-5.663-2.779-8.183-.55-4.689-.675-9.541-.02-14.08.096-.666-.204-1.194-.642-1.52.375-1.928.833-3.81 1.391-5.604.117-.377.085-.707-.038-.983 2.502-6.72 7.17-13.877 13.457-16.828 3.4-.825 6.837-.713 10.486-.713.084.026.166.044.25.072 1.843.593 3.4-1.972 3.4-1.972s-17.75-5.35-27.354 7.946c-6.48 8.976-8.197 19.596-8.522 30.329-.03 1.046.835 1.52 1.644 1.432 1.106 23.442 13.925 26.972 17.453 28.072 6.506 2.029 12.51 2.047 18.163-.926.912-.428 1.766-.946 2.546-1.564.277-.195.959-.174 2.952-2.594 1.992-2.42.014-3.77-1.515-2.59" transform="translate(4 4)"/>
        <path stroke="#FFF" stroke-linecap="round" stroke-linejoin="round" stroke-width="5" d="M85.999 20.154L102.264 6.775M62.987 17.638L65.892 1.258M18.729 19.396L2.463 6.018M41.74 16.88L38.836.5M16.765 111.253L.5 124.632M39.776 113.769L36.872 130.149M84.035 112.011L100.3 125.389M61.023 114.527L63.927 130.907" transform="translate(4 4)"/>
    </g>
</svg>
