<svg xmlns="http://www.w3.org/2000/svg" xmlns:xlink="http://www.w3.org/1999/xlink" width="106" height="94" viewBox="0 0 106 94">
    <defs>
        <path id="a" d="M.876.667h101.402v67.057H.876z"/>
        <path id="c" d="M0 .915h104.657V7H0z"/>
    </defs>
    <g fill="none" fill-rule="evenodd">
        <g transform="translate(2 .333)">
            <mask id="b" fill="#fff">
                <use xlink:href="#a"/>
            </mask>
            <path fill="#FFF" d="M64.029 61.91c-6.478-1.489-11.76-6.988-14.661-15.185-.006-7.7-.205-17.52-.397-25.905 1.16-3.43 2.828-6.447 4.972-8.748C62.259 3.152 70.103 1.87 75.91 2.85c-.167.012-.335.018-.501.035-9.517.944-18.177 5.143-22.282 21.401-4.46 17.66 6.588 34.967 24.228 37.025a17.58 17.58 0 0 0 4.975-.12c-4.296 1.752-10.242 2.57-18.301.718zm-22.984 2.852a1.458 1.458 0 0 1-1.091.49h-6.861c-.488 0-.931-.27-1.155-.704L19.88 41.17c.028-4.197.039-7.899.008-9.722-.01-.598.785-.812 1.079-.29l15.999 28.31a2.37 2.37 0 0 0 1.95 1.161c1.546.058 4.026.415 6.15.361l-4.021 3.773zm-27.762.051c-.376.507-.952.836-1.482.895l-8.396.033h-.002a.543.543 0 0 1-.543-.559L4.367 9.254a1.716 1.716 0 0 1 .743-1.332l3.187-2.18c-.143 10.96-.78 48.183-.732 54.713.005.56.44 1.011.999 1.037 1.328.06 4.57.01 7.212-.048l-2.493 3.37zm17.292-56.12c.002-.634.374-1.21.952-1.472l3.38-1.537c-.545 7.243.076 22.14.25 28.05.012.4-.542.51-.685.136-.892-2.323-2.407-6.332-3.916-10.266-.005-4.099 0-9.134.019-14.912zm43.259 6.88c1.987 1.622 8.012 7.3 7.383 16.055-.722 10.048-7.804 12.83-11.568 13.598a11.282 11.282 0 0 1-3.51-4.168c-3.92-7.99-2.33-20.624 6.29-24.872a17.21 17.21 0 0 1 1.405-.614zm12.388 27.46c-3.346 4.33-9.312 5.524-14.11 3.568.43-.133.812-.265 1.099-.38 4.2-1.67 9.342-5.534 9.984-14.45.614-8.538-4.295-14.306-7.071-16.854 12.958-2.514 16.955 19.241 10.098 28.116zm15.695-17.5c-1.655-10.315-8.858-17.93-16.77-21.103-4.728-2.986-18.268-9.147-32.655 6.29-1.404 1.507-2.613 3.302-3.632 5.297-.125-5.296-.227-9.574-.24-11.66a2.084 2.084 0 0 0-1.79-2.055c-2.565-.37-8.353-.038-10.3.378a1.749 1.749 0 0 0-.897.496l-4.926 2.24a3.611 3.611 0 0 0-2.116 3.27c-.011 3.752-.021 6.973-.028 9.77a219.02 219.02 0 0 0-1.58-3.94c-1.11-2.673-2.344-5.292-3.49-7.944-.904-2.099-2.035-3.569-4.467-3.954-1.493-.236-6.502-.095-9.1 0a1.656 1.656 0 0 0-.556.121.982.982 0 0 0-.42.153L3.99 6.284a3.72 3.72 0 0 0-1.605 2.9L.875 65.128c-.017.69.239 1.342.72 1.834.48.491 1.12.761 1.807.761h.01l8.495-.038a4.242 4.242 0 0 0 2.97-1.694l3.424-4.627a1.622 1.622 0 0 0 1.393-1.589c.033-2.718.102-8.566.152-14.346l10.33 20.027a3.27 3.27 0 0 0 2.917 1.778h6.86c.984 0 1.922-.422 2.51-1.09l5.947-5.573a.989.989 0 0 0 .309-.719c0-.002.003-.003.004-.005.369-.475.55-3.612.617-8.189 3.32 6.483 8.313 10.82 14.246 12.183 3.326.764 6.315 1.084 8.992 1.084 6.874 0 11.674-2.112 14.755-4.228a21.556 21.556 0 0 0 5.19-5.003c7.425-7.402 10.949-20.475 9.394-30.163z" mask="url(#b)"/>
        </g>
        <path fill="#FFF" d="M99.913 75.848c-7.667 1.145-16.814.405-24.709.358-7.482-.045-14.966-.066-22.449-.08-15.87-.03-31.764-.243-47.633-.029-5.744.077-5.765 5.17 0 5.092 17.015-.229 34.068-.002 51.087.036 14.44.033 32.044 1.63 46.081-.466 5.562-.83 3.204-5.744-2.377-4.911"/>
        <g transform="translate(0 86.333)">
            <mask id="d" fill="#fff">
                <use xlink:href="#c"/>
            </mask>
            <path fill="#FFF" d="M5.55 6.905c7.667-1.144 16.814-.405 24.71-.357 7.482.043 14.965.066 22.448.08 15.871.03 31.764.242 47.633.029 5.744-.079 5.766-5.17 0-5.093-17.015.23-34.068.001-51.087-.036-14.44-.034-32.044-1.63-46.08.466-5.563.83-3.204 5.744 2.376 4.911" mask="url(#d)"/>
        </g>
    </g>
</svg>
