<svg xmlns="http://www.w3.org/2000/svg" xmlns:xlink="http://www.w3.org/1999/xlink" width="531" height="50" viewBox="0 0 531 50">
    <defs>
        <path id="a" d="M0 .5h41.728v46.996H0z"/>
    </defs>
    <g fill="none" fill-rule="evenodd">
        <path fill="#3F1D15" d="M172.235 3.556c-.156-1.455-1.598-2.13-2.858-2.029-1.329-.265-2.733-.218-4.057-.028-.603.086-1.301.7-1.39 1.245-1.314 8.082-.135 16.451-.843 24.596-.351 4.02-.421 8.04-.669 12.065-.161 2.596-.811 5.582.538 8.018.316.571 1.046.853 1.717.882 2.046.088 4.576.171 5.73-1.31.74-.297 1.308-.91 1.302-1.86-.037-6.923.351-13.758.544-20.67.1-3.605-.004-7.215-.025-10.82-.018-3.404.378-6.685.011-10.089"/>
        <g transform="translate(0 .75)">
            <mask id="b" fill="#fff">
                <use xlink:href="#a"/>
            </mask>
            <path fill="#3F1D15" d="M39.578.534L35.504.501c-1.097-.011-2.018.705-2.116 1.65-.416 4.013-1.48 14.104-1.974 17.277-.398 2.545-.986 7.016-1.254 9.077-.043.333-.56.418-.74.121-1.33-2.179-4.458-7.323-4.898-8.259-.23-.492-.767-.819-1.381-.847l-3.933-.177c-.59-.027-1.134.272-1.357.745-.621 1.319-2.351 5.293-3.213 7.281-.137.316-.668.271-.732-.063-.471-2.493-3.976-19.713-4.977-23.92-.188-.787-.455-1.669-1.27-2.056-.508-.242-1.121-.231-1.701-.213l-3.65.113c-.703.022-1.493.078-1.95.542-.478.489-.381 1.212-.256 1.843 1.372 6.929 5.534 35.273 6.559 42.299.133.905 1.022 1.582 2.076 1.582h4.635c.837 0 1.58-.458 1.85-1.145.983-2.513 3.338-8.503 4.467-11.171.117-.273.553-.284.689-.019 1.148 2.244 4.378 8.279 5.83 10.987.443.826 1.398 1.349 2.45 1.342 2.436-.019 6.59-.089 6.67-.348 1.187-3.79 5.963-40.14 6.393-44.573.105-1.088-.88-2.022-2.143-2.035" mask="url(#b)"/>
        </g>
        <path fill="#3F1D15" d="M55.268 9.616c2.578-.422 14.001-.455 16.817-1.129.63-.15 1.335-.65 1.44-1.245.244-1.389.271-2.83-.295-3.846-.13-.86-.799-1.683-1.796-1.848-3.12-.517-23.417-.388-24.103.021-1.264.427-5.23 26.53-6.364 38.455-.159 1.673-.616 4.07-.008 5.697.005.015.015.024.02.038.04.753.724 1.505 1.543 1.793 4.9 1.725 10.805 1.146 15.975.842 3.437-.202 7.216.027 10.59-.574 2.194-.39 3.326-1.135 3.721-3.066.236-1.148.62-3.057-.225-4.082-1.153-1.404-3.067-.74-4.716-.643-5.484.321-11.045.031-16.55.27.081-4.02.83-8.279 1.421-12.255 2.134-.043 4.27-.033 6.406-.016 1.302.011 2.552.14 3.381-.894.725-.905.641-2.338.613-3.365-.068-2.426.251-4.819-3.404-4.728-1.905.048-3.817.138-5.73.225.452-3.174.89-6.349 1.264-9.533.005-.04-.002-.077 0-.117M105.803 26.776c.023 5.524-6.805 11.227-8.598 11.608-.492.105-.985-.035-.975-.44.086-3.635-.183-7.335-.273-10.774-.095-3.665-.263-7.352-.08-11.014.094-1.879.238-3.722.21-5.556-.008-.489.582-.856 1.16-.697 1.338.367 8.495 2.9 8.556 16.873m9.267-9.352c-1.327-5.087-9.267-16.115-23.906-16.339-1.486-.023-3.003.733-3.559 1.835-.227.448-.28.938-.33 1.42-.77 7.353-1.077 31.46-1.082 35.79-.003 3.044.038 6.8 4.665 7.352 4.56.544 10.745-1.795 14.342-3.82 4.31-2.424 7.425-7.357 9.023-11.27 1.85-4.53 2.056-10.33.847-14.968M136.456 34.462a24.38 24.38 0 0 1-.97 1.34c-.51.657-1.1 1.327-1.984 1.638-.993.348-2.182.16-3.11-.29-2.524-1.22-3.15-3.886-3.38-6.234-.41-4.157-.314-8.428 1.047-12.476.98-2.914 3.867-9.696 9.19-7.759 3.255 1.186 3.355 5.61 3.413 8.01.132 5.514-.94 10.919-4.206 15.77m12.168-19.677c-.621-4.27-2.051-9.363-6.411-11.834-4.024-2.28-11.602-2.473-15.293.475-1.004.803-1.61 1.862-2.158 2.909-3.632 6.925-5.663 14.299-6.15 21.791-.367 5.7-.41 12.873 5.082 17.184 5.81 6.507 15.02 2.282 19.265-3.442.356-.48.686-.972.997-1.473 5.512-7.136 5.874-17.328 4.668-25.61M205.4 1.31h-27.879c-1.073 0-1.92.813-1.84 1.772.142 1.69-.402 5.15.659 5.698.828.426 6.375.482 8.789.485.614.001 1.094.446 1.068.996-.189 3.94-.859 18.565-.836 26.433.006 2.021-.146 4.032-.277 6.045-.085 1.293-.288 4.944 1.2 5.175 3.38.526 8.488.498 8.48-1.093-.029-5.594 1.129-32.164 1.356-37.287.02-.47.46-.83.983-.809 2.233.091 7.73.188 8.888-.999.781-.802.822-5.023.822-5.023.08-.748-.575-1.394-1.413-1.394M240.67 34.988c-.771 5.636-7.825 5.894-10.82 5.745-.757-.038-1.353-.589-1.377-1.269-.078-2.114-.235-6.685-.276-9.93-.007-.725.659-1.305 1.466-1.275 3.468.13 11.785 1.032 11.006 6.73M228.59 8.771c.031-.652.67-1.18 1.442-1.167 3.36.063 6.582 1.112 7.077 4.31.534 3.443-3.428 6.441-7.458 7.126-.76.13-1.474-.358-1.453-1.012.105-3.086.24-6.173.392-9.257m15.714 17.314a23.891 23.891 0 0 0-5.78-2.707c4.155-1.962 7.17-5.119 7.17-10.022.002-5.02-5.222-10.92-13.308-11.644-4.087-.367-8.177.34-10.445.848-1.065.24-1.814 1.094-1.83 2.08-.128 7.698-.633 40.223-.045 41.41 1.948 3.926 8.501 2.981 12.147 2.485 5.72-.779 12.886-4.039 15.502-8.837 2.386-4.375 1.084-10.718-3.411-13.613M279.498 1.611h-6.093c-.861 0-1.547.643-1.502 1.414.102 1.744.27 4.594.34 5.51.137 1.801.26 3.717.073 5.52-.223 2.171-1.404 6.554-4.721 5.377-1.708-.605-3.34-2.472-4.316-3.799-2.588-3.52-3.171-8.786-3.4-12.888-.071-1.268-1.207-1.885-2.518-1.718-1.303.165-7.274 1.41-7.143 2.766.509 5.311 2.175 12.761 5.299 17.414 4.905 7.306 14.515 6.118 14.515 6.118l-.682 17.957c-.062 1.621 1.387 2.965 3.197 2.965h2.495c2.269 0 4.135-1.6 4.227-3.633.209-4.557 1.739-33.672 2.135-41.219.052-.974-.817-1.784-1.906-1.784M399.106 12.232l.232 9.535c2.468-.421 7.664-1.747 7.613-5.425-.014-.998-.369-1.785-1.086-2.407-1.634-1.42-4.834-1.72-6.759-1.703m-.936 12.018c-.294 0-.581-.105-.801-.296a1.141 1.141 0 0 1-.399-.834l-.292-11.966c-.014-.608.462-1.123 1.091-1.178.265-.024 6.505-.537 9.703 2.24 1.224 1.063 1.856 2.44 1.879 4.095.095 6.945-10.624 7.898-11.08 7.936a1.122 1.122 0 0 1-.101.003m-8.029-18.968c-.7.86-.711 2.215-.722 3.524-.001.296-.004.585-.014.864-.07 2.043-.122 4.156-.159 6.458-.069 4.218-.075 8.509-.081 12.66v.117c-.004 2.99-.003 10.804-.002 14.52 0 .202.087.394.246.542a.95.95 0 0 0 .696.25l6.176-.267c.54-.018.965-.409.959-.872l-.163-12.265c-.006-.465.279-.89.722-1.075.275-.116 6.786-2.74 13.583 3.014 4.177 3.533 4.765 8.342 4.745 10.895 0 .038.061.093.158.096l7.699.21a.534.534 0 0 0 .365-.129.34.34 0 0 0 .117-.246c.241-14.756-8.031-17.515-11.598-18.017a1.183 1.183 0 0 1-.998-.89 1.136 1.136 0 0 1 .507-1.218c3.681-2.352 5.422-5.796 4.903-9.696-.387-2.902-2.668-5.213-6.782-6.87-7.81-3.141-18.882-2.611-20.357-1.605m-.06 41.247a3.44 3.44 0 0 1-2.339-.899 2.992 2.992 0 0 1-.98-2.205c0-3.715-.002-11.531.002-14.522v-.12c.007-4.158.014-8.457.081-12.69.037-2.316.09-4.443.161-6.5.009-.26.011-.53.013-.804.014-1.568.029-3.52 1.297-5.011 1.763-2.075 12.616-2.107 20.021-.058 6.81 1.882 10.726 5.252 11.324 9.742.534 4.012-.843 7.619-3.905 10.366 10.508 3.204 11.175 15.777 11.111 19.787a2.604 2.604 0 0 1-.859 1.881 2.922 2.922 0 0 1-2.092.77l-7.699-.21c-1.407-.038-2.501-1.104-2.491-2.426.018-2.159-.469-6.214-3.927-9.14-4.434-3.754-8.657-3.259-10.31-2.854l.151 11.412c.023 1.712-1.442 3.154-3.264 3.215l-6.176.265-.119.002M457.74 4.765h-.001l-24.723.062c-.677.002-1.231.461-1.234 1.024l-.223 37.362a.663.663 0 0 0 .22.486c.18.174.466.277.72.27l22.529-.252c.543-.006 1.053-.216 1.398-.577.292-.306.436-.689.407-1.08l-.173-3.415c-.037-.502-.564-.914-1.198-.914h-.005l-12.691.056c-.824 0-1.564-.3-2.11-.835a2.535 2.535 0 0 1-.78-1.885l.127-5.372c.033-1.412 1.253-2.555 2.778-2.602 2.442-.076 7.025-.22 8.647-.283a.9.9 0 0 0 .619-.263.572.572 0 0 0 .166-.424l-.287-3.447c-.047-.812-.803-1.424-1.724-1.424h-.001c-2.29.002-5.498.01-7.661.025-.903-.01-1.773-.336-2.39-.94a2.843 2.843 0 0 1-.881-2.118l.08-3.119c.045-1.809 1.62-3.254 3.587-3.289 3.596-.063 10.097-.165 13.572-.219a1.21 1.21 0 0 0 .84-.338.815.815 0 0 0 .252-.607c-.001-.039 0-.079.003-.118l.427-5.609c-.021-.072-.13-.155-.29-.155m-25.252 41.516c-.903 0-1.776-.342-2.401-.94a2.92 2.92 0 0 1-.928-2.14l.223-37.363c.01-1.827 1.638-3.319 3.628-3.324l24.722-.062h.009c1.469 0 2.65 1.063 2.693 2.425 0 .04 0 .08-.003.12l-.43 5.65c.008.818-.317 1.6-.917 2.204-.65.655-1.574 1.04-2.537 1.054-3.474.053-9.973.155-13.566.22-.677.011-1.22.464-1.232 1.031l-.08 3.12a.594.594 0 0 0 .19.438c.164.16.402.25.653.25h.009c2.167-.017 5.384-.023 7.677-.025h.004c2.195 0 4.004 1.572 4.118 3.581l.287 3.447a2.829 2.829 0 0 1-.785 2.136c-.578.613-1.415.984-2.296 1.018-1.626.063-6.22.208-8.67.284-.246.008-.45.161-.454.342l-.127 5.373a.279.279 0 0 0 .095.211.54.54 0 0 0 .382.143h.003c3.286-.015 10.334-.048 12.693-.056h.015c1.887 0 3.464 1.354 3.593 3.09l.172 3.412c.075 1.007-.291 2.006-1.035 2.785-.792.83-1.934 1.312-3.137 1.326l-22.528.25h-.04M479.932 14.036h-.075c-3.13.1-4.369 6.054-4.7 9.349l9.276-.131c-.303-3.278-1.477-9.218-4.5-9.218zm-6.063 11.68c-.324 0-.633-.125-.859-.348a1.14 1.14 0 0 1-.342-.852c.006-.123.128-3.04.953-6.027 1.513-5.476 4.183-6.701 6.157-6.764 2.021-.065 4.708 1.022 6.21 6.554.81 2.99.92 5.952.923 6.076.01.31-.109.612-.332.836a1.218 1.218 0 0 1-.85.359l-11.843.166h-.017zm12.284 6.76c.905 0 1.842.212 1.956 1.75.165 2.218.756 7.542 1.011 9.796l7.538-.047c-.037-3.646-.288-15.32-1.997-25.063-1.692-9.64-6.212-14.135-14.225-14.147h-.025c-3.883 0-7.002 1.33-9.54 4.069-8.368 9.035-7.025 30.18-6.582 35.117l7.622-.124a1831.32 1831.32 0 0 0-.38-10.063 1.125 1.125 0 0 1 .336-.853c.421-.421.421-.421 8.2-.441 1.32-.004 2.64-.003 3.961 0h.57c.44 0 .882.002 1.322.006h.233zm1.89 13.866c-.61 0-1.125-.443-1.192-1.03-.036-.312-.848-7.393-1.106-10.524-.382-.003-.765-.003-1.148-.003l-.575-.001a865.93 865.93 0 0 0-3.948-.001c-.629.002-4.202.039-6.097.065.158 3.9.373 10.008.375 10.076.011.31-.107.61-.33.836a1.216 1.216 0 0 1-.849.359l-9.952.162a.155.155 0 0 1-.02 0c-.61 0-1.123-.44-1.193-1.024-.13-1.096-3.097-26.985 7.073-37.964 2.976-3.212 6.79-4.841 11.331-4.841h.027c9.266.013 14.692 5.272 16.59 16.075 2.078 11.85 2.036 26.457 2.035 26.603-.003.634-.534 1.147-1.193 1.152l-9.82.06h-.008zM514.534 44.355c3.247 0 6.466.14 9.532.287 1.03.05 2.005.098 2.892-.09.298-.344.96-2.13.96-7.003 0-.088-.121-.187-.295-.19-2.65-.045-9.157-.165-12.37-.332-1.401-.073-2.492-1.19-2.435-2.489.225-5.09.529-24.585.545-26.533.007-.858.014-1.745-.3-2.449-.171-.389-.57-.937-2.033-1.205-1.912-.352-3.962-.278-5.77-.213-.773.028-.774.152-.781.673-.084 6.244-.17 12.49-.256 18.733l-.136 9.586c-.032 1.758-.066 3.576.053 5.328.02.29.034.587.046.888.063 1.447.122 2.815.995 3.753.564.607 1.524 1.04 2.703 1.22 1.05.161 2.146.126 3.305.09l.384-.012a100.96 100.96 0 0 1 2.96-.042M525.43 47c-.5 0-.997-.024-1.484-.047-3.947-.19-8.15-.367-12.3-.244l-.378.012c-1.22.038-2.484.078-3.761-.117-1.218-.187-2.92-.678-4.113-1.96-1.448-1.557-1.532-3.494-1.606-5.202-.012-.28-.024-.56-.043-.833-.125-1.848-.091-3.714-.058-5.52l.136-9.575c.086-6.244.173-12.489.256-18.733.023-1.835 1.122-2.884 3.092-2.955 1.84-.066 4.13-.148 6.308.252 1.916.352 3.193 1.216 3.792 2.57.51 1.146.5 2.33.492 3.374-.015 1.954-.322 21.5-.547 26.614.004.017.053.075.167.081 3.172.165 9.646.285 12.282.33 1.487.024 2.653 1.123 2.653 2.502 0 7.625-1.444 8.938-2.703 9.23-.737.172-1.467.221-2.185.221M364.062 46.431h-67.386c-.994 0-1.8-.777-1.8-1.735 0-.958.806-1.735 1.8-1.735h67.386c.994 0 1.8.777 1.8 1.735 0 .958-.806 1.735-1.8 1.735M350.712 7.247c-4.582 0-9.138-.085-12.496-.339-9.637-.729-41.358-.002-41.678.005-.998.024-1.819-.735-1.843-1.692-.024-.958.764-1.753 1.757-1.777 1.312-.03 32.224-.739 42.046.005 9.623.73 30.183.004 30.39-.004.98-.039 1.829.712 1.865 1.67.038.957-.738 1.761-1.731 1.798-.561.02-9.478.334-18.31.334"/>
        <path fill="#3F1D15" d="M397.124 43.921c-2.443.666-4.621 1.502-7.255 1.503-.525 0-1.046-.086-1.562-.188-.038-.224-.172-.434-.454-.565a2.352 2.352 0 0 1-.5-.313c.199-.219.31-.512.247-.792-.17-.753-.241-1.535-.351-2.303.343-5.865-.013-11.793-.015-17.654a113.315 113.315 0 0 0-.292-7.955l.068-1.197c.188-3.494-.69-7.085 2.793-9.408.03-.021.05-.046.079-.068.008-.005.013-.012.019-.017.563-.47.445-1.246-.33-1.501-.931-.307-2.088.134-3.026.784-2.234 1.067-2.476 2.762-2.646 5.852-.277 5.068-.64 10.105-.692 15.179-.05 4.886-.167 9.781-.101 14.67-.827 2.641-.89 6.887 1.706 7.987 2.236.947 5.609.861 7.972.536 2.614-.358 4.029-1.284 5.433-3.276.448-.635-.295-1.492-1.093-1.274M483.54 2.928s-9.672-3.181-16.534 2.458c-2.402 1.973-4.831 8.47-5.577 10.953-1.658 5.504-2.307 11.165-2.872 16.822-.27 2.69-.505 5.387-.504 8.093 0 .48-.056 1.135-.085 1.829a.847.847 0 0 0-.594 0c-1.311.465-2.454 1.222-3.761 1.689-2.464.882-5.634.693-8.265.77-2.17.065-4.357.083-6.527.06-2.135-.022-5.923.19-7.922-.756.014-.027.03-.052.042-.081.22-.582.068-1.075-.353-1.537a.9.9 0 0 0-.22-.175c-.226-.815-.22-1.716-.178-2.545.136-.868-.045-1.904-.045-2.68 0-.884-.002-1.768-.004-2.651.414-.081.784-.371.795-.826.126-5.838-.427-11.706-.38-17.55.005-.551-.424-.822-.88-.833-.02-.732-.04-1.465-.062-2.197-.038-1.26.079-2.716-.107-4.05.166-2.047.608-4.264 2.073-5.054.066-.01.124-.026.193-.035.33-.046.53-.201.628-.4.5-.521.293-1.533-.661-1.452-2.317.196-4.845 1.206-5.691 4.05-1.193 4.012-1.103 8.256-.761 12.375l.01.119c-.073 2.48-.08 4.964-.151 7.46-.04 1.398-.722 10.746.588 16.248-.026.348-.02.67.018.97-.437-.211-1.07-.158-1.368.295a.785.785 0 0 0-.368.118 3.692 3.692 0 0 0-.575.483c-1.48.568-2.798.976-4.623.9-1.436-.058-3.055-.295-4.466-.85-.037-.25-.054-.516-.096-.781a.85.85 0 0 0 .26-.57 9.405 9.405 0 0 0-.047-1.59c-.091-2.105-.65-4.688-2.227-6.11-1.16-1.738-2.733-3.133-4.684-3.592a1.075 1.075 0 0 0-.32-.021c-.74-.581-1.688-1.04-2.933-1.33a.98.98 0 0 0-1.155.58c-1.066-.313-2.322-.443-3.817-.343-1.234.084-1.245 1.819 0 1.735 6.52-.44 7.41 4.423 8.342 9.05.408 2.029.367 4.234 2.264 5.65 2.238 1.67 5.825 1.436 8.508 1.298 1.354-.07 2.819-.17 4.04-.755.099-.047.18-.1.267-.152 1.19-.397 2.19-1.08 2.863-2.071.057-.043.112-.09.17-.145.227-.218.303-.455.279-.672 0-.004.003-.007.005-.011 1.457 3.045 7.129 2.858 11.17 2.843 4.68-.018 9.358-.141 14.036-.217 3.23-.051 5.112-.441 6.748-2.723.08.549.237 1.035.52 1.374.034.04.07.08.11.117.55 1.778 3.159 1.918 5.61 2.092 1.628.115 3.959.426 5.757.095.254.103.566.118.882-.01 1.527-.621 3.037-1.588 3.325-3.172.136-.744-.687-1.198-1.29-1.064a1.1 1.1 0 0 0-.856.188c-2.447 1.853-5.692.623-8.355 1.242a.755.755 0 0 0-.232-.357c-.781-.658-1.296-1.543-1.632-2.537.217-.744.22-1.492.172-2.316-.27-4.701.425-9.314.532-14.01a.79.79 0 0 0-.126-.464c.336-.992.467-2.053.673-3.063.389-1.906.825-3.78 1.393-5.637.313-.71.609-1.398.849-2.052a.715.715 0 0 0 .019-.478c1.828-4.74 4.869-9.023 10.435-10.7.449-.133.65-.461.667-.794 1.54-.181 3.237-.126 5.11.217 1.217.222 1.952-.764 1.952-.764M406.91 14.988c-.181-.645-.482-1.229-.933-1.629a.97.97 0 0 0-.535-.24c-.584-.874-1.563-1.594-3.024-2.028a.94.94 0 0 0-1.105.461c-.974-.396-2.088-.59-3.19-.6-1.245-.012-1.246 1.723 0 1.734 2.666.024 5.35 1.673 3.77 4.364-.982 1.677-2.59 2.05-4.14 3.078-.796.528-.492 1.517.488 1.616.255.027.507.038.757.043.16.388.614.684 1.152.571a7.03 7.03 0 0 0 1.704-.606c.252.393.835.614 1.327.348 1.656-.897 3.274-2.266 3.764-4.003.112-.396.17-.877.177-1.38.1-.246.2-.493.298-.747.186-.488-.102-.84-.51-.982"/>
        <path fill="#3F1D15" d="M459.13 11.685c-.19-.562-1.012-.956-1.601-.407-.281.262-.507.57-.863.748a4.07 4.07 0 0 0-.731.48 1.084 1.084 0 0 0-.72-.15c-2.358.305-4.731.469-7.084.784-2.07.038-4.141.124-6.21.125-.692 0-.998.535-.923 1.01l-.046.002c-1.245 0-1.247 1.736 0 1.735 3.716-.003 7.389-.221 11.087-.514 1.286-.101 3.22-.044 4.42-.527 1.145-.461 1.685-1.452 2.6-2.177.44-.348.367-.801.071-1.11M452.206 26.891c-.778.85-1.323 1.52-2.6 1.812-.998.23-2.088.24-3.111.247-1.578.011-3.157 0-4.735 0a.87.87 0 0 0 0 1.735c2.268 0 4.596.14 6.85-.106 2.475-.269 3.4-.75 4.965-2.46.784-.858-.578-2.092-1.37-1.228M484.949 23.554c.144-1.587-.311-3.417-.61-4.943-.353-1.798-1.111-3.843-2.604-5.144-.35-.305-.878-.296-1.243-.078a4.894 4.894 0 0 0-.9-.585c-1.09-.541-2.067.957-.976 1.499 2.1 1.043 2.059 4.326 2.36 6.209.207 1.276-.112 2.8.833 3.852.386.429 1.033.287 1.395-.063.063.099.132.194.217.275.785.75 1.999-.227 1.528-1.022"/>
        <path fill="#3F1D15" d="M527.395 45.162c-.683-.093-1.383.1-2.072.345-.312-.248-.682-.225-.976-.054-1.599.11-3.178.295-4.76.438a1.036 1.036 0 0 0-.969-.331c-1.258.212-2.53.323-3.786.54-.009.003-.016.007-.026.008-1.833.222-3.772.377-5.568.33.068-.396-.128-.807-.683-.895-1.106-.174-2.192-.243-3.272-.353-.797-.717-1.344-1.611-2.328-2.252a.744.744 0 0 0-.243-.096c.124-1.892-.16-3.867-.58-5.71a.747.747 0 0 0-.502-.576c-.005-.207-.012-.414-.009-.623.056-3.614.404-7.22.582-10.83.178-3.636.302-7.273.381-10.912.061-2.785.852-6.514-.309-9.161-.026-.06-.066-.114-.105-.167.563-.598 1.418-1.02 2.745-1.14 1.227-.111 1.24-1.847 0-1.735-4.467.403-5.389 2.76-5.72 6.446-.489 5.43-.533 10.832-.57 16.275-.04 5.476-.65 10.927-.647 16.41.001 1.045-.049 2.317.158 3.463-.248-.13-.563-.144-.893.05-1.984 1.169-6.939 1.748-8.732.328-.745-.59-1.05-1.42-1.2-2.315.308-1.696-.182-4.048-.688-5.883.304-.146.603-.318.89-.551.45-.366.337-1.11-.196-1.363-1.58-.75-4.067-.481-5.772-.374-.066.003-.132.01-.199.016a1.002 1.002 0 0 0-.595-.19c-2.369-.052-5.228-.421-7.442.55-.513.227-.673 1.033-.195 1.364.053.037.108.067.163.099-.086.22-.159.455-.202.723-.082.504.136.876.675 1.067 1.39.49 3.624-.217 5.025-.314 1.147-.08 2.302-.082 3.454-.087.733 2.183 1.032 4.655 1.466 6.845.427 2.155.51 3.178 3.128 3.452 2.603.273 5.5.07 8.105-.137 1.948-.156 2.821-.433 3.605-1.982.236.497.577.918 1.051 1.23.126.239.272.454.44.632 1.853 1.97 6.46 1.269 8.915 1.354 6.13.212 14.74 2.41 19.035-2.66.353-.416-.002-1.196-.579-1.274M308.76 29.907c-.419 1.714-2.436 2.588-4.264 2.981-.45.097-2.26.351-3.67.418-.327.016-.598-.224-.602-.528-.03-2.522-.159-6.536-.197-7.697-.006-.183.147-.336.343-.342 1.787-.063 9.666-.049 8.39 5.168m-2.872-11.97c.902 2.317-4.43 3.131-5.829 3.18-.058-.05-.088-.078-.146-.127-.029-1.38-.043-2.759-.034-4.137.001-.182.156-.33.352-.335 2.167-.054 5.041-.166 5.657 1.418m3.927 5.171a9.09 9.09 0 0 0-1.409-.8c1.444-1.03 2.33-2.4 2.006-4.142-.886-4.78-7.093-5.217-11.609-5.229a1.952 1.952 0 0 0-1.327.037c-1.059.16-1.593.96-1.609 1.765a1.774 1.774 0 0 0-.079.474c-.129 6.036-.569 19.793.431 20.533.291.215.613.396.96.546.097.05.202.088.31.118 2.398.885 5.763.461 8.1-.013 2.994-.609 6.092-2.558 7.076-5.246 1.11-3.027-.073-6.099-2.85-8.043M326.287 17.033c1.099.203 1.68-3.448 0-3.604H315.63c-1.933 0-1.657 17.123-1.618 20.402.01.878.26 2.068 1.433 2.217 1.605.203 8.587.266 9.973.372.492.037.915-.317.93-.778l.092-2.546c.016-.357-.292-.654-.676-.647-1.427.023-4.591.074-5.471.074-.467 0-.966.03-1.471.058-.314.017-.574-.216-.566-.51.054-2.14-.358-6.16.06-6.45.417-.29 4.23-.15 5.762-.222.37-.017.66-.298.67-.643l.058-2.11c.01-.375-.315-.683-.72-.675-1.396.026-3.508.078-4.777.07-.31-.001-.55-.252-.517-.54.16-1.381.299-2.47.373-3.851.018-.346.328-.617.7-.617h6.422zM334.368 14.696c.087-2.462-4.736-2.46-4.824 0-.125 3.517-1.376 14.238-1.406 16.018-.025 1.381-.296 3.038.297 4.354.853 1.891 4.98 1.782 4.738-.509-.004-.035 1.08-16.635 1.195-19.863M351.735 13.163c-.839-.916-3.489-.259-3.489-.259-.396-.029-.739.252-.755.622-.083 1.89-.318 7.254-.413 9.706-.013.308-.453.403-.609.131-1.321-2.314-4.508-7.594-6.135-9.828a2.267 2.267 0 0 0-.488-.494c-1.165-1.152-3.621-.71-3.509 1.367.292 5.413-.071 18.264-.164 21.322-.01.363.303.661.693.661h2.844c.44 0 .8-.323.814-.733.076-2.249.315-8.014.266-11.975-.003-.254.368-.328.474-.095 1.292 2.844 4.316 10.304 6.251 12.44.974 1.075 3.183.624 3.432-.913.471-2.905 1.626-21.036.788-21.952M370.6 23.628c-1.585-2.256-5.28-1.038-7.529-.866-3.008.23-3.034 4.8 0 4.567 1.077-.082 2.206-.372 3.315-.442-.019.28-.05.556-.09.834-.168 1.081-.547 2.15-1.395 2.933-2.698 2.494-5.494.009-6.329-2.578-.834-2.585-.29-5.375.505-7.91.967-3.084 3.862-3.405 6.71-2.622 2.926.803 4.175-3.601 1.254-4.405-6.024-1.655-11.214.809-12.797 6.797-1.318 4.982-1.307 12.408 4.086 15.272 4.99 2.648 11.071-.453 12.39-5.581.433-1.69.964-4.456-.12-6"/>
    </g>
</svg>
